<?xml version="1.0" ?> 
<!-- 
# vtk DataFile Version 3.0
-->
<VTKFile type="UnstructuredGrid" version="0.1" compressor="vtkZLibDataCompressor" byte_order="LittleEndian">
  <UnstructuredGrid>
    <FieldData>
      <DataArray type="Float64" Name="TIME" NumberOfTuples="1" format="ascii">
1.000000000000000e+00 
      </DataArray>
    </FieldData>

    <Piece NumberOfPoints="224" NumberOfCells="56" >
      <Points>
        <DataArray type="Float64" NumberOfComponents="3" format="ascii">
0.000000000000000e+00 6.250000000000000e-01 0.000000000000000e+00
1.250000000000000e-01 6.250000000000000e-01 0.000000000000000e+00
1.250000000000000e-01 7.500000000000000e-01 0.000000000000000e+00
0.000000000000000e+00 7.500000000000000e-01 0.000000000000000e+00
1.250000000000000e-01 6.250000000000000e-01 0.000000000000000e+00
2.500000000000000e-01 6.250000000000000e-01 0.000000000000000e+00
2.500000000000000e-01 7.500000000000000e-01 0.000000000000000e+00
1.250000000000000e-01 7.500000000000000e-01 0.000000000000000e+00
2.500000000000000e-01 6.250000000000000e-01 0.000000000000000e+00
3.750000000000000e-01 6.250000000000000e-01 0.000000000000000e+00
3.750000000000000e-01 7.500000000000000e-01 0.000000000000000e+00
2.500000000000000e-01 7.500000000000000e-01 0.000000000000000e+00
3.750000000000000e-01 6.250000000000000e-01 0.000000000000000e+00
5.000000000000000e-01 6.250000000000000e-01 0.000000000000000e+00
5.000000000000000e-01 7.500000000000000e-01 0.000000000000000e+00
3.750000000000000e-01 7.500000000000000e-01 0.000000000000000e+00
5.000000000000000e-01 6.250000000000000e-01 0.000000000000000e+00
6.250000000000000e-01 6.250000000000000e-01 0.000000000000000e+00
6.250000000000000e-01 7.500000000000000e-01 0.000000000000000e+00
5.000000000000000e-01 7.500000000000000e-01 0.000000000000000e+00
6.250000000000000e-01 6.250000000000000e-01 0.000000000000000e+00
7.500000000000000e-01 6.250000000000000e-01 0.000000000000000e+00
7.500000000000000e-01 7.500000000000000e-01 0.000000000000000e+00
6.250000000000000e-01 7.500000000000000e-01 0.000000000000000e+00
7.500000000000000e-01 6.250000000000000e-01 0.000000000000000e+00
8.750000000000000e-01 6.250000000000000e-01 0.000000000000000e+00
8.750000000000000e-01 7.500000000000000e-01 0.000000000000000e+00
7.500000000000000e-01 7.500000000000000e-01 0.000000000000000e+00
8.750000000000000e-01 6.250000000000000e-01 0.000000000000000e+00
1.000000000000000e+00 6.250000000000000e-01 0.000000000000000e+00
1.000000000000000e+00 7.500000000000000e-01 0.000000000000000e+00
8.750000000000000e-01 7.500000000000000e-01 0.000000000000000e+00
0.000000000000000e+00 7.500000000000000e-01 0.000000000000000e+00
1.250000000000000e-01 7.500000000000000e-01 0.000000000000000e+00
1.250000000000000e-01 8.750000000000000e-01 0.000000000000000e+00
0.000000000000000e+00 8.750000000000000e-01 0.000000000000000e+00
1.250000000000000e-01 7.500000000000000e-01 0.000000000000000e+00
2.500000000000000e-01 7.500000000000000e-01 0.000000000000000e+00
2.500000000000000e-01 8.750000000000000e-01 0.000000000000000e+00
1.250000000000000e-01 8.750000000000000e-01 0.000000000000000e+00
2.500000000000000e-01 7.500000000000000e-01 0.000000000000000e+00
3.750000000000000e-01 7.500000000000000e-01 0.000000000000000e+00
3.750000000000000e-01 8.750000000000000e-01 0.000000000000000e+00
2.500000000000000e-01 8.750000000000000e-01 0.000000000000000e+00
3.750000000000000e-01 7.500000000000000e-01 0.000000000000000e+00
5.000000000000000e-01 7.500000000000000e-01 0.000000000000000e+00
5.000000000000000e-01 8.750000000000000e-01 0.000000000000000e+00
3.750000000000000e-01 8.750000000000000e-01 0.000000000000000e+00
5.000000000000000e-01 7.500000000000000e-01 0.000000000000000e+00
6.250000000000000e-01 7.500000000000000e-01 0.000000000000000e+00
6.250000000000000e-01 8.750000000000000e-01 0.000000000000000e+00
5.000000000000000e-01 8.750000000000000e-01 0.000000000000000e+00
6.250000000000000e-01 7.500000000000000e-01 0.000000000000000e+00
7.500000000000000e-01 7.500000000000000e-01 0.000000000000000e+00
7.500000000000000e-01 8.750000000000000e-01 0.000000000000000e+00
6.250000000000000e-01 8.750000000000000e-01 0.000000000000000e+00
7.500000000000000e-01 7.500000000000000e-01 0.000000000000000e+00
8.750000000000000e-01 7.500000000000000e-01 0.000000000000000e+00
8.750000000000000e-01 8.750000000000000e-01 0.000000000000000e+00
7.500000000000000e-01 8.750000000000000e-01 0.000000000000000e+00
8.750000000000000e-01 7.500000000000000e-01 0.000000000000000e+00
1.000000000000000e+00 7.500000000000000e-01 0.000000000000000e+00
1.000000000000000e+00 8.750000000000000e-01 0.000000000000000e+00
8.750000000000000e-01 8.750000000000000e-01 0.000000000000000e+00
0.000000000000000e+00 8.750000000000000e-01 0.000000000000000e+00
1.250000000000000e-01 8.750000000000000e-01 0.000000000000000e+00
1.250000000000000e-01 1.000000000000000e+00 0.000000000000000e+00
0.000000000000000e+00 1.000000000000000e+00 0.000000000000000e+00
1.250000000000000e-01 8.750000000000000e-01 0.000000000000000e+00
2.500000000000000e-01 8.750000000000000e-01 0.000000000000000e+00
2.500000000000000e-01 1.000000000000000e+00 0.000000000000000e+00
1.250000000000000e-01 1.000000000000000e+00 0.000000000000000e+00
2.500000000000000e-01 8.750000000000000e-01 0.000000000000000e+00
3.750000000000000e-01 8.750000000000000e-01 0.000000000000000e+00
3.750000000000000e-01 1.000000000000000e+00 0.000000000000000e+00
2.500000000000000e-01 1.000000000000000e+00 0.000000000000000e+00
3.750000000000000e-01 8.750000000000000e-01 0.000000000000000e+00
5.000000000000000e-01 8.750000000000000e-01 0.000000000000000e+00
5.000000000000000e-01 1.000000000000000e+00 0.000000000000000e+00
3.750000000000000e-01 1.000000000000000e+00 0.000000000000000e+00
5.000000000000000e-01 8.750000000000000e-01 0.000000000000000e+00
6.250000000000000e-01 8.750000000000000e-01 0.000000000000000e+00
6.250000000000000e-01 1.000000000000000e+00 0.000000000000000e+00
5.000000000000000e-01 1.000000000000000e+00 0.000000000000000e+00
6.250000000000000e-01 8.750000000000000e-01 0.000000000000000e+00
7.500000000000000e-01 8.750000000000000e-01 0.000000000000000e+00
7.500000000000000e-01 1.000000000000000e+00 0.000000000000000e+00
6.250000000000000e-01 1.000000000000000e+00 0.000000000000000e+00
7.500000000000000e-01 8.750000000000000e-01 0.000000000000000e+00
8.750000000000000e-01 8.750000000000000e-01 0.000000000000000e+00
8.750000000000000e-01 1.000000000000000e+00 0.000000000000000e+00
7.500000000000000e-01 1.000000000000000e+00 0.000000000000000e+00
8.750000000000000e-01 8.750000000000000e-01 0.000000000000000e+00
1.000000000000000e+00 8.750000000000000e-01 0.000000000000000e+00
1.000000000000000e+00 1.000000000000000e+00 0.000000000000000e+00
8.750000000000000e-01 1.000000000000000e+00 0.000000000000000e+00
0.000000000000000e+00 1.000000000000000e+00 0.000000000000000e+00
1.250000000000000e-01 1.000000000000000e+00 0.000000000000000e+00
1.250000000000000e-01 1.125000000000000e+00 0.000000000000000e+00
0.000000000000000e+00 1.125000000000000e+00 0.000000000000000e+00
1.250000000000000e-01 1.000000000000000e+00 0.000000000000000e+00
2.500000000000000e-01 1.000000000000000e+00 0.000000000000000e+00
2.500000000000000e-01 1.125000000000000e+00 0.000000000000000e+00
1.250000000000000e-01 1.125000000000000e+00 0.000000000000000e+00
2.500000000000000e-01 1.000000000000000e+00 0.000000000000000e+00
3.750000000000000e-01 1.000000000000000e+00 0.000000000000000e+00
3.750000000000000e-01 1.125000000000000e+00 0.000000000000000e+00
2.500000000000000e-01 1.125000000000000e+00 0.000000000000000e+00
3.750000000000000e-01 1.000000000000000e+00 0.000000000000000e+00
5.000000000000000e-01 1.000000000000000e+00 0.000000000000000e+00
5.000000000000000e-01 1.125000000000000e+00 0.000000000000000e+00
3.750000000000000e-01 1.125000000000000e+00 0.000000000000000e+00
5.000000000000000e-01 1.000000000000000e+00 0.000000000000000e+00
6.250000000000000e-01 1.000000000000000e+00 0.000000000000000e+00
6.250000000000000e-01 1.125000000000000e+00 0.000000000000000e+00
5.000000000000000e-01 1.125000000000000e+00 0.000000000000000e+00
6.250000000000000e-01 1.000000000000000e+00 0.000000000000000e+00
7.500000000000000e-01 1.000000000000000e+00 0.000000000000000e+00
7.500000000000000e-01 1.125000000000000e+00 0.000000000000000e+00
6.250000000000000e-01 1.125000000000000e+00 0.000000000000000e+00
7.500000000000000e-01 1.000000000000000e+00 0.000000000000000e+00
8.750000000000000e-01 1.000000000000000e+00 0.000000000000000e+00
8.750000000000000e-01 1.125000000000000e+00 0.000000000000000e+00
7.500000000000000e-01 1.125000000000000e+00 0.000000000000000e+00
8.750000000000000e-01 1.000000000000000e+00 0.000000000000000e+00
1.000000000000000e+00 1.000000000000000e+00 0.000000000000000e+00
1.000000000000000e+00 1.125000000000000e+00 0.000000000000000e+00
8.750000000000000e-01 1.125000000000000e+00 0.000000000000000e+00
0.000000000000000e+00 1.125000000000000e+00 0.000000000000000e+00
1.250000000000000e-01 1.125000000000000e+00 0.000000000000000e+00
1.250000000000000e-01 1.250000000000000e+00 0.000000000000000e+00
0.000000000000000e+00 1.250000000000000e+00 0.000000000000000e+00
1.250000000000000e-01 1.125000000000000e+00 0.000000000000000e+00
2.500000000000000e-01 1.125000000000000e+00 0.000000000000000e+00
2.500000000000000e-01 1.250000000000000e+00 0.000000000000000e+00
1.250000000000000e-01 1.250000000000000e+00 0.000000000000000e+00
2.500000000000000e-01 1.125000000000000e+00 0.000000000000000e+00
3.750000000000000e-01 1.125000000000000e+00 0.000000000000000e+00
3.750000000000000e-01 1.250000000000000e+00 0.000000000000000e+00
2.500000000000000e-01 1.250000000000000e+00 0.000000000000000e+00
3.750000000000000e-01 1.125000000000000e+00 0.000000000000000e+00
5.000000000000000e-01 1.125000000000000e+00 0.000000000000000e+00
5.000000000000000e-01 1.250000000000000e+00 0.000000000000000e+00
3.750000000000000e-01 1.250000000000000e+00 0.000000000000000e+00
5.000000000000000e-01 1.125000000000000e+00 0.000000000000000e+00
6.250000000000000e-01 1.125000000000000e+00 0.000000000000000e+00
6.250000000000000e-01 1.250000000000000e+00 0.000000000000000e+00
5.000000000000000e-01 1.250000000000000e+00 0.000000000000000e+00
6.250000000000000e-01 1.125000000000000e+00 0.000000000000000e+00
7.500000000000000e-01 1.125000000000000e+00 0.000000000000000e+00
7.500000000000000e-01 1.250000000000000e+00 0.000000000000000e+00
6.250000000000000e-01 1.250000000000000e+00 0.000000000000000e+00
7.500000000000000e-01 1.125000000000000e+00 0.000000000000000e+00
8.750000000000000e-01 1.125000000000000e+00 0.000000000000000e+00
8.750000000000000e-01 1.250000000000000e+00 0.000000000000000e+00
7.500000000000000e-01 1.250000000000000e+00 0.000000000000000e+00
8.750000000000000e-01 1.125000000000000e+00 0.000000000000000e+00
1.000000000000000e+00 1.125000000000000e+00 0.000000000000000e+00
1.000000000000000e+00 1.250000000000000e+00 0.000000000000000e+00
8.750000000000000e-01 1.250000000000000e+00 0.000000000000000e+00
0.000000000000000e+00 1.250000000000000e+00 0.000000000000000e+00
1.250000000000000e-01 1.250000000000000e+00 0.000000000000000e+00
1.250000000000000e-01 1.375000000000000e+00 0.000000000000000e+00
0.000000000000000e+00 1.375000000000000e+00 0.000000000000000e+00
1.250000000000000e-01 1.250000000000000e+00 0.000000000000000e+00
2.500000000000000e-01 1.250000000000000e+00 0.000000000000000e+00
2.500000000000000e-01 1.375000000000000e+00 0.000000000000000e+00
1.250000000000000e-01 1.375000000000000e+00 0.000000000000000e+00
2.500000000000000e-01 1.250000000000000e+00 0.000000000000000e+00
3.750000000000000e-01 1.250000000000000e+00 0.000000000000000e+00
3.750000000000000e-01 1.375000000000000e+00 0.000000000000000e+00
2.500000000000000e-01 1.375000000000000e+00 0.000000000000000e+00
3.750000000000000e-01 1.250000000000000e+00 0.000000000000000e+00
5.000000000000000e-01 1.250000000000000e+00 0.000000000000000e+00
5.000000000000000e-01 1.375000000000000e+00 0.000000000000000e+00
3.750000000000000e-01 1.375000000000000e+00 0.000000000000000e+00
5.000000000000000e-01 1.250000000000000e+00 0.000000000000000e+00
6.250000000000000e-01 1.250000000000000e+00 0.000000000000000e+00
6.250000000000000e-01 1.375000000000000e+00 0.000000000000000e+00
5.000000000000000e-01 1.375000000000000e+00 0.000000000000000e+00
6.250000000000000e-01 1.250000000000000e+00 0.000000000000000e+00
7.500000000000000e-01 1.250000000000000e+00 0.000000000000000e+00
7.500000000000000e-01 1.375000000000000e+00 0.000000000000000e+00
6.250000000000000e-01 1.375000000000000e+00 0.000000000000000e+00
7.500000000000000e-01 1.250000000000000e+00 0.000000000000000e+00
8.750000000000000e-01 1.250000000000000e+00 0.000000000000000e+00
8.750000000000000e-01 1.375000000000000e+00 0.000000000000000e+00
7.500000000000000e-01 1.375000000000000e+00 0.000000000000000e+00
8.750000000000000e-01 1.250000000000000e+00 0.000000000000000e+00
1.000000000000000e+00 1.250000000000000e+00 0.000000000000000e+00
1.000000000000000e+00 1.375000000000000e+00 0.000000000000000e+00
8.750000000000000e-01 1.375000000000000e+00 0.000000000000000e+00
0.000000000000000e+00 1.375000000000000e+00 0.000000000000000e+00
1.250000000000000e-01 1.375000000000000e+00 0.000000000000000e+00
1.250000000000000e-01 1.500000000000000e+00 0.000000000000000e+00
0.000000000000000e+00 1.500000000000000e+00 0.000000000000000e+00
1.250000000000000e-01 1.375000000000000e+00 0.000000000000000e+00
2.500000000000000e-01 1.375000000000000e+00 0.000000000000000e+00
2.500000000000000e-01 1.500000000000000e+00 0.000000000000000e+00
1.250000000000000e-01 1.500000000000000e+00 0.000000000000000e+00
2.500000000000000e-01 1.375000000000000e+00 0.000000000000000e+00
3.750000000000000e-01 1.375000000000000e+00 0.000000000000000e+00
3.750000000000000e-01 1.500000000000000e+00 0.000000000000000e+00
2.500000000000000e-01 1.500000000000000e+00 0.000000000000000e+00
3.750000000000000e-01 1.375000000000000e+00 0.000000000000000e+00
5.000000000000000e-01 1.375000000000000e+00 0.000000000000000e+00
5.000000000000000e-01 1.500000000000000e+00 0.000000000000000e+00
3.750000000000000e-01 1.500000000000000e+00 0.000000000000000e+00
5.000000000000000e-01 1.375000000000000e+00 0.000000000000000e+00
6.250000000000000e-01 1.375000000000000e+00 0.000000000000000e+00
6.250000000000000e-01 1.500000000000000e+00 0.000000000000000e+00
5.000000000000000e-01 1.500000000000000e+00 0.000000000000000e+00
6.250000000000000e-01 1.375000000000000e+00 0.000000000000000e+00
7.500000000000000e-01 1.375000000000000e+00 0.000000000000000e+00
7.500000000000000e-01 1.500000000000000e+00 0.000000000000000e+00
6.250000000000000e-01 1.500000000000000e+00 0.000000000000000e+00
7.500000000000000e-01 1.375000000000000e+00 0.000000000000000e+00
8.750000000000000e-01 1.375000000000000e+00 0.000000000000000e+00
8.750000000000000e-01 1.500000000000000e+00 0.000000000000000e+00
7.500000000000000e-01 1.500000000000000e+00 0.000000000000000e+00
8.750000000000000e-01 1.375000000000000e+00 0.000000000000000e+00
1.000000000000000e+00 1.375000000000000e+00 0.000000000000000e+00
1.000000000000000e+00 1.500000000000000e+00 0.000000000000000e+00
8.750000000000000e-01 1.500000000000000e+00 0.000000000000000e+00
        </DataArray>
      </Points>

      <Cells>
        <DataArray type="Int32" Name="connectivity" format="ascii">
0 1 2 3 4 5 6 7 8 9 10 11 12 13 14 15 16 17 18 19 20 21 22 23 24 25 26 27 28 29 30 31 32 33 34 35 36 37 38 39 40 41 42 43 44 45 46 47 48 49 50 51 52 53 54 55 56 57 58 59 60 61 62 63 64 65 66 67 68 69 70 71 72 73 74 75 76 77 78 79 80 81 82 83 84 85 86 87 88 89 90 91 92 93 94 95 96 97 98 99 100 101 102 103 104 105 106 107 108 109 110 111 112 113 114 115 116 117 118 119 120 121 122 123 124 125 126 127 128 129 130 131 132 133 134 135 136 137 138 139 140 141 142 143 144 145 146 147 148 149 150 151 152 153 154 155 156 157 158 159 160 161 162 163 164 165 166 167 168 169 170 171 172 173 174 175 176 177 178 179 180 181 182 183 184 185 186 187 188 189 190 191 192 193 194 195 196 197 198 199 200 201 202 203 204 205 206 207 208 209 210 211 212 213 214 215 216 217 218 219 220 221 222 223 
        </DataArray>
        <DataArray type="Int32" Name="offsets" format="ascii">
4 8 12 16 20 24 28 32 36 40 44 48 52 56 60 64 68 72 76 80 84 88 92 96 100 104 108 112 116 120 124 128 132 136 140 144 148 152 156 160 164 168 172 176 180 184 188 192 196 200 204 208 212 216 220 224 
        </DataArray>
        <DataArray type="UInt8" Name="types" format="ascii">
9 9 9 9 9 9 9 9 9 9 9 9 9 9 9 9 9 9 9 9 9 9 9 9 9 9 9 9 9 9 9 9 9 9 9 9 9 9 9 9 9 9 9 9 9 9 9 9 9 9 9 9 9 9 9 9 
        </DataArray>
      </Cells>

  <PointData>
        <DataArray type="Float64" Name="flux_domain_phi_1" NumberOfComponents="3" format="ascii">
3.282614530183120e-01 -2.898201814253394e-03 0.000000000000000e+00
2.429047223354263e-01 -7.828824231264818e-03 0.000000000000000e+00
2.367607943833523e-01 -1.584011527562032e-02 0.000000000000000e+00
3.194989472409063e-01 -5.864303963152602e-03 0.000000000000000e+00
2.429047223354263e-01 -7.828824231264818e-03 0.000000000000000e+00
9.285334183128795e-02 -1.155842620660029e-02 0.000000000000000e+00
9.114666959899495e-02 -2.348646361139431e-02 0.000000000000000e+00
2.367607943833523e-01 -1.584011527562032e-02 0.000000000000000e+00
9.285334183128795e-02 -1.155842620660029e-02 0.000000000000000e+00
-1.756454960465005e-02 -1.148555939815149e-02 0.000000000000000e+00
-1.629798413429082e-02 -2.388743151962044e-02 0.000000000000000e+00
9.114666959899495e-02 -2.348646361139431e-02 0.000000000000000e+00
-1.756454960465005e-02 -1.148555939815149e-02 0.000000000000000e+00
-9.098173759191445e-02 -9.013335278916429e-03 0.000000000000000e+00
-8.796356643132104e-02 -1.965379372934090e-02 0.000000000000000e+00
-1.629798413429082e-02 -2.388743151962044e-02 0.000000000000000e+00
-9.098173759191445e-02 -9.013335278916429e-03 0.000000000000000e+00
-1.287077916710101e-01 -5.370962019705729e-03 0.000000000000000e+00
-1.250345737239554e-01 -1.298956083827875e-02 0.000000000000000e+00
-8.796356643132104e-02 -1.965379372934090e-02 0.000000000000000e+00
-1.287077916710101e-01 -5.370962019705729e-03 0.000000000000000e+00
-1.309546267969499e-01 -1.735989599986476e-03 0.000000000000000e+00
-1.277520378402667e-01 -6.017507502775726e-03 0.000000000000000e+00
-1.250345737239554e-01 -1.298956083827875e-02 0.000000000000000e+00
-1.309546267969499e-01 -1.735989599986476e-03 0.000000000000000e+00
-9.663238105976618e-02 4.582515299414898e-04 0.000000000000000e+00
-9.542823652510601e-02 -1.131056079478464e-03 0.000000000000000e+00
-1.277520378402667e-01 -6.017507502775726e-03 0.000000000000000e+00
-9.663238105976618e-02 4.582515299414898e-04 0.000000000000000e+00
-7.009540790315921e-02 3.564763061069724e-04 0.000000000000000e+00
-7.036107789572081e-02 -9.080631354530074e-05 0.000000000000000e+00
-9.542823652510601e-02 -1.131056079478464e-03 0.000000000000000e+00
3.194989472409063e-01 -5.864303963152602e-03 0.000000000000000e+00
2.367607943833523e-01 -1.584011527562032e-02 0.000000000000000e+00
2.185944384835541e-01 -2.986775910663543e-02 0.000000000000000e+00
2.938024848396896e-01 -1.100175232601359e-02 0.000000000000000e+00
2.367607943833523e-01 -1.584011527562032e-02 0.000000000000000e+00
9.114666959899495e-02 -2.348646361139431e-02 0.000000000000000e+00
8.560884640176908e-02 -4.499874457005273e-02 0.000000000000000e+00
2.185944384835541e-01 -2.986775910663543e-02 0.000000000000000e+00
9.114666959899495e-02 -2.348646361139431e-02 0.000000000000000e+00
-1.629798413429082e-02 -2.388743151962044e-02 0.000000000000000e+00
-1.338535560878059e-02 -4.678756570471338e-02 0.000000000000000e+00
8.560884640176908e-02 -4.499874457005273e-02 0.000000000000000e+00
-1.629798413429082e-02 -2.388743151962044e-02 0.000000000000000e+00
-8.796356643132104e-02 -1.965379372934090e-02 0.000000000000000e+00
-7.987357467684611e-02 -3.974898062923919e-02 0.000000000000000e+00
-1.338535560878059e-02 -4.678756570471338e-02 0.000000000000000e+00
-8.796356643132104e-02 -1.965379372934090e-02 0.000000000000000e+00
-1.250345737239554e-01 -1.298956083827875e-02 0.000000000000000e+00
-1.147661494143030e-01 -2.782556051723026e-02 0.000000000000000e+00
-7.987357467684611e-02 -3.974898062923919e-02 0.000000000000000e+00
-1.250345737239554e-01 -1.298956083827875e-02 0.000000000000000e+00
-1.277520378402667e-01 -6.017507502775726e-03 0.000000000000000e+00
-1.183576039774683e-01 -1.482237077412193e-02 0.000000000000000e+00
-1.147661494143030e-01 -2.782556051723026e-02 0.000000000000000e+00
-1.277520378402667e-01 -6.017507502775726e-03 0.000000000000000e+00
-9.542823652510601e-02 -1.131056079478464e-03 0.000000000000000e+00
-9.044293346047043e-02 -4.740398418502503e-03 0.000000000000000e+00
-1.183576039774683e-01 -1.482237077412193e-02 0.000000000000000e+00
-9.542823652510601e-02 -1.131056079478464e-03 0.000000000000000e+00
-7.036107789572081e-02 -9.080631354530074e-05 0.000000000000000e+00
-6.855782033459899e-02 -1.174362314378974e-03 0.000000000000000e+00
-9.044293346047043e-02 -4.740398418502503e-03 0.000000000000000e+00
2.938024848396896e-01 -1.100175232601359e-02 0.000000000000000e+00
2.185944384835541e-01 -2.986775910663543e-02 0.000000000000000e+00
1.902300547072588e-01 -4.095602761168360e-02 0.000000000000000e+00
2.546307274220299e-01 -1.499690655167246e-02 0.000000000000000e+00
2.185944384835541e-01 -2.986775910663543e-02 0.000000000000000e+00
8.560884640176908e-02 -4.499874457005273e-02 0.000000000000000e+00
7.588374596974397e-02 -6.277266026089549e-02 0.000000000000000e+00
1.902300547072588e-01 -4.095602761168360e-02 0.000000000000000e+00
8.560884640176908e-02 -4.499874457005273e-02 0.000000000000000e+00
-1.338535560878059e-02 -4.678756570471338e-02 0.000000000000000e+00
-9.975654685679949e-03 -6.648958971985869e-02 0.000000000000000e+00
7.588374596974397e-02 -6.277266026089549e-02 0.000000000000000e+00
-1.338535560878059e-02 -4.678756570471338e-02 0.000000000000000e+00
-7.987357467684611e-02 -3.974898062923919e-02 0.000000000000000e+00
-6.814733765480270e-02 -5.776176296449258e-02 0.000000000000000e+00
-9.975654685679949e-03 -6.648958971985869e-02 0.000000000000000e+00
-7.987357467684611e-02 -3.974898062923919e-02 0.000000000000000e+00
-1.147661494143030e-01 -2.782556051723026e-02 0.000000000000000e+00
-9.923096404288521e-02 -4.184462691537849e-02 0.000000000000000e+00
-6.814733765480270e-02 -5.776176296449258e-02 0.000000000000000e+00
-1.147661494143030e-01 -2.782556051723026e-02 0.000000000000000e+00
-1.183576039774683e-01 -1.482237077412193e-02 0.000000000000000e+00
-1.035145320840658e-01 -2.383631535452696e-02 0.000000000000000e+00
-9.923096404288521e-02 -4.184462691537849e-02 0.000000000000000e+00
-1.183576039774683e-01 -1.482237077412193e-02 0.000000000000000e+00
-9.044293346047043e-02 -4.740398418502503e-03 0.000000000000000e+00
-8.102343597869369e-02 -8.885346816804149e-03 0.000000000000000e+00
-1.035145320840658e-01 -2.383631535452696e-02 0.000000000000000e+00
-9.044293346047043e-02 -4.740398418502503e-03 0.000000000000000e+00
-6.855782033459899e-02 -1.174362314378974e-03 0.000000000000000e+00
-6.307447988378086e-02 -2.498342440878996e-03 0.000000000000000e+00
-8.102343597869369e-02 -8.885346816804149e-03 0.000000000000000e+00
2.546307274220299e-01 -1.499690655167246e-02 0.000000000000000e+00
1.902300547072588e-01 -4.095602761168360e-02 0.000000000000000e+00
1.532282186199119e-01 -5.052009972194962e-02 0.000000000000000e+00
2.043796101338504e-01 -1.843349617313975e-02 0.000000000000000e+00
1.902300547072588e-01 -4.095602761168360e-02 0.000000000000000e+00
7.588374596974397e-02 -6.277266026089549e-02 0.000000000000000e+00
6.214669195939696e-02 -7.826052298914442e-02 0.000000000000000e+00
1.532282186199119e-01 -5.052009972194962e-02 0.000000000000000e+00
7.588374596974397e-02 -6.277266026089549e-02 0.000000000000000e+00
-9.975654685679949e-03 -6.648958971985869e-02 0.000000000000000e+00
-6.708815088228868e-03 -8.400434180375087e-02 0.000000000000000e+00
6.214669195939696e-02 -7.826052298914442e-02 0.000000000000000e+00
-9.975654685679949e-03 -6.648958971985869e-02 0.000000000000000e+00
-6.814733765480270e-02 -5.776176296449258e-02 0.000000000000000e+00
-5.376815949081666e-02 -7.420445328970590e-02 0.000000000000000e+00
-6.708815088228868e-03 -8.400434180375087e-02 0.000000000000000e+00
-6.814733765480270e-02 -5.776176296449258e-02 0.000000000000000e+00
-9.923096404288521e-02 -4.184462691537849e-02 0.000000000000000e+00
-7.939629776213090e-02 -5.507814529231338e-02 0.000000000000000e+00
-5.376815949081666e-02 -7.420445328970590e-02 0.000000000000000e+00
-9.923096404288521e-02 -4.184462691537849e-02 0.000000000000000e+00
-1.035145320840658e-01 -2.383631535452696e-02 0.000000000000000e+00
-8.381824673577287e-02 -3.270867454827268e-02 0.000000000000000e+00
-7.939629776213090e-02 -5.507814529231338e-02 0.000000000000000e+00
-1.035145320840658e-01 -2.383631535452696e-02 0.000000000000000e+00
-8.102343597869369e-02 -8.885346816804149e-03 0.000000000000000e+00
-6.712310576955216e-02 -1.315331947546709e-02 0.000000000000000e+00
-8.381824673577287e-02 -3.270867454827268e-02 0.000000000000000e+00
-8.102343597869369e-02 -8.885346816804149e-03 0.000000000000000e+00
-6.307447988378086e-02 -2.498342440878996e-03 0.000000000000000e+00
-5.350018159946526e-02 -3.889906657239379e-03 0.000000000000000e+00
-6.712310576955216e-02 -1.315331947546709e-02 0.000000000000000e+00
2.043796101338504e-01 -1.843349617313975e-02 0.000000000000000e+00
1.532282186199119e-01 -5.052009972194962e-02 0.000000000000000e+00
1.085821706263944e-01 -5.908956844215474e-02 0.000000000000000e+00
1.443916719916431e-01 -2.150816418616025e-02 0.000000000000000e+00
1.532282186199119e-01 -5.052009972194962e-02 0.000000000000000e+00
6.214669195939696e-02 -7.826052298914442e-02 0.000000000000000e+00
4.468446970366575e-02 -9.221511580244879e-02 0.000000000000000e+00
1.085821706263944e-01 -5.908956844215474e-02 0.000000000000000e+00
6.214669195939696e-02 -7.826052298914442e-02 0.000000000000000e+00
-6.708815088228868e-03 -8.400434180375087e-02 0.000000000000000e+00
-3.880048709140630e-03 -9.996842117541338e-02 0.000000000000000e+00
4.468446970366575e-02 -9.221511580244879e-02 0.000000000000000e+00
-6.708815088228868e-03 -8.400434180375087e-02 0.000000000000000e+00
-5.376815949081666e-02 -7.420445328970590e-02 0.000000000000000e+00
-3.733602955601053e-02 -8.945583615773499e-02 0.000000000000000e+00
-3.880048709140630e-03 -9.996842117541338e-02 0.000000000000000e+00
-5.376815949081666e-02 -7.420445328970590e-02 0.000000000000000e+00
-7.939629776213090e-02 -5.507814529231338e-02 0.000000000000000e+00
-5.589005030265415e-02 -6.763641791370470e-02 0.000000000000000e+00
-3.733602955601053e-02 -8.945583615773499e-02 0.000000000000000e+00
-7.939629776213090e-02 -5.507814529231338e-02 0.000000000000000e+00
-8.381824673577287e-02 -3.270867454827268e-02 0.000000000000000e+00
-5.968881711285167e-02 -4.136372070250351e-02 0.000000000000000e+00
-5.589005030265415e-02 -6.763641791370470e-02 0.000000000000000e+00
-8.381824673577287e-02 -3.270867454827268e-02 0.000000000000000e+00
-6.712310576955216e-02 -1.315331947546709e-02 0.000000000000000e+00
-4.881207161459963e-02 -1.743986329048327e-02 0.000000000000000e+00
-5.968881711285167e-02 -4.136372070250351e-02 0.000000000000000e+00
-6.712310576955216e-02 -1.315331947546709e-02 0.000000000000000e+00
-5.350018159946526e-02 -3.889906657239379e-03 0.000000000000000e+00
-3.971091806125023e-02 -5.305592752695103e-03 0.000000000000000e+00
-4.881207161459963e-02 -1.743986329048327e-02 0.000000000000000e+00
1.443916719916431e-01 -2.150816418616025e-02 0.000000000000000e+00
1.085821706263944e-01 -5.908956844215474e-02 0.000000000000000e+00
5.699286594019078e-02 -6.690713782300116e-02 0.000000000000000e+00
7.560453081692546e-02 -2.430892639914999e-02 0.000000000000000e+00
1.085821706263944e-01 -5.908956844215474e-02 0.000000000000000e+00
4.468446970366575e-02 -9.221511580244879e-02 0.000000000000000e+00
2.373199139244619e-02 -1.050102044038199e-01 0.000000000000000e+00
5.699286594019078e-02 -6.690713782300116e-02 0.000000000000000e+00
4.468446970366575e-02 -9.221511580244879e-02 0.000000000000000e+00
-3.880048709140630e-03 -9.996842117541338e-02 0.000000000000000e+00
-1.650276096019976e-03 -1.147431007634814e-01 0.000000000000000e+00
2.373199139244619e-02 -1.050102044038199e-01 0.000000000000000e+00
-3.880048709140630e-03 -9.996842117541338e-02 0.000000000000000e+00
-3.733602955601053e-02 -8.945583615773499e-02 0.000000000000000e+00
-1.925085820068303e-02 -1.037666359900957e-01 0.000000000000000e+00
-1.650276096019976e-03 -1.147431007634814e-01 0.000000000000000e+00
-3.733602955601053e-02 -8.945583615773499e-02 0.000000000000000e+00
-5.589005030265415e-02 -6.763641791370470e-02 0.000000000000000e+00
-2.916301790778476e-02 -7.963628631466443e-02 0.000000000000000e+00
-1.925085820068303e-02 -1.037666359900957e-01 0.000000000000000e+00
-5.589005030265415e-02 -6.763641791370470e-02 0.000000000000000e+00
-5.968881711285167e-02 -4.136372070250351e-02 0.000000000000000e+00
-3.145800885830796e-02 -4.982021796747232e-02 0.000000000000000e+00
-2.916301790778476e-02 -7.963628631466443e-02 0.000000000000000e+00
-5.968881711285167e-02 -4.136372070250351e-02 0.000000000000000e+00
-4.881207161459963e-02 -1.743986329048327e-02 0.000000000000000e+00
-2.617957193638604e-02 -2.172956542702523e-02 0.000000000000000e+00
-3.145800885830796e-02 -4.982021796747232e-02 0.000000000000000e+00
-4.881207161459963e-02 -1.743986329048327e-02 0.000000000000000e+00
-3.971091806125023e-02 -5.305592752695103e-03 0.000000000000000e+00
-2.165077948383584e-02 -6.737124447610992e-03 0.000000000000000e+00
-2.617957193638604e-02 -2.172956542702523e-02 0.000000000000000e+00
7.560453081692546e-02 -2.430892639914999e-02 0.000000000000000e+00
5.699286594019078e-02 -6.690713782300116e-02 0.000000000000000e+00
1.935179045774447e-02 -7.064739487551991e-02 0.000000000000000e+00
2.564780220888945e-02 -2.564780220888944e-02 0.000000000000000e+00
5.699286594019078e-02 -6.690713782300116e-02 0.000000000000000e+00
2.373199139244619e-02 -1.050102044038199e-01 0.000000000000000e+00
8.093926743295102e-03 -1.111488907831572e-01 0.000000000000000e+00
1.935179045774447e-02 -7.064739487551991e-02 0.000000000000000e+00
2.373199139244619e-02 -1.050102044038199e-01 0.000000000000000e+00
-1.650276096019976e-03 -1.147431007634814e-01 0.000000000000000e+00
-5.102011941847915e-04 -1.218646911122578e-01 0.000000000000000e+00
8.093926743295102e-03 -1.111488907831572e-01 0.000000000000000e+00
-1.650276096019976e-03 -1.147431007634814e-01 0.000000000000000e+00
-1.925085820068303e-02 -1.037666359900957e-01 0.000000000000000e+00
-6.491323355852161e-03 -1.107106893938611e-01 0.000000000000000e+00
-5.102011941847915e-04 -1.218646911122578e-01 0.000000000000000e+00
-1.925085820068303e-02 -1.037666359900957e-01 0.000000000000000e+00
-2.916301790778476e-02 -7.963628631466443e-02 0.000000000000000e+00
-9.879461561268120e-03 -8.550973493339799e-02 0.000000000000000e+00
-6.491323355852161e-03 -1.107106893938611e-01 0.000000000000000e+00
-2.916301790778476e-02 -7.963628631466443e-02 0.000000000000000e+00
-3.145800885830796e-02 -4.982021796747232e-02 0.000000000000000e+00
-1.069809073283120e-02 -5.400342906010792e-02 0.000000000000000e+00
-9.879461561268120e-03 -8.550973493339799e-02 0.000000000000000e+00
-3.145800885830796e-02 -4.982021796747232e-02 0.000000000000000e+00
-2.617957193638604e-02 -2.172956542702523e-02 0.000000000000000e+00
-8.962127702291552e-03 -2.387578273851640e-02 0.000000000000000e+00
-1.069809073283120e-02 -5.400342906010792e-02 0.000000000000000e+00
-2.617957193638604e-02 -2.172956542702523e-02 0.000000000000000e+00
-2.165077948383584e-02 -6.737124447610992e-03 0.000000000000000e+00
-7.456827518112926e-03 -7.456827518112918e-03 0.000000000000000e+00
-8.962127702291552e-03 -2.387578273851640e-02 0.000000000000000e+00
        </DataArray>
        <DataArray type="Float64" Name="phi_1" format="ascii">
0.000000000000000e+00
-2.069747842703534e-02
-2.015406558686285e-02
0.000000000000000e+00
-2.069747842703534e-02
-3.061714286727309e-02
-2.985498514123873e-02
-2.015406558686285e-02
-3.061714286727309e-02
-3.237046390361056e-02
-3.162809782044539e-02
-2.985498514123873e-02
-3.237046390361056e-02
-2.835934249655097e-02
-2.778387978093920e-02
-3.162809782044539e-02
-2.835934249655097e-02
-2.086221927156001e-02
-2.052643548757857e-02
-2.778387978093920e-02
-2.086221927156001e-02
-1.211088526775482e-02
-1.201537236190268e-02
-2.052643548757857e-02
-1.211088526775482e-02
-4.358683224815764e-03
-4.425522532210817e-03
-1.201537236190268e-02
-4.358683224815764e-03
0.000000000000000e+00
0.000000000000000e+00
-4.425522532210817e-03
0.000000000000000e+00
-2.015406558686285e-02
-1.849836444085321e-02
0.000000000000000e+00
-2.015406558686285e-02
-2.985498514123873e-02
-2.753351235528630e-02
-1.849836444085321e-02
-2.985498514123873e-02
-3.162809782044539e-02
-2.928925222919406e-02
-2.753351235528630e-02
-3.162809782044539e-02
-2.778387978093920e-02
-2.585224606648839e-02
-2.928925222919406e-02
-2.778387978093920e-02
-2.052643548757857e-02
-1.923147136922109e-02
-2.585224606648839e-02
-2.052643548757857e-02
-1.201537236190268e-02
-1.139880267846397e-02
-1.923147136922109e-02
-1.201537236190268e-02
-4.425522532210817e-03
-4.324630857236274e-03
-1.139880267846397e-02
-4.425522532210817e-03
0.000000000000000e+00
0.000000000000000e+00
-4.324630857236274e-03
0.000000000000000e+00
-1.849836444085321e-02
-1.602840846460794e-02
0.000000000000000e+00
-1.849836444085321e-02
-2.753351235528630e-02
-2.395679430028168e-02
-1.602840846460794e-02
-2.753351235528630e-02
-2.928925222919406e-02
-2.559745987898883e-02
-2.395679430028168e-02
-2.928925222919406e-02
-2.585224606648839e-02
-2.271394810918739e-02
-2.559745987898883e-02
-2.585224606648839e-02
-1.923147136922109e-02
-1.702506464411295e-02
-2.271394810918739e-02
-1.923147136922109e-02
-1.139880267846397e-02
-1.022161701959426e-02
-1.702506464411295e-02
-1.139880267846397e-02
-4.324630857236274e-03
-3.985136664318717e-03
-1.022161701959426e-02
-4.324630857236274e-03
0.000000000000000e+00
0.000000000000000e+00
-3.985136664318717e-03
0.000000000000000e+00
-1.602840846460794e-02
-1.287452448397629e-02
0.000000000000000e+00
-1.602840846460794e-02
-2.395679430028168e-02
-1.931185147403115e-02
-1.287452448397629e-02
-2.395679430028168e-02
-2.559745987898883e-02
-2.072024051541986e-02
-1.931185147403115e-02
-2.559745987898883e-02
-2.271394810918739e-02
-1.848276151294627e-02
-2.072024051541986e-02
-2.271394810918739e-02
-1.702506464411295e-02
-1.395709907379433e-02
-1.848276151294627e-02
-1.702506464411295e-02
-1.022161701959426e-02
-8.482306227179265e-03
-1.395709907379433e-02
-1.022161701959426e-02
-3.985136664318717e-03
-3.387752441906688e-03
-8.482306227179265e-03
-3.985136664318717e-03
0.000000000000000e+00
0.000000000000000e+00
-3.387752441906688e-03
0.000000000000000e+00
-1.287452448397629e-02
-9.115847399680839e-03
0.000000000000000e+00
-1.287452448397629e-02
-1.931185147403115e-02
-1.371696376852772e-02
-9.115847399680839e-03
-1.931185147403115e-02
-2.072024051541986e-02
-1.477395082907340e-02
-1.371696376852772e-02
-2.072024051541986e-02
-1.848276151294627e-02
-1.324455848778989e-02
-1.477395082907340e-02
-1.848276151294627e-02
-1.395709907379433e-02
-1.007279221233892e-02
-1.324455848778989e-02
-1.395709907379433e-02
-8.482306227179265e-03
-6.191487398852823e-03
-1.007279221233892e-02
-8.482306227179265e-03
-3.387752441906688e-03
-2.526421667854012e-03
-6.191487398852823e-03
-3.387752441906688e-03
0.000000000000000e+00
0.000000000000000e+00
-2.526421667854012e-03
0.000000000000000e+00
-9.115847399680839e-03
-4.808962914166557e-03
0.000000000000000e+00
-9.115847399680839e-03
-1.371696376852772e-02
-7.256921421653851e-03
-4.808962914166557e-03
-1.371696376852772e-02
-1.477395082907340e-02
-7.844185442902083e-03
-7.256921421653851e-03
-1.477395082907340e-02
-1.324455848778989e-02
-7.065595973834563e-03
-7.844185442902083e-03
-1.324455848778989e-02
-1.007279221233892e-02
-5.409939184457632e-03
-7.065595973834563e-03
-1.007279221233892e-02
-6.191487398852823e-03
-3.360797888359181e-03
-5.409939184457632e-03
-6.191487398852823e-03
-2.526421667854012e-03
-1.398155159646111e-03
-3.360797888359181e-03
-2.526421667854012e-03
0.000000000000000e+00
0.000000000000000e+00
-1.398155159646111e-03
0.000000000000000e+00
-4.808962914166557e-03
0.000000000000000e+00
0.000000000000000e+00
-4.808962914166557e-03
-7.256921421653851e-03
0.000000000000000e+00
0.000000000000000e+00
-7.256921421653851e-03
-7.844185442902083e-03
0.000000000000000e+00
0.000000000000000e+00
-7.844185442902083e-03
-7.065595973834563e-03
0.000000000000000e+00
0.000000000000000e+00
-7.065595973834563e-03
-5.409939184457632e-03
0.000000000000000e+00
0.000000000000000e+00
-5.409939184457632e-03
-3.360797888359181e-03
0.000000000000000e+00
0.000000000000000e+00
-3.360797888359181e-03
-1.398155159646111e-03
0.000000000000000e+00
0.000000000000000e+00
-1.398155159646111e-03
0.000000000000000e+00
0.000000000000000e+00
0.000000000000000e+00
        </DataArray>
  </PointData>
  <CellData>
        <DataArray type="Float64" Name="Owner" format="ascii">
0.000000000000000e+00
0.000000000000000e+00
0.000000000000000e+00
0.000000000000000e+00
0.000000000000000e+00
0.000000000000000e+00
0.000000000000000e+00
0.000000000000000e+00
0.000000000000000e+00
0.000000000000000e+00
0.000000000000000e+00
0.000000000000000e+00
0.000000000000000e+00
0.000000000000000e+00
0.000000000000000e+00
0.000000000000000e+00
0.000000000000000e+00
0.000000000000000e+00
0.000000000000000e+00
0.000000000000000e+00
0.000000000000000e+00
0.000000000000000e+00
0.000000000000000e+00
0.000000000000000e+00
0.000000000000000e+00
0.000000000000000e+00
0.000000000000000e+00
0.000000000000000e+00
0.000000000000000e+00
0.000000000000000e+00
0.000000000000000e+00
0.000000000000000e+00
0.000000000000000e+00
0.000000000000000e+00
0.000000000000000e+00
0.000000000000000e+00
0.000000000000000e+00
0.000000000000000e+00
0.000000000000000e+00
0.000000000000000e+00
0.000000000000000e+00
0.000000000000000e+00
0.000000000000000e+00
0.000000000000000e+00
0.000000000000000e+00
0.000000000000000e+00
0.000000000000000e+00
0.000000000000000e+00
0.000000000000000e+00
0.000000000000000e+00
0.000000000000000e+00
0.000000000000000e+00
0.000000000000000e+00
0.000000000000000e+00
0.000000000000000e+00
0.000000000000000e+00
        </DataArray>
      </CellData>

    </Piece>
  </UnstructuredGrid>
</VTKFile>
