<?xml version="1.0" ?> 
<!-- 
# vtk DataFile Version 3.0
-->
<VTKFile type="UnstructuredGrid" version="0.1" compressor="vtkZLibDataCompressor" byte_order="LittleEndian">
  <UnstructuredGrid>
    <FieldData>
      <DataArray type="Float64" Name="TIME" NumberOfTuples="1" format="ascii">
1.000000000000000e+00 
      </DataArray>
    </FieldData>

    <Piece NumberOfPoints="160" NumberOfCells="40" >
      <Points>
        <DataArray type="Float64" NumberOfComponents="3" format="ascii">
0.000000000000000e+00 0.000000000000000e+00 0.000000000000000e+00
1.250000000000000e-01 0.000000000000000e+00 0.000000000000000e+00
1.250000000000000e-01 1.250000000000000e-01 0.000000000000000e+00
0.000000000000000e+00 1.250000000000000e-01 0.000000000000000e+00
1.250000000000000e-01 0.000000000000000e+00 0.000000000000000e+00
2.500000000000000e-01 0.000000000000000e+00 0.000000000000000e+00
2.500000000000000e-01 1.250000000000000e-01 0.000000000000000e+00
1.250000000000000e-01 1.250000000000000e-01 0.000000000000000e+00
2.500000000000000e-01 0.000000000000000e+00 0.000000000000000e+00
3.750000000000000e-01 0.000000000000000e+00 0.000000000000000e+00
3.750000000000000e-01 1.250000000000000e-01 0.000000000000000e+00
2.500000000000000e-01 1.250000000000000e-01 0.000000000000000e+00
3.750000000000000e-01 0.000000000000000e+00 0.000000000000000e+00
5.000000000000000e-01 0.000000000000000e+00 0.000000000000000e+00
5.000000000000000e-01 1.250000000000000e-01 0.000000000000000e+00
3.750000000000000e-01 1.250000000000000e-01 0.000000000000000e+00
5.000000000000000e-01 0.000000000000000e+00 0.000000000000000e+00
6.250000000000000e-01 0.000000000000000e+00 0.000000000000000e+00
6.250000000000000e-01 1.250000000000000e-01 0.000000000000000e+00
5.000000000000000e-01 1.250000000000000e-01 0.000000000000000e+00
0.000000000000000e+00 1.250000000000000e-01 0.000000000000000e+00
1.250000000000000e-01 1.250000000000000e-01 0.000000000000000e+00
1.250000000000000e-01 2.500000000000000e-01 0.000000000000000e+00
0.000000000000000e+00 2.500000000000000e-01 0.000000000000000e+00
1.250000000000000e-01 1.250000000000000e-01 0.000000000000000e+00
2.500000000000000e-01 1.250000000000000e-01 0.000000000000000e+00
2.500000000000000e-01 2.500000000000000e-01 0.000000000000000e+00
1.250000000000000e-01 2.500000000000000e-01 0.000000000000000e+00
2.500000000000000e-01 1.250000000000000e-01 0.000000000000000e+00
3.750000000000000e-01 1.250000000000000e-01 0.000000000000000e+00
3.750000000000000e-01 2.500000000000000e-01 0.000000000000000e+00
2.500000000000000e-01 2.500000000000000e-01 0.000000000000000e+00
3.750000000000000e-01 1.250000000000000e-01 0.000000000000000e+00
5.000000000000000e-01 1.250000000000000e-01 0.000000000000000e+00
5.000000000000000e-01 2.500000000000000e-01 0.000000000000000e+00
3.750000000000000e-01 2.500000000000000e-01 0.000000000000000e+00
5.000000000000000e-01 1.250000000000000e-01 0.000000000000000e+00
6.250000000000000e-01 1.250000000000000e-01 0.000000000000000e+00
6.250000000000000e-01 2.500000000000000e-01 0.000000000000000e+00
5.000000000000000e-01 2.500000000000000e-01 0.000000000000000e+00
0.000000000000000e+00 2.500000000000000e-01 0.000000000000000e+00
1.250000000000000e-01 2.500000000000000e-01 0.000000000000000e+00
1.250000000000000e-01 3.750000000000000e-01 0.000000000000000e+00
0.000000000000000e+00 3.750000000000000e-01 0.000000000000000e+00
1.250000000000000e-01 2.500000000000000e-01 0.000000000000000e+00
2.500000000000000e-01 2.500000000000000e-01 0.000000000000000e+00
2.500000000000000e-01 3.750000000000000e-01 0.000000000000000e+00
1.250000000000000e-01 3.750000000000000e-01 0.000000000000000e+00
2.500000000000000e-01 2.500000000000000e-01 0.000000000000000e+00
3.750000000000000e-01 2.500000000000000e-01 0.000000000000000e+00
3.750000000000000e-01 3.750000000000000e-01 0.000000000000000e+00
2.500000000000000e-01 3.750000000000000e-01 0.000000000000000e+00
3.750000000000000e-01 2.500000000000000e-01 0.000000000000000e+00
5.000000000000000e-01 2.500000000000000e-01 0.000000000000000e+00
5.000000000000000e-01 3.750000000000000e-01 0.000000000000000e+00
3.750000000000000e-01 3.750000000000000e-01 0.000000000000000e+00
5.000000000000000e-01 2.500000000000000e-01 0.000000000000000e+00
6.250000000000000e-01 2.500000000000000e-01 0.000000000000000e+00
6.250000000000000e-01 3.750000000000000e-01 0.000000000000000e+00
5.000000000000000e-01 3.750000000000000e-01 0.000000000000000e+00
0.000000000000000e+00 3.750000000000000e-01 0.000000000000000e+00
1.250000000000000e-01 3.750000000000000e-01 0.000000000000000e+00
1.250000000000000e-01 5.000000000000000e-01 0.000000000000000e+00
0.000000000000000e+00 5.000000000000000e-01 0.000000000000000e+00
1.250000000000000e-01 3.750000000000000e-01 0.000000000000000e+00
2.500000000000000e-01 3.750000000000000e-01 0.000000000000000e+00
2.500000000000000e-01 5.000000000000000e-01 0.000000000000000e+00
1.250000000000000e-01 5.000000000000000e-01 0.000000000000000e+00
2.500000000000000e-01 3.750000000000000e-01 0.000000000000000e+00
3.750000000000000e-01 3.750000000000000e-01 0.000000000000000e+00
3.750000000000000e-01 5.000000000000000e-01 0.000000000000000e+00
2.500000000000000e-01 5.000000000000000e-01 0.000000000000000e+00
3.750000000000000e-01 3.750000000000000e-01 0.000000000000000e+00
5.000000000000000e-01 3.750000000000000e-01 0.000000000000000e+00
5.000000000000000e-01 5.000000000000000e-01 0.000000000000000e+00
3.750000000000000e-01 5.000000000000000e-01 0.000000000000000e+00
5.000000000000000e-01 3.750000000000000e-01 0.000000000000000e+00
6.250000000000000e-01 3.750000000000000e-01 0.000000000000000e+00
6.250000000000000e-01 5.000000000000000e-01 0.000000000000000e+00
5.000000000000000e-01 5.000000000000000e-01 0.000000000000000e+00
0.000000000000000e+00 5.000000000000000e-01 0.000000000000000e+00
1.250000000000000e-01 5.000000000000000e-01 0.000000000000000e+00
1.250000000000000e-01 6.250000000000000e-01 0.000000000000000e+00
0.000000000000000e+00 6.250000000000000e-01 0.000000000000000e+00
1.250000000000000e-01 5.000000000000000e-01 0.000000000000000e+00
2.500000000000000e-01 5.000000000000000e-01 0.000000000000000e+00
2.500000000000000e-01 6.250000000000000e-01 0.000000000000000e+00
1.250000000000000e-01 6.250000000000000e-01 0.000000000000000e+00
2.500000000000000e-01 5.000000000000000e-01 0.000000000000000e+00
3.750000000000000e-01 5.000000000000000e-01 0.000000000000000e+00
3.750000000000000e-01 6.250000000000000e-01 0.000000000000000e+00
2.500000000000000e-01 6.250000000000000e-01 0.000000000000000e+00
3.750000000000000e-01 5.000000000000000e-01 0.000000000000000e+00
5.000000000000000e-01 5.000000000000000e-01 0.000000000000000e+00
5.000000000000000e-01 6.250000000000000e-01 0.000000000000000e+00
3.750000000000000e-01 6.250000000000000e-01 0.000000000000000e+00
5.000000000000000e-01 5.000000000000000e-01 0.000000000000000e+00
6.250000000000000e-01 5.000000000000000e-01 0.000000000000000e+00
6.250000000000000e-01 6.250000000000000e-01 0.000000000000000e+00
5.000000000000000e-01 6.250000000000000e-01 0.000000000000000e+00
0.000000000000000e+00 6.250000000000000e-01 0.000000000000000e+00
1.250000000000000e-01 6.250000000000000e-01 0.000000000000000e+00
1.250000000000000e-01 7.500000000000000e-01 0.000000000000000e+00
0.000000000000000e+00 7.500000000000000e-01 0.000000000000000e+00
1.250000000000000e-01 6.250000000000000e-01 0.000000000000000e+00
2.500000000000000e-01 6.250000000000000e-01 0.000000000000000e+00
2.500000000000000e-01 7.500000000000000e-01 0.000000000000000e+00
1.250000000000000e-01 7.500000000000000e-01 0.000000000000000e+00
2.500000000000000e-01 6.250000000000000e-01 0.000000000000000e+00
3.750000000000000e-01 6.250000000000000e-01 0.000000000000000e+00
3.750000000000000e-01 7.500000000000000e-01 0.000000000000000e+00
2.500000000000000e-01 7.500000000000000e-01 0.000000000000000e+00
3.750000000000000e-01 6.250000000000000e-01 0.000000000000000e+00
5.000000000000000e-01 6.250000000000000e-01 0.000000000000000e+00
5.000000000000000e-01 7.500000000000000e-01 0.000000000000000e+00
3.750000000000000e-01 7.500000000000000e-01 0.000000000000000e+00
5.000000000000000e-01 6.250000000000000e-01 0.000000000000000e+00
6.250000000000000e-01 6.250000000000000e-01 0.000000000000000e+00
6.250000000000000e-01 7.500000000000000e-01 0.000000000000000e+00
5.000000000000000e-01 7.500000000000000e-01 0.000000000000000e+00
0.000000000000000e+00 7.500000000000000e-01 0.000000000000000e+00
1.250000000000000e-01 7.500000000000000e-01 0.000000000000000e+00
1.250000000000000e-01 8.750000000000000e-01 0.000000000000000e+00
0.000000000000000e+00 8.750000000000000e-01 0.000000000000000e+00
1.250000000000000e-01 7.500000000000000e-01 0.000000000000000e+00
2.500000000000000e-01 7.500000000000000e-01 0.000000000000000e+00
2.500000000000000e-01 8.750000000000000e-01 0.000000000000000e+00
1.250000000000000e-01 8.750000000000000e-01 0.000000000000000e+00
2.500000000000000e-01 7.500000000000000e-01 0.000000000000000e+00
3.750000000000000e-01 7.500000000000000e-01 0.000000000000000e+00
3.750000000000000e-01 8.750000000000000e-01 0.000000000000000e+00
2.500000000000000e-01 8.750000000000000e-01 0.000000000000000e+00
3.750000000000000e-01 7.500000000000000e-01 0.000000000000000e+00
5.000000000000000e-01 7.500000000000000e-01 0.000000000000000e+00
5.000000000000000e-01 8.750000000000000e-01 0.000000000000000e+00
3.750000000000000e-01 8.750000000000000e-01 0.000000000000000e+00
5.000000000000000e-01 7.500000000000000e-01 0.000000000000000e+00
6.250000000000000e-01 7.500000000000000e-01 0.000000000000000e+00
6.250000000000000e-01 8.750000000000000e-01 0.000000000000000e+00
5.000000000000000e-01 8.750000000000000e-01 0.000000000000000e+00
0.000000000000000e+00 8.750000000000000e-01 0.000000000000000e+00
1.250000000000000e-01 8.750000000000000e-01 0.000000000000000e+00
1.250000000000000e-01 1.000000000000000e+00 0.000000000000000e+00
0.000000000000000e+00 1.000000000000000e+00 0.000000000000000e+00
1.250000000000000e-01 8.750000000000000e-01 0.000000000000000e+00
2.500000000000000e-01 8.750000000000000e-01 0.000000000000000e+00
2.500000000000000e-01 1.000000000000000e+00 0.000000000000000e+00
1.250000000000000e-01 1.000000000000000e+00 0.000000000000000e+00
2.500000000000000e-01 8.750000000000000e-01 0.000000000000000e+00
3.750000000000000e-01 8.750000000000000e-01 0.000000000000000e+00
3.750000000000000e-01 1.000000000000000e+00 0.000000000000000e+00
2.500000000000000e-01 1.000000000000000e+00 0.000000000000000e+00
3.750000000000000e-01 8.750000000000000e-01 0.000000000000000e+00
5.000000000000000e-01 8.750000000000000e-01 0.000000000000000e+00
5.000000000000000e-01 1.000000000000000e+00 0.000000000000000e+00
3.750000000000000e-01 1.000000000000000e+00 0.000000000000000e+00
5.000000000000000e-01 8.750000000000000e-01 0.000000000000000e+00
6.250000000000000e-01 8.750000000000000e-01 0.000000000000000e+00
6.250000000000000e-01 1.000000000000000e+00 0.000000000000000e+00
5.000000000000000e-01 1.000000000000000e+00 0.000000000000000e+00
        </DataArray>
      </Points>

      <Cells>
        <DataArray type="Int32" Name="connectivity" format="ascii">
0 1 2 3 4 5 6 7 8 9 10 11 12 13 14 15 16 17 18 19 20 21 22 23 24 25 26 27 28 29 30 31 32 33 34 35 36 37 38 39 40 41 42 43 44 45 46 47 48 49 50 51 52 53 54 55 56 57 58 59 60 61 62 63 64 65 66 67 68 69 70 71 72 73 74 75 76 77 78 79 80 81 82 83 84 85 86 87 88 89 90 91 92 93 94 95 96 97 98 99 100 101 102 103 104 105 106 107 108 109 110 111 112 113 114 115 116 117 118 119 120 121 122 123 124 125 126 127 128 129 130 131 132 133 134 135 136 137 138 139 140 141 142 143 144 145 146 147 148 149 150 151 152 153 154 155 156 157 158 159 
        </DataArray>
        <DataArray type="Int32" Name="offsets" format="ascii">
4 8 12 16 20 24 28 32 36 40 44 48 52 56 60 64 68 72 76 80 84 88 92 96 100 104 108 112 116 120 124 128 132 136 140 144 148 152 156 160 
        </DataArray>
        <DataArray type="UInt8" Name="types" format="ascii">
9 9 9 9 9 9 9 9 9 9 9 9 9 9 9 9 9 9 9 9 9 9 9 9 9 9 9 9 9 9 9 9 9 9 9 9 9 9 9 9 
        </DataArray>
      </Cells>

  <PointData>
        <DataArray type="Float64" Name="flux_domain_phi_1" NumberOfComponents="3" format="ascii">
1.079009164315424e-01 1.079009164315424e-01 0.000000000000000e+00
8.182506649232839e-02 2.976268993553988e-01 0.000000000000000e+00
2.314120606488100e-01 2.469351660177240e-01 0.000000000000000e+00
3.053884520398563e-01 8.958661917678590e-02 0.000000000000000e+00
8.182506649232839e-02 2.976268993553988e-01 0.000000000000000e+00
2.880610608805030e-02 4.640072884888843e-01 0.000000000000000e+00
8.116587285771479e-02 3.841879905150425e-01 0.000000000000000e+00
2.314120606488100e-01 2.469351660177240e-01 0.000000000000000e+00
2.880610608805030e-02 4.640072884888843e-01 0.000000000000000e+00
-2.598652678642134e-02 4.686898634134994e-01 0.000000000000000e+00
-7.376949816154640e-02 3.871152918196468e-01 0.000000000000000e+00
8.116587285771479e-02 3.841879905150425e-01 0.000000000000000e+00
-2.598652678642134e-02 4.686898634134994e-01 0.000000000000000e+00
-8.275656430382153e-02 3.061107231274347e-01 0.000000000000000e+00
-2.338600988776430e-01 2.522089025718265e-01 0.000000000000000e+00
-7.376949816154640e-02 3.871152918196468e-01 0.000000000000000e+00
-8.275656430382153e-02 3.061107231274347e-01 0.000000000000000e+00
-1.116770794118141e-01 1.116770794118141e-01 0.000000000000000e+00
-3.152851249745272e-01 9.193096615091392e-02 0.000000000000000e+00
-2.338600988776430e-01 2.522089025718265e-01 0.000000000000000e+00
3.053884520398563e-01 8.958661917678590e-02 0.000000000000000e+00
2.314120606488100e-01 2.469351660177240e-01 0.000000000000000e+00
3.937143154485255e-01 1.496909068115221e-01 0.000000000000000e+00
5.206720773946475e-01 5.442468425598544e-02 0.000000000000000e+00
2.314120606488100e-01 2.469351660177240e-01 0.000000000000000e+00
8.116587285771479e-02 3.841879905150425e-01 0.000000000000000e+00
1.366646324671636e-01 2.314347211068560e-01 0.000000000000000e+00
3.937143154485255e-01 1.496909068115221e-01 0.000000000000000e+00
8.116587285771479e-02 3.841879905150425e-01 0.000000000000000e+00
-7.376949816154640e-02 3.871152918196468e-01 0.000000000000000e+00
-1.267841271505305e-01 2.314961577123807e-01 0.000000000000000e+00
1.366646324671636e-01 2.314347211068560e-01 0.000000000000000e+00
-7.376949816154640e-02 3.871152918196468e-01 0.000000000000000e+00
-2.338600988776430e-01 2.522089025718265e-01 0.000000000000000e+00
-3.970006711644875e-01 1.497750909417225e-01 0.000000000000000e+00
-1.267841271505305e-01 2.314961577123807e-01 0.000000000000000e+00
-2.338600988776430e-01 2.522089025718265e-01 0.000000000000000e+00
-3.152851249745272e-01 9.193096615091392e-02 0.000000000000000e+00
-5.338603765959902e-01 5.445943258054477e-02 0.000000000000000e+00
-3.970006711644875e-01 1.497750909417225e-01 0.000000000000000e+00
5.206720773946475e-01 5.442468425598544e-02 0.000000000000000e+00
3.937143154485255e-01 1.496909068115221e-01 0.000000000000000e+00
4.788562973377382e-01 6.068068374626363e-02 0.000000000000000e+00
6.348560722004322e-01 2.218226395986290e-02 0.000000000000000e+00
3.937143154485255e-01 1.496909068115221e-01 0.000000000000000e+00
1.366646324671636e-01 2.314347211068560e-01 0.000000000000000e+00
1.641914292474131e-01 9.234324836351572e-02 0.000000000000000e+00
4.788562973377382e-01 6.068068374626363e-02 0.000000000000000e+00
1.366646324671636e-01 2.314347211068560e-01 0.000000000000000e+00
-1.267841271505305e-01 2.314961577123807e-01 0.000000000000000e+00
-1.558975131469718e-01 9.069800160320197e-02 0.000000000000000e+00
1.641914292474131e-01 9.234324836351572e-02 0.000000000000000e+00
-1.267841271505305e-01 2.314961577123807e-01 0.000000000000000e+00
-3.970006711644875e-01 1.497750909417225e-01 0.000000000000000e+00
-4.816194653476292e-01 5.771498694527674e-02 0.000000000000000e+00
-1.558975131469718e-01 9.069800160320197e-02 0.000000000000000e+00
-3.970006711644875e-01 1.497750909417225e-01 0.000000000000000e+00
-5.338603765959902e-01 5.445943258054477e-02 0.000000000000000e+00
-6.459175683815326e-01 2.086374693392702e-02 0.000000000000000e+00
-4.816194653476292e-01 5.771498694527674e-02 0.000000000000000e+00
6.348560722004322e-01 2.218226395986290e-02 0.000000000000000e+00
4.788562973377382e-01 6.068068374626363e-02 0.000000000000000e+00
4.939739368148796e-01 -2.018409097946320e-02 0.000000000000000e+00
6.566570421200280e-01 -7.168775370050469e-03 0.000000000000000e+00
4.788562973377382e-01 6.068068374626363e-02 0.000000000000000e+00
1.641914292474131e-01 9.234324836351572e-02 0.000000000000000e+00
1.671582265245894e-01 -3.329067031269822e-02 0.000000000000000e+00
4.939739368148796e-01 -2.018409097946320e-02 0.000000000000000e+00
1.641914292474131e-01 9.234324836351572e-02 0.000000000000000e+00
-1.558975131469718e-01 9.069800160320197e-02 0.000000000000000e+00
-1.626184456441203e-01 -3.565893420560767e-02 0.000000000000000e+00
1.671582265245894e-01 -3.329067031269822e-02 0.000000000000000e+00
-1.558975131469718e-01 9.069800160320197e-02 0.000000000000000e+00
-4.816194653476292e-01 5.771498694527674e-02 0.000000000000000e+00
-4.954867475846034e-01 -2.444775081165754e-02 0.000000000000000e+00
-1.626184456441203e-01 -3.565893420560767e-02 0.000000000000000e+00
-4.816194653476292e-01 5.771498694527674e-02 0.000000000000000e+00
-6.459175683815326e-01 2.086374693392702e-02 0.000000000000000e+00
-6.627109823415188e-01 -9.063814570718517e-03 0.000000000000000e+00
-4.954867475846034e-01 -2.444775081165754e-02 0.000000000000000e+00
6.566570421200280e-01 -7.168775370050469e-03 0.000000000000000e+00
4.939739368148796e-01 -2.018409097946320e-02 0.000000000000000e+00
4.461121819703410e-01 -9.298397238072366e-02 0.000000000000000e+00
5.947083036079742e-01 -3.365493107212077e-02 0.000000000000000e+00
4.939739368148796e-01 -2.018409097946320e-02 0.000000000000000e+00
1.671582265245894e-01 -3.329067031269822e-02 0.000000000000000e+00
1.488651006904214e-01 -1.456311257317608e-01 0.000000000000000e+00
4.461121819703410e-01 -9.298397238072366e-02 0.000000000000000e+00
1.671582265245894e-01 -3.329067031269822e-02 0.000000000000000e+00
-1.626184456441203e-01 -3.565893420560767e-02 0.000000000000000e+00
-1.485423703853916e-01 -1.477962041668675e-01 0.000000000000000e+00
1.488651006904214e-01 -1.456311257317608e-01 0.000000000000000e+00
-1.626184456441203e-01 -3.565893420560767e-02 0.000000000000000e+00
-4.954867475846034e-01 -2.444775081165754e-02 0.000000000000000e+00
-4.462192524944087e-01 -9.688008697513399e-02 0.000000000000000e+00
-1.485423703853916e-01 -1.477962041668675e-01 0.000000000000000e+00
-4.954867475846034e-01 -2.444775081165754e-02 0.000000000000000e+00
-6.627109823415188e-01 -9.063814570718517e-03 0.000000000000000e+00
-5.951396231698991e-01 -3.538643386268895e-02 0.000000000000000e+00
-4.462192524944087e-01 -9.688008697513399e-02 0.000000000000000e+00
5.947083036079742e-01 -3.365493107212077e-02 0.000000000000000e+00
4.461121819703410e-01 -9.298397238072366e-02 0.000000000000000e+00
3.422431938822573e-01 -1.577835045157391e-01 0.000000000000000e+00
4.575706710772897e-01 -5.729787138421356e-02 0.000000000000000e+00
4.461121819703410e-01 -9.298397238072366e-02 0.000000000000000e+00
1.488651006904214e-01 -1.456311257317608e-01 0.000000000000000e+00
1.125513033112063e-01 -2.448010927468676e-01 0.000000000000000e+00
3.422431938822573e-01 -1.577835045157391e-01 0.000000000000000e+00
1.488651006904214e-01 -1.456311257317608e-01 0.000000000000000e+00
-1.485423703853916e-01 -1.477962041668675e-01 0.000000000000000e+00
-1.152645939971714e-01 -2.458643182842254e-01 0.000000000000000e+00
1.125513033112063e-01 -2.448010927468676e-01 0.000000000000000e+00
-1.485423703853916e-01 -1.477962041668675e-01 0.000000000000000e+00
-4.462192524944087e-01 -9.688008697513399e-02 0.000000000000000e+00
-3.413366388498512e-01 -1.596895751652505e-01 0.000000000000000e+00
-1.152645939971714e-01 -2.458643182842254e-01 0.000000000000000e+00
-4.462192524944087e-01 -9.688008697513399e-02 0.000000000000000e+00
-5.951396231698991e-01 -3.538643386268895e-02 0.000000000000000e+00
-4.539571997701717e-01 -5.814423254988210e-02 0.000000000000000e+00
-3.413366388498512e-01 -1.596895751652505e-01 0.000000000000000e+00
4.575706710772897e-01 -5.729787138421356e-02 0.000000000000000e+00
3.422431938822573e-01 -1.577835045157391e-01 0.000000000000000e+00
1.892830514903693e-01 -2.146318773832639e-01 0.000000000000000e+00
2.537479349344864e-01 -7.811395206452799e-02 0.000000000000000e+00
3.422431938822573e-01 -1.577835045157391e-01 0.000000000000000e+00
1.125513033112063e-01 -2.448010927468676e-01 0.000000000000000e+00
6.140638141776395e-02 -3.309001131467973e-01 0.000000000000000e+00
1.892830514903693e-01 -2.146318773832639e-01 0.000000000000000e+00
1.125513033112063e-01 -2.448010927468676e-01 0.000000000000000e+00
-1.152645939971714e-01 -2.458643182842254e-01 0.000000000000000e+00
-6.439906154759671e-02 -3.300170892559812e-01 0.000000000000000e+00
6.140638141776395e-02 -3.309001131467973e-01 0.000000000000000e+00
-1.152645939971714e-01 -2.458643182842254e-01 0.000000000000000e+00
-3.413366388498512e-01 -1.596895751652505e-01 0.000000000000000e+00
-1.882803488850072e-01 -2.130438025419692e-01 0.000000000000000e+00
-6.439906154759671e-02 -3.300170892559812e-01 0.000000000000000e+00
-3.413366388498512e-01 -1.596895751652505e-01 0.000000000000000e+00
-4.539571997701717e-01 -5.814423254988210e-02 0.000000000000000e+00
-2.497679798855452e-01 -7.740827922215197e-02 0.000000000000000e+00
-1.882803488850072e-01 -2.130438025419692e-01 0.000000000000000e+00
2.537479349344864e-01 -7.811395206452799e-02 0.000000000000000e+00
1.892830514903693e-01 -2.146318773832639e-01 0.000000000000000e+00
6.543953911807984e-02 -2.410735219880383e-01 0.000000000000000e+00
8.781699143498511e-02 -8.781699143498511e-02 0.000000000000000e+00
1.892830514903693e-01 -2.146318773832639e-01 0.000000000000000e+00
6.140638141776395e-02 -3.309001131467973e-01 0.000000000000000e+00
2.111805667617759e-02 -3.706932045834646e-01 0.000000000000000e+00
6.543953911807984e-02 -2.410735219880383e-01 0.000000000000000e+00
6.140638141776395e-02 -3.309001131467973e-01 0.000000000000000e+00
-6.439906154759671e-02 -3.300170892559812e-01 0.000000000000000e+00
-2.234961395222867e-02 -3.686356738585942e-01 0.000000000000000e+00
2.111805667617759e-02 -3.706932045834646e-01 0.000000000000000e+00
-6.439906154759671e-02 -3.300170892559812e-01 0.000000000000000e+00
-1.882803488850072e-01 -2.130438025419692e-01 0.000000000000000e+00
-6.502655239367017e-02 -2.373862530570633e-01 0.000000000000000e+00
-2.234961395222867e-02 -3.686356738585942e-01 0.000000000000000e+00
-1.882803488850072e-01 -2.130438025419692e-01 0.000000000000000e+00
-2.497679798855452e-01 -7.740827922215197e-02 0.000000000000000e+00
-8.617985033170236e-02 -8.617985033170236e-02 0.000000000000000e+00
-6.502655239367017e-02 -2.373862530570633e-01 0.000000000000000e+00
        </DataArray>
        <DataArray type="Float64" Name="phi_1" format="ascii">
0.000000000000000e+00
0.000000000000000e+00
-4.046284366182659e-02
0.000000000000000e+00
0.000000000000000e+00
0.000000000000000e+00
-6.136879986924355e-02
-4.046284366182659e-02
0.000000000000000e+00
0.000000000000000e+00
-6.206742322786336e-02
-6.136879986924355e-02
0.000000000000000e+00
0.000000000000000e+00
-4.187890477942842e-02
-6.206742322786336e-02
0.000000000000000e+00
0.000000000000000e+00
0.000000000000000e+00
-4.187890477942842e-02
0.000000000000000e+00
-4.046284366182659e-02
-6.718996438258641e-02
0.000000000000000e+00
-4.046284366182659e-02
-6.136879986924355e-02
-1.016428914962417e-01
-6.718996438258641e-02
-6.136879986924355e-02
-6.206742322786336e-02
-1.025204554050119e-01
-1.016428914962417e-01
-6.206742322786336e-02
-4.187890477942842e-02
-6.894822461318237e-02
-1.025204554050119e-01
-4.187890477942842e-02
0.000000000000000e+00
0.000000000000000e+00
-6.894822461318237e-02
0.000000000000000e+00
-6.718996438258641e-02
-8.128135685381384e-02
0.000000000000000e+00
-6.718996438258641e-02
-1.016428914962417e-01
-1.226311073185786e-01
-8.128135685381384e-02
-1.016428914962417e-01
-1.025204554050119e-01
-1.233517618988209e-01
-1.226311073185786e-01
-1.025204554050119e-01
-6.894822461318237e-02
-8.272347921483517e-02
-1.233517618988209e-01
-6.894822461318237e-02
0.000000000000000e+00
0.000000000000000e+00
-8.272347921483517e-02
0.000000000000000e+00
-8.128135685381384e-02
-8.382666235248283e-02
0.000000000000000e+00
-8.128135685381384e-02
-1.226311073185786e-01
-1.261171252360518e-01
-8.382666235248283e-02
-1.226311073185786e-01
-1.233517618988209e-01
-1.265016950211491e-01
-1.261171252360518e-01
-1.233517618988209e-01
-8.272347921483517e-02
-8.459603481362693e-02
-1.265016950211491e-01
-8.272347921483517e-02
0.000000000000000e+00
0.000000000000000e+00
-8.459603481362693e-02
0.000000000000000e+00
-8.382666235248283e-02
-7.590477532627622e-02
0.000000000000000e+00
-8.382666235248283e-02
-1.261171252360518e-01
-1.138612969595342e-01
-7.590477532627622e-02
-1.261171252360518e-01
-1.265016950211491e-01
-1.138715793934887e-01
-1.138612969595342e-01
-1.265016950211491e-01
-8.459603481362693e-02
-7.592561828679657e-02
-1.138715793934887e-01
-8.459603481362693e-02
0.000000000000000e+00
0.000000000000000e+00
-7.592561828679657e-02
0.000000000000000e+00
-7.590477532627622e-02
-5.858546404839338e-02
0.000000000000000e+00
-7.590477532627622e-02
-1.138612969595342e-01
-8.760595988132364e-02
-5.858546404839338e-02
-1.138612969595342e-01
-1.138715793934887e-01
-8.734086614650950e-02
-8.760595988132364e-02
-1.138715793934887e-01
-7.592561828679657e-02
-5.805620941661140e-02
-8.734086614650950e-02
-7.592561828679657e-02
0.000000000000000e+00
0.000000000000000e+00
-5.805620941661140e-02
0.000000000000000e+00
-5.858546404839338e-02
-3.293137178811795e-02
0.000000000000000e+00
-5.858546404839338e-02
-8.760595988132364e-02
-4.907965433855769e-02
-3.293137178811795e-02
-8.760595988132364e-02
-8.734086614650950e-02
-4.876991429525044e-02
-4.907965433855769e-02
-8.734086614650950e-02
-5.805620941661140e-02
-3.231744387438694e-02
-4.876991429525044e-02
-5.805620941661140e-02
0.000000000000000e+00
0.000000000000000e+00
-3.231744387438694e-02
0.000000000000000e+00
-3.293137178811795e-02
0.000000000000000e+00
0.000000000000000e+00
-3.293137178811795e-02
-4.907965433855769e-02
0.000000000000000e+00
0.000000000000000e+00
-4.907965433855769e-02
-4.876991429525044e-02
0.000000000000000e+00
0.000000000000000e+00
-4.876991429525044e-02
-3.231744387438694e-02
0.000000000000000e+00
0.000000000000000e+00
-3.231744387438694e-02
0.000000000000000e+00
0.000000000000000e+00
0.000000000000000e+00
        </DataArray>
  </PointData>
  <CellData>
        <DataArray type="Float64" Name="Owner" format="ascii">
0.000000000000000e+00
0.000000000000000e+00
0.000000000000000e+00
0.000000000000000e+00
0.000000000000000e+00
0.000000000000000e+00
0.000000000000000e+00
0.000000000000000e+00
0.000000000000000e+00
0.000000000000000e+00
0.000000000000000e+00
0.000000000000000e+00
0.000000000000000e+00
0.000000000000000e+00
0.000000000000000e+00
0.000000000000000e+00
0.000000000000000e+00
0.000000000000000e+00
0.000000000000000e+00
0.000000000000000e+00
0.000000000000000e+00
0.000000000000000e+00
0.000000000000000e+00
0.000000000000000e+00
0.000000000000000e+00
0.000000000000000e+00
0.000000000000000e+00
0.000000000000000e+00
0.000000000000000e+00
0.000000000000000e+00
0.000000000000000e+00
0.000000000000000e+00
0.000000000000000e+00
0.000000000000000e+00
0.000000000000000e+00
0.000000000000000e+00
0.000000000000000e+00
0.000000000000000e+00
0.000000000000000e+00
0.000000000000000e+00
        </DataArray>
      </CellData>

    </Piece>
  </UnstructuredGrid>
</VTKFile>
