<?xml version="1.0" ?> 
<!-- 
# vtk DataFile Version 3.0
-->
<VTKFile type="UnstructuredGrid" version="0.1" compressor="vtkZLibDataCompressor" byte_order="LittleEndian">
  <UnstructuredGrid>
    <FieldData>
      <DataArray type="Float64" Name="TIME" NumberOfTuples="1" format="ascii">
1.000000000000000e+00 
      </DataArray>
    </FieldData>

    <Piece NumberOfPoints="224" NumberOfCells="56" >
      <Points>
        <DataArray type="Float64" NumberOfComponents="3" format="ascii">
0.000000000000000e+00 6.250000000000000e-01 0.000000000000000e+00
1.250000000000000e-01 6.250000000000000e-01 0.000000000000000e+00
1.250000000000000e-01 7.500000000000000e-01 0.000000000000000e+00
0.000000000000000e+00 7.500000000000000e-01 0.000000000000000e+00
1.250000000000000e-01 6.250000000000000e-01 0.000000000000000e+00
2.500000000000000e-01 6.250000000000000e-01 0.000000000000000e+00
2.500000000000000e-01 7.500000000000000e-01 0.000000000000000e+00
1.250000000000000e-01 7.500000000000000e-01 0.000000000000000e+00
2.500000000000000e-01 6.250000000000000e-01 0.000000000000000e+00
3.750000000000000e-01 6.250000000000000e-01 0.000000000000000e+00
3.750000000000000e-01 7.500000000000000e-01 0.000000000000000e+00
2.500000000000000e-01 7.500000000000000e-01 0.000000000000000e+00
3.750000000000000e-01 6.250000000000000e-01 0.000000000000000e+00
5.000000000000000e-01 6.250000000000000e-01 0.000000000000000e+00
5.000000000000000e-01 7.500000000000000e-01 0.000000000000000e+00
3.750000000000000e-01 7.500000000000000e-01 0.000000000000000e+00
5.000000000000000e-01 6.250000000000000e-01 0.000000000000000e+00
6.250000000000000e-01 6.250000000000000e-01 0.000000000000000e+00
6.250000000000000e-01 7.500000000000000e-01 0.000000000000000e+00
5.000000000000000e-01 7.500000000000000e-01 0.000000000000000e+00
6.250000000000000e-01 6.250000000000000e-01 0.000000000000000e+00
7.500000000000000e-01 6.250000000000000e-01 0.000000000000000e+00
7.500000000000000e-01 7.500000000000000e-01 0.000000000000000e+00
6.250000000000000e-01 7.500000000000000e-01 0.000000000000000e+00
7.500000000000000e-01 6.250000000000000e-01 0.000000000000000e+00
8.750000000000000e-01 6.250000000000000e-01 0.000000000000000e+00
8.750000000000000e-01 7.500000000000000e-01 0.000000000000000e+00
7.500000000000000e-01 7.500000000000000e-01 0.000000000000000e+00
8.750000000000000e-01 6.250000000000000e-01 0.000000000000000e+00
1.000000000000000e+00 6.250000000000000e-01 0.000000000000000e+00
1.000000000000000e+00 7.500000000000000e-01 0.000000000000000e+00
8.750000000000000e-01 7.500000000000000e-01 0.000000000000000e+00
0.000000000000000e+00 7.500000000000000e-01 0.000000000000000e+00
1.250000000000000e-01 7.500000000000000e-01 0.000000000000000e+00
1.250000000000000e-01 8.750000000000000e-01 0.000000000000000e+00
0.000000000000000e+00 8.750000000000000e-01 0.000000000000000e+00
1.250000000000000e-01 7.500000000000000e-01 0.000000000000000e+00
2.500000000000000e-01 7.500000000000000e-01 0.000000000000000e+00
2.500000000000000e-01 8.750000000000000e-01 0.000000000000000e+00
1.250000000000000e-01 8.750000000000000e-01 0.000000000000000e+00
2.500000000000000e-01 7.500000000000000e-01 0.000000000000000e+00
3.750000000000000e-01 7.500000000000000e-01 0.000000000000000e+00
3.750000000000000e-01 8.750000000000000e-01 0.000000000000000e+00
2.500000000000000e-01 8.750000000000000e-01 0.000000000000000e+00
3.750000000000000e-01 7.500000000000000e-01 0.000000000000000e+00
5.000000000000000e-01 7.500000000000000e-01 0.000000000000000e+00
5.000000000000000e-01 8.750000000000000e-01 0.000000000000000e+00
3.750000000000000e-01 8.750000000000000e-01 0.000000000000000e+00
5.000000000000000e-01 7.500000000000000e-01 0.000000000000000e+00
6.250000000000000e-01 7.500000000000000e-01 0.000000000000000e+00
6.250000000000000e-01 8.750000000000000e-01 0.000000000000000e+00
5.000000000000000e-01 8.750000000000000e-01 0.000000000000000e+00
6.250000000000000e-01 7.500000000000000e-01 0.000000000000000e+00
7.500000000000000e-01 7.500000000000000e-01 0.000000000000000e+00
7.500000000000000e-01 8.750000000000000e-01 0.000000000000000e+00
6.250000000000000e-01 8.750000000000000e-01 0.000000000000000e+00
7.500000000000000e-01 7.500000000000000e-01 0.000000000000000e+00
8.750000000000000e-01 7.500000000000000e-01 0.000000000000000e+00
8.750000000000000e-01 8.750000000000000e-01 0.000000000000000e+00
7.500000000000000e-01 8.750000000000000e-01 0.000000000000000e+00
8.750000000000000e-01 7.500000000000000e-01 0.000000000000000e+00
1.000000000000000e+00 7.500000000000000e-01 0.000000000000000e+00
1.000000000000000e+00 8.750000000000000e-01 0.000000000000000e+00
8.750000000000000e-01 8.750000000000000e-01 0.000000000000000e+00
0.000000000000000e+00 8.750000000000000e-01 0.000000000000000e+00
1.250000000000000e-01 8.750000000000000e-01 0.000000000000000e+00
1.250000000000000e-01 1.000000000000000e+00 0.000000000000000e+00
0.000000000000000e+00 1.000000000000000e+00 0.000000000000000e+00
1.250000000000000e-01 8.750000000000000e-01 0.000000000000000e+00
2.500000000000000e-01 8.750000000000000e-01 0.000000000000000e+00
2.500000000000000e-01 1.000000000000000e+00 0.000000000000000e+00
1.250000000000000e-01 1.000000000000000e+00 0.000000000000000e+00
2.500000000000000e-01 8.750000000000000e-01 0.000000000000000e+00
3.750000000000000e-01 8.750000000000000e-01 0.000000000000000e+00
3.750000000000000e-01 1.000000000000000e+00 0.000000000000000e+00
2.500000000000000e-01 1.000000000000000e+00 0.000000000000000e+00
3.750000000000000e-01 8.750000000000000e-01 0.000000000000000e+00
5.000000000000000e-01 8.750000000000000e-01 0.000000000000000e+00
5.000000000000000e-01 1.000000000000000e+00 0.000000000000000e+00
3.750000000000000e-01 1.000000000000000e+00 0.000000000000000e+00
5.000000000000000e-01 8.750000000000000e-01 0.000000000000000e+00
6.250000000000000e-01 8.750000000000000e-01 0.000000000000000e+00
6.250000000000000e-01 1.000000000000000e+00 0.000000000000000e+00
5.000000000000000e-01 1.000000000000000e+00 0.000000000000000e+00
6.250000000000000e-01 8.750000000000000e-01 0.000000000000000e+00
7.500000000000000e-01 8.750000000000000e-01 0.000000000000000e+00
7.500000000000000e-01 1.000000000000000e+00 0.000000000000000e+00
6.250000000000000e-01 1.000000000000000e+00 0.000000000000000e+00
7.500000000000000e-01 8.750000000000000e-01 0.000000000000000e+00
8.750000000000000e-01 8.750000000000000e-01 0.000000000000000e+00
8.750000000000000e-01 1.000000000000000e+00 0.000000000000000e+00
7.500000000000000e-01 1.000000000000000e+00 0.000000000000000e+00
8.750000000000000e-01 8.750000000000000e-01 0.000000000000000e+00
1.000000000000000e+00 8.750000000000000e-01 0.000000000000000e+00
1.000000000000000e+00 1.000000000000000e+00 0.000000000000000e+00
8.750000000000000e-01 1.000000000000000e+00 0.000000000000000e+00
0.000000000000000e+00 1.000000000000000e+00 0.000000000000000e+00
1.250000000000000e-01 1.000000000000000e+00 0.000000000000000e+00
1.250000000000000e-01 1.125000000000000e+00 0.000000000000000e+00
0.000000000000000e+00 1.125000000000000e+00 0.000000000000000e+00
1.250000000000000e-01 1.000000000000000e+00 0.000000000000000e+00
2.500000000000000e-01 1.000000000000000e+00 0.000000000000000e+00
2.500000000000000e-01 1.125000000000000e+00 0.000000000000000e+00
1.250000000000000e-01 1.125000000000000e+00 0.000000000000000e+00
2.500000000000000e-01 1.000000000000000e+00 0.000000000000000e+00
3.750000000000000e-01 1.000000000000000e+00 0.000000000000000e+00
3.750000000000000e-01 1.125000000000000e+00 0.000000000000000e+00
2.500000000000000e-01 1.125000000000000e+00 0.000000000000000e+00
3.750000000000000e-01 1.000000000000000e+00 0.000000000000000e+00
5.000000000000000e-01 1.000000000000000e+00 0.000000000000000e+00
5.000000000000000e-01 1.125000000000000e+00 0.000000000000000e+00
3.750000000000000e-01 1.125000000000000e+00 0.000000000000000e+00
5.000000000000000e-01 1.000000000000000e+00 0.000000000000000e+00
6.250000000000000e-01 1.000000000000000e+00 0.000000000000000e+00
6.250000000000000e-01 1.125000000000000e+00 0.000000000000000e+00
5.000000000000000e-01 1.125000000000000e+00 0.000000000000000e+00
6.250000000000000e-01 1.000000000000000e+00 0.000000000000000e+00
7.500000000000000e-01 1.000000000000000e+00 0.000000000000000e+00
7.500000000000000e-01 1.125000000000000e+00 0.000000000000000e+00
6.250000000000000e-01 1.125000000000000e+00 0.000000000000000e+00
7.500000000000000e-01 1.000000000000000e+00 0.000000000000000e+00
8.750000000000000e-01 1.000000000000000e+00 0.000000000000000e+00
8.750000000000000e-01 1.125000000000000e+00 0.000000000000000e+00
7.500000000000000e-01 1.125000000000000e+00 0.000000000000000e+00
8.750000000000000e-01 1.000000000000000e+00 0.000000000000000e+00
1.000000000000000e+00 1.000000000000000e+00 0.000000000000000e+00
1.000000000000000e+00 1.125000000000000e+00 0.000000000000000e+00
8.750000000000000e-01 1.125000000000000e+00 0.000000000000000e+00
0.000000000000000e+00 1.125000000000000e+00 0.000000000000000e+00
1.250000000000000e-01 1.125000000000000e+00 0.000000000000000e+00
1.250000000000000e-01 1.250000000000000e+00 0.000000000000000e+00
0.000000000000000e+00 1.250000000000000e+00 0.000000000000000e+00
1.250000000000000e-01 1.125000000000000e+00 0.000000000000000e+00
2.500000000000000e-01 1.125000000000000e+00 0.000000000000000e+00
2.500000000000000e-01 1.250000000000000e+00 0.000000000000000e+00
1.250000000000000e-01 1.250000000000000e+00 0.000000000000000e+00
2.500000000000000e-01 1.125000000000000e+00 0.000000000000000e+00
3.750000000000000e-01 1.125000000000000e+00 0.000000000000000e+00
3.750000000000000e-01 1.250000000000000e+00 0.000000000000000e+00
2.500000000000000e-01 1.250000000000000e+00 0.000000000000000e+00
3.750000000000000e-01 1.125000000000000e+00 0.000000000000000e+00
5.000000000000000e-01 1.125000000000000e+00 0.000000000000000e+00
5.000000000000000e-01 1.250000000000000e+00 0.000000000000000e+00
3.750000000000000e-01 1.250000000000000e+00 0.000000000000000e+00
5.000000000000000e-01 1.125000000000000e+00 0.000000000000000e+00
6.250000000000000e-01 1.125000000000000e+00 0.000000000000000e+00
6.250000000000000e-01 1.250000000000000e+00 0.000000000000000e+00
5.000000000000000e-01 1.250000000000000e+00 0.000000000000000e+00
6.250000000000000e-01 1.125000000000000e+00 0.000000000000000e+00
7.500000000000000e-01 1.125000000000000e+00 0.000000000000000e+00
7.500000000000000e-01 1.250000000000000e+00 0.000000000000000e+00
6.250000000000000e-01 1.250000000000000e+00 0.000000000000000e+00
7.500000000000000e-01 1.125000000000000e+00 0.000000000000000e+00
8.750000000000000e-01 1.125000000000000e+00 0.000000000000000e+00
8.750000000000000e-01 1.250000000000000e+00 0.000000000000000e+00
7.500000000000000e-01 1.250000000000000e+00 0.000000000000000e+00
8.750000000000000e-01 1.125000000000000e+00 0.000000000000000e+00
1.000000000000000e+00 1.125000000000000e+00 0.000000000000000e+00
1.000000000000000e+00 1.250000000000000e+00 0.000000000000000e+00
8.750000000000000e-01 1.250000000000000e+00 0.000000000000000e+00
0.000000000000000e+00 1.250000000000000e+00 0.000000000000000e+00
1.250000000000000e-01 1.250000000000000e+00 0.000000000000000e+00
1.250000000000000e-01 1.375000000000000e+00 0.000000000000000e+00
0.000000000000000e+00 1.375000000000000e+00 0.000000000000000e+00
1.250000000000000e-01 1.250000000000000e+00 0.000000000000000e+00
2.500000000000000e-01 1.250000000000000e+00 0.000000000000000e+00
2.500000000000000e-01 1.375000000000000e+00 0.000000000000000e+00
1.250000000000000e-01 1.375000000000000e+00 0.000000000000000e+00
2.500000000000000e-01 1.250000000000000e+00 0.000000000000000e+00
3.750000000000000e-01 1.250000000000000e+00 0.000000000000000e+00
3.750000000000000e-01 1.375000000000000e+00 0.000000000000000e+00
2.500000000000000e-01 1.375000000000000e+00 0.000000000000000e+00
3.750000000000000e-01 1.250000000000000e+00 0.000000000000000e+00
5.000000000000000e-01 1.250000000000000e+00 0.000000000000000e+00
5.000000000000000e-01 1.375000000000000e+00 0.000000000000000e+00
3.750000000000000e-01 1.375000000000000e+00 0.000000000000000e+00
5.000000000000000e-01 1.250000000000000e+00 0.000000000000000e+00
6.250000000000000e-01 1.250000000000000e+00 0.000000000000000e+00
6.250000000000000e-01 1.375000000000000e+00 0.000000000000000e+00
5.000000000000000e-01 1.375000000000000e+00 0.000000000000000e+00
6.250000000000000e-01 1.250000000000000e+00 0.000000000000000e+00
7.500000000000000e-01 1.250000000000000e+00 0.000000000000000e+00
7.500000000000000e-01 1.375000000000000e+00 0.000000000000000e+00
6.250000000000000e-01 1.375000000000000e+00 0.000000000000000e+00
7.500000000000000e-01 1.250000000000000e+00 0.000000000000000e+00
8.750000000000000e-01 1.250000000000000e+00 0.000000000000000e+00
8.750000000000000e-01 1.375000000000000e+00 0.000000000000000e+00
7.500000000000000e-01 1.375000000000000e+00 0.000000000000000e+00
8.750000000000000e-01 1.250000000000000e+00 0.000000000000000e+00
1.000000000000000e+00 1.250000000000000e+00 0.000000000000000e+00
1.000000000000000e+00 1.375000000000000e+00 0.000000000000000e+00
8.750000000000000e-01 1.375000000000000e+00 0.000000000000000e+00
0.000000000000000e+00 1.375000000000000e+00 0.000000000000000e+00
1.250000000000000e-01 1.375000000000000e+00 0.000000000000000e+00
1.250000000000000e-01 1.500000000000000e+00 0.000000000000000e+00
0.000000000000000e+00 1.500000000000000e+00 0.000000000000000e+00
1.250000000000000e-01 1.375000000000000e+00 0.000000000000000e+00
2.500000000000000e-01 1.375000000000000e+00 0.000000000000000e+00
2.500000000000000e-01 1.500000000000000e+00 0.000000000000000e+00
1.250000000000000e-01 1.500000000000000e+00 0.000000000000000e+00
2.500000000000000e-01 1.375000000000000e+00 0.000000000000000e+00
3.750000000000000e-01 1.375000000000000e+00 0.000000000000000e+00
3.750000000000000e-01 1.500000000000000e+00 0.000000000000000e+00
2.500000000000000e-01 1.500000000000000e+00 0.000000000000000e+00
3.750000000000000e-01 1.375000000000000e+00 0.000000000000000e+00
5.000000000000000e-01 1.375000000000000e+00 0.000000000000000e+00
5.000000000000000e-01 1.500000000000000e+00 0.000000000000000e+00
3.750000000000000e-01 1.500000000000000e+00 0.000000000000000e+00
5.000000000000000e-01 1.375000000000000e+00 0.000000000000000e+00
6.250000000000000e-01 1.375000000000000e+00 0.000000000000000e+00
6.250000000000000e-01 1.500000000000000e+00 0.000000000000000e+00
5.000000000000000e-01 1.500000000000000e+00 0.000000000000000e+00
6.250000000000000e-01 1.375000000000000e+00 0.000000000000000e+00
7.500000000000000e-01 1.375000000000000e+00 0.000000000000000e+00
7.500000000000000e-01 1.500000000000000e+00 0.000000000000000e+00
6.250000000000000e-01 1.500000000000000e+00 0.000000000000000e+00
7.500000000000000e-01 1.375000000000000e+00 0.000000000000000e+00
8.750000000000000e-01 1.375000000000000e+00 0.000000000000000e+00
8.750000000000000e-01 1.500000000000000e+00 0.000000000000000e+00
7.500000000000000e-01 1.500000000000000e+00 0.000000000000000e+00
8.750000000000000e-01 1.375000000000000e+00 0.000000000000000e+00
1.000000000000000e+00 1.375000000000000e+00 0.000000000000000e+00
1.000000000000000e+00 1.500000000000000e+00 0.000000000000000e+00
8.750000000000000e-01 1.500000000000000e+00 0.000000000000000e+00
        </DataArray>
      </Points>

      <Cells>
        <DataArray type="Int32" Name="connectivity" format="ascii">
0 1 2 3 4 5 6 7 8 9 10 11 12 13 14 15 16 17 18 19 20 21 22 23 24 25 26 27 28 29 30 31 32 33 34 35 36 37 38 39 40 41 42 43 44 45 46 47 48 49 50 51 52 53 54 55 56 57 58 59 60 61 62 63 64 65 66 67 68 69 70 71 72 73 74 75 76 77 78 79 80 81 82 83 84 85 86 87 88 89 90 91 92 93 94 95 96 97 98 99 100 101 102 103 104 105 106 107 108 109 110 111 112 113 114 115 116 117 118 119 120 121 122 123 124 125 126 127 128 129 130 131 132 133 134 135 136 137 138 139 140 141 142 143 144 145 146 147 148 149 150 151 152 153 154 155 156 157 158 159 160 161 162 163 164 165 166 167 168 169 170 171 172 173 174 175 176 177 178 179 180 181 182 183 184 185 186 187 188 189 190 191 192 193 194 195 196 197 198 199 200 201 202 203 204 205 206 207 208 209 210 211 212 213 214 215 216 217 218 219 220 221 222 223 
        </DataArray>
        <DataArray type="Int32" Name="offsets" format="ascii">
4 8 12 16 20 24 28 32 36 40 44 48 52 56 60 64 68 72 76 80 84 88 92 96 100 104 108 112 116 120 124 128 132 136 140 144 148 152 156 160 164 168 172 176 180 184 188 192 196 200 204 208 212 216 220 224 
        </DataArray>
        <DataArray type="UInt8" Name="types" format="ascii">
9 9 9 9 9 9 9 9 9 9 9 9 9 9 9 9 9 9 9 9 9 9 9 9 9 9 9 9 9 9 9 9 9 9 9 9 9 9 9 9 9 9 9 9 9 9 9 9 9 9 9 9 9 9 9 9 
        </DataArray>
      </Cells>

  <PointData>
        <DataArray type="Float64" Name="flux_domain_phi_1" NumberOfComponents="3" format="ascii">
3.319773930952298e-01 -3.594096779150083e-03 0.000000000000000e+00
2.456298558546343e-01 -9.580400584925043e-03 0.000000000000000e+00
2.388259511289297e-01 -1.713330090028957e-02 0.000000000000000e+00
3.220224947154748e-01 -6.360801600605427e-03 0.000000000000000e+00
2.456298558546343e-01 -9.580400584925043e-03 0.000000000000000e+00
9.416746846645253e-02 -1.371815766491372e-02 0.000000000000000e+00
9.236353431499292e-02 -2.525629376911934e-02 0.000000000000000e+00
2.388259511289297e-01 -1.713330090028957e-02 0.000000000000000e+00
9.416746846645253e-02 -1.371815766491372e-02 0.000000000000000e+00
-1.701745539450255e-02 -1.371081007569346e-02 0.000000000000000e+00
-1.578931278474084e-02 -2.579439013130263e-02 0.000000000000000e+00
9.236353431499292e-02 -2.525629376911934e-02 0.000000000000000e+00
-1.701745539450255e-02 -1.371081007569346e-02 0.000000000000000e+00
-9.113701442460205e-02 -1.124087926660273e-02 0.000000000000000e+00
-8.808330170470850e-02 -2.157122315994950e-02 0.000000000000000e+00
-1.578931278474084e-02 -2.579439013130263e-02 0.000000000000000e+00
-9.113701442460205e-02 -1.124087926660273e-02 0.000000000000000e+00
-1.296022687638834e-01 -7.464480000886571e-03 0.000000000000000e+00
-1.257760222104952e-01 -1.477148016338520e-02 0.000000000000000e+00
-8.808330170470850e-02 -2.157122315994950e-02 0.000000000000000e+00
-1.296022687638834e-01 -7.464480000886571e-03 0.000000000000000e+00
-1.326190922632390e-01 -3.468281460695325e-03 0.000000000000000e+00
-1.290944272885971e-01 -7.460457057768422e-03 0.000000000000000e+00
-1.257760222104952e-01 -1.477148016338520e-02 0.000000000000000e+00
-1.326190922632390e-01 -3.468281460695325e-03 0.000000000000000e+00
-9.901013169624825e-02 -5.864391974412744e-04 0.000000000000000e+00
-9.726061613369362e-02 -1.975098952320173e-03 0.000000000000000e+00
-1.290944272885971e-01 -7.460457057768422e-03 0.000000000000000e+00
-9.901013169624825e-02 -5.864391974412744e-04 0.000000000000000e+00
-7.280011665245285e-02 -1.708799092879831e-05 0.000000000000000e+00
-7.239410535884948e-02 -3.889233026745630e-04 0.000000000000000e+00
-9.726061613369362e-02 -1.975098952320173e-03 0.000000000000000e+00
3.220224947154748e-01 -6.360801600605427e-03 0.000000000000000e+00
2.388259511289297e-01 -1.713330090028957e-02 0.000000000000000e+00
2.199222493742302e-01 -3.053651039565333e-02 0.000000000000000e+00
2.952963393370260e-01 -1.123784735578385e-02 0.000000000000000e+00
2.388259511289297e-01 -1.713330090028957e-02 0.000000000000000e+00
9.236353431499292e-02 -2.525629376911934e-02 0.000000000000000e+00
8.652285666419547e-02 -4.613091640560011e-02 0.000000000000000e+00
2.199222493742302e-01 -3.053651039565333e-02 0.000000000000000e+00
9.236353431499292e-02 -2.525629376911934e-02 0.000000000000000e+00
-1.578931278474084e-02 -2.579439013130263e-02 0.000000000000000e+00
-1.296729142597411e-02 -4.812804319250533e-02 0.000000000000000e+00
8.652285666419547e-02 -4.613091640560011e-02 0.000000000000000e+00
-1.578931278474084e-02 -2.579439013130263e-02 0.000000000000000e+00
-8.808330170470850e-02 -2.157122315994950e-02 0.000000000000000e+00
-7.994092735450975e-02 -4.111906770033052e-02 0.000000000000000e+00
-1.296729142597411e-02 -4.812804319250533e-02 0.000000000000000e+00
-8.808330170470850e-02 -2.157122315994950e-02 0.000000000000000e+00
-1.257760222104952e-01 -1.477148016338520e-02 0.000000000000000e+00
-1.152918545146372e-01 -2.907475656603111e-02 0.000000000000000e+00
-7.994092735450975e-02 -4.111906770033052e-02 0.000000000000000e+00
-1.257760222104952e-01 -1.477148016338520e-02 0.000000000000000e+00
-1.290944272885971e-01 -7.460457057768422e-03 0.000000000000000e+00
-1.192875579713465e-01 -1.579285375008542e-02 0.000000000000000e+00
-1.152918545146372e-01 -2.907475656603111e-02 0.000000000000000e+00
-1.290944272885971e-01 -7.460457057768422e-03 0.000000000000000e+00
-9.726061613369362e-02 -1.975098952320173e-03 0.000000000000000e+00
-9.166310343361872e-02 -5.276701730846115e-03 0.000000000000000e+00
-1.192875579713465e-01 -1.579285375008542e-02 0.000000000000000e+00
-9.726061613369362e-02 -1.975098952320173e-03 0.000000000000000e+00
-7.239410535884948e-02 -3.889233026745630e-04 0.000000000000000e+00
-6.988508201370433e-02 -1.359341428050317e-03 0.000000000000000e+00
-9.166310343361872e-02 -5.276701730846115e-03 0.000000000000000e+00
2.952963393370260e-01 -1.123784735578385e-02 0.000000000000000e+00
2.199222493742302e-01 -3.053651039565333e-02 0.000000000000000e+00
1.910815012118745e-01 -4.137172157627227e-02 0.000000000000000e+00
2.555691876444146e-01 -1.514111604732249e-02 0.000000000000000e+00
2.199222493742302e-01 -3.053651039565333e-02 0.000000000000000e+00
8.652285666419547e-02 -4.613091640560011e-02 0.000000000000000e+00
7.650289267224548e-02 -6.351178899050833e-02 0.000000000000000e+00
1.910815012118745e-01 -4.137172157627227e-02 0.000000000000000e+00
8.652285666419547e-02 -4.613091640560011e-02 0.000000000000000e+00
-1.296729142597411e-02 -4.812804319250533e-02 0.000000000000000e+00
-9.670733677994021e-03 -6.741293853914974e-02 0.000000000000000e+00
7.650289267224548e-02 -6.351178899050833e-02 0.000000000000000e+00
-1.296729142597411e-02 -4.812804319250533e-02 0.000000000000000e+00
-7.994092735450975e-02 -4.111906770033052e-02 0.000000000000000e+00
-6.817935027946143e-02 -5.872662821126995e-02 0.000000000000000e+00
-9.670733677994021e-03 -6.741293853914974e-02 0.000000000000000e+00
-7.994092735450975e-02 -4.111906770033052e-02 0.000000000000000e+00
-1.152918545146372e-01 -2.907475656603111e-02 0.000000000000000e+00
-9.958254051931620e-02 -4.272112851405020e-02 0.000000000000000e+00
-6.817935027946143e-02 -5.872662821126995e-02 0.000000000000000e+00
-1.152918545146372e-01 -2.907475656603111e-02 0.000000000000000e+00
-1.192875579713465e-01 -1.579285375008542e-02 0.000000000000000e+00
-1.041357039058503e-01 -2.450564854172195e-02 0.000000000000000e+00
-9.958254051931620e-02 -4.272112851405020e-02 0.000000000000000e+00
-1.192875579713465e-01 -1.579285375008542e-02 0.000000000000000e+00
-9.166310343361872e-02 -5.276701730846115e-03 0.000000000000000e+00
-8.182822701456423e-02 -9.248964724560224e-03 0.000000000000000e+00
-1.041357039058503e-01 -2.450564854172195e-02 0.000000000000000e+00
-9.166310343361872e-02 -5.276701730846115e-03 0.000000000000000e+00
-6.988508201370433e-02 -1.359341428050317e-03 0.000000000000000e+00
-6.394486461828193e-02 -2.622951725691998e-03 0.000000000000000e+00
-8.182822701456423e-02 -9.248964724560224e-03 0.000000000000000e+00
2.555691876444146e-01 -1.514111604732249e-02 0.000000000000000e+00
1.910815012118745e-01 -4.137172157627227e-02 0.000000000000000e+00
1.537634329547302e-01 -5.079911048206767e-02 0.000000000000000e+00
2.049644939553704e-01 -1.852953383658582e-02 0.000000000000000e+00
1.910815012118745e-01 -4.137172157627227e-02 0.000000000000000e+00
7.650289267224548e-02 -6.351178899050833e-02 0.000000000000000e+00
6.254488326465893e-02 -7.876701209155754e-02 0.000000000000000e+00
1.537634329547302e-01 -5.079911048206767e-02 0.000000000000000e+00
7.650289267224548e-02 -6.351178899050833e-02 0.000000000000000e+00
-9.670733677994021e-03 -6.741293853914974e-02 0.000000000000000e+00
-6.505299956507401e-03 -8.465142838188555e-02 0.000000000000000e+00
6.254488326465893e-02 -7.876701209155754e-02 0.000000000000000e+00
-9.670733677994021e-03 -6.741293853914974e-02 0.000000000000000e+00
-6.817935027946143e-02 -5.872662821126995e-02 0.000000000000000e+00
-5.378235371172452e-02 -7.489093779266552e-02 0.000000000000000e+00
-6.505299956507401e-03 -8.465142838188555e-02 0.000000000000000e+00
-6.817935027946143e-02 -5.872662821126995e-02 0.000000000000000e+00
-9.958254051931620e-02 -4.272112851405020e-02 0.000000000000000e+00
-7.962007060627792e-02 -5.570388515979134e-02 0.000000000000000e+00
-5.378235371172452e-02 -7.489093779266552e-02 0.000000000000000e+00
-9.958254051931620e-02 -4.272112851405020e-02 0.000000000000000e+00
-1.041357039058503e-01 -2.450564854172195e-02 0.000000000000000e+00
-8.421669526384704e-02 -3.318449843738088e-02 0.000000000000000e+00
-7.962007060627792e-02 -5.570388515979134e-02 0.000000000000000e+00
-1.041357039058503e-01 -2.450564854172195e-02 0.000000000000000e+00
-8.182822701456423e-02 -9.248964724560224e-03 0.000000000000000e+00
-6.763806239194491e-02 -1.341031937290545e-02 0.000000000000000e+00
-8.421669526384704e-02 -3.318449843738088e-02 0.000000000000000e+00
-8.182822701456423e-02 -9.248964724560224e-03 0.000000000000000e+00
-6.394486461828193e-02 -2.622951725691998e-03 0.000000000000000e+00
-5.405616253354522e-02 -3.977771149341431e-03 0.000000000000000e+00
-6.763806239194491e-02 -1.341031937290545e-02 0.000000000000000e+00
2.049644939553704e-01 -1.852953383658582e-02 0.000000000000000e+00
1.537634329547302e-01 -5.079911048206767e-02 0.000000000000000e+00
1.088953389304755e-01 -5.929112595690654e-02 0.000000000000000e+00
1.447326240543887e-01 -2.157731219636503e-02 0.000000000000000e+00
1.537634329547302e-01 -5.079911048206767e-02 0.000000000000000e+00
6.254488326465893e-02 -7.876701209155754e-02 0.000000000000000e+00
4.491993545910147e-02 -9.258433257202658e-02 0.000000000000000e+00
1.088953389304755e-01 -5.929112595690654e-02 0.000000000000000e+00
6.254488326465893e-02 -7.876701209155754e-02 0.000000000000000e+00
-6.505299956507401e-03 -8.465142838188555e-02 0.000000000000000e+00
-3.757396007904311e-03 -1.004452908586435e-01 0.000000000000000e+00
4.491993545910147e-02 -9.258433257202658e-02 0.000000000000000e+00
-6.505299956507401e-03 -8.465142838188555e-02 0.000000000000000e+00
-5.378235371172452e-02 -7.489093779266552e-02 0.000000000000000e+00
-3.734207912879346e-02 -8.996612592895063e-02 0.000000000000000e+00
-3.757396007904311e-03 -1.004452908586435e-01 0.000000000000000e+00
-5.378235371172452e-02 -7.489093779266552e-02 0.000000000000000e+00
-7.962007060627792e-02 -5.570388515979134e-02 0.000000000000000e+00
-5.602128139254110e-02 -6.810359237258357e-02 0.000000000000000e+00
-3.734207912879346e-02 -8.996612592895063e-02 0.000000000000000e+00
-7.962007060627792e-02 -5.570388515979134e-02 0.000000000000000e+00
-8.421669526384704e-02 -3.318449843738088e-02 0.000000000000000e+00
-5.992431553150164e-02 -4.171916698752069e-02 0.000000000000000e+00
-5.602128139254110e-02 -6.810359237258357e-02 0.000000000000000e+00
-8.421669526384704e-02 -3.318449843738088e-02 0.000000000000000e+00
-6.763806239194491e-02 -1.341031937290545e-02 0.000000000000000e+00
-4.911666153003005e-02 -1.763164120091363e-02 0.000000000000000e+00
-5.992431553150164e-02 -4.171916698752069e-02 0.000000000000000e+00
-6.763806239194491e-02 -1.341031937290545e-02 0.000000000000000e+00
-5.405616253354522e-02 -3.977771149341431e-03 0.000000000000000e+00
-4.003970565200141e-02 -5.371122643223806e-03 0.000000000000000e+00
-4.911666153003005e-02 -1.763164120091363e-02 0.000000000000000e+00
1.447326240543887e-01 -2.157731219636503e-02 0.000000000000000e+00
1.088953389304755e-01 -5.929112595690654e-02 0.000000000000000e+00
5.713733541520512e-02 -6.706835260148576e-02 0.000000000000000e+00
7.576155926954249e-02 -2.436415206378778e-02 0.000000000000000e+00
1.088953389304755e-01 -5.929112595690654e-02 0.000000000000000e+00
4.491993545910147e-02 -9.258433257202658e-02 0.000000000000000e+00
2.384113261768173e-02 -1.053067331112407e-01 0.000000000000000e+00
5.713733541520512e-02 -6.706835260148576e-02 0.000000000000000e+00
4.491993545910147e-02 -9.258433257202658e-02 0.000000000000000e+00
-3.757396007904311e-03 -1.004452908586435e-01 0.000000000000000e+00
-1.592902529903168e-03 -1.151280777955504e-01 0.000000000000000e+00
2.384113261768173e-02 -1.053067331112407e-01 0.000000000000000e+00
-3.757396007904311e-03 -1.004452908586435e-01 0.000000000000000e+00
-3.734207912879346e-02 -8.996612592895063e-02 0.000000000000000e+00
-1.925307978087338e-02 -1.041805209921462e-01 0.000000000000000e+00
-1.592902529903168e-03 -1.151280777955504e-01 0.000000000000000e+00
-3.734207912879346e-02 -8.996612592895063e-02 0.000000000000000e+00
-5.602128139254110e-02 -6.810359237258357e-02 0.000000000000000e+00
-2.922353615399070e-02 -8.001638735958889e-02 0.000000000000000e+00
-1.925307978087338e-02 -1.041805209921462e-01 0.000000000000000e+00
-5.602128139254110e-02 -6.810359237258357e-02 0.000000000000000e+00
-5.992431553150164e-02 -4.171916698752069e-02 0.000000000000000e+00
-3.156715416644527e-02 -5.010984327574951e-02 0.000000000000000e+00
-2.922353615399070e-02 -8.001638735958889e-02 0.000000000000000e+00
-5.992431553150164e-02 -4.171916698752069e-02 0.000000000000000e+00
-4.911666153003005e-02 -1.763164120091363e-02 0.000000000000000e+00
-2.632089673131125e-02 -2.188589333062723e-02 0.000000000000000e+00
-3.156715416644527e-02 -5.010984327574951e-02 0.000000000000000e+00
-4.911666153003005e-02 -1.763164120091363e-02 0.000000000000000e+00
-4.003970565200141e-02 -5.371122643223806e-03 0.000000000000000e+00
-2.180335661026865e-02 -6.790544201041303e-03 0.000000000000000e+00
-2.632089673131125e-02 -2.188589333062723e-02 0.000000000000000e+00
7.576155926954249e-02 -2.436415206378778e-02 0.000000000000000e+00
5.713733541520512e-02 -6.706835260148576e-02 0.000000000000000e+00
1.939864347064713e-02 -7.079605067640182e-02 0.000000000000000e+00
2.569870360287908e-02 -2.569870360287908e-02 0.000000000000000e+00
5.713733541520512e-02 -6.706835260148576e-02 0.000000000000000e+00
2.384113261768173e-02 -1.053067331112407e-01 0.000000000000000e+00
8.129372732939458e-03 -1.114226502184018e-01 0.000000000000000e+00
1.939864347064713e-02 -7.079605067640182e-02 0.000000000000000e+00
2.384113261768173e-02 -1.053067331112407e-01 0.000000000000000e+00
-1.592902529903168e-03 -1.151280777955504e-01 0.000000000000000e+00
-4.915153214204022e-04 -1.222206697573841e-01 0.000000000000000e+00
8.129372732939458e-03 -1.114226502184018e-01 0.000000000000000e+00
-1.592902529903168e-03 -1.151280777955504e-01 0.000000000000000e+00
-1.925307978087338e-02 -1.041805209921462e-01 0.000000000000000e+00
-6.491984029112723e-03 -1.110939776365470e-01 0.000000000000000e+00
-4.915153214204022e-04 -1.222206697573841e-01 0.000000000000000e+00
-1.925307978087338e-02 -1.041805209921462e-01 0.000000000000000e+00
-2.922353615399070e-02 -8.001638735958889e-02 0.000000000000000e+00
-9.899082247843253e-03 -8.586213607167135e-02 0.000000000000000e+00
-6.491984029112723e-03 -1.110939776365470e-01 0.000000000000000e+00
-2.922353615399070e-02 -8.001638735958889e-02 0.000000000000000e+00
-3.156715416644527e-02 -5.010984327574951e-02 0.000000000000000e+00
-1.073353740295918e-02 -5.427212721310479e-02 0.000000000000000e+00
-9.899082247843253e-03 -8.586213607167135e-02 0.000000000000000e+00
-3.156715416644527e-02 -5.010984327574951e-02 0.000000000000000e+00
-2.632089673131125e-02 -2.188589333062723e-02 0.000000000000000e+00
-9.008045901383467e-03 -2.402085831061080e-02 0.000000000000000e+00
-1.073353740295918e-02 -5.427212721310479e-02 0.000000000000000e+00
-2.632089673131125e-02 -2.188589333062723e-02 0.000000000000000e+00
-2.180335661026865e-02 -6.790544201041303e-03 0.000000000000000e+00
-7.506406204614177e-03 -7.506406204614168e-03 0.000000000000000e+00
-9.008045901383467e-03 -2.402085831061080e-02 0.000000000000000e+00
        </DataArray>
        <DataArray type="Float64" Name="phi_1" format="ascii">
0.000000000000000e+00
-2.097321811714875e-02
-2.029932497105814e-02
0.000000000000000e+00
-2.097321811714875e-02
-3.100275786015745e-02
-3.010568022517298e-02
-2.029932497105814e-02
-3.100275786015745e-02
-3.281355577286317e-02
-3.193145033454901e-02
-3.010568022517298e-02
-3.281355577286317e-02
-2.881523485423112e-02
-2.809918046408719e-02
-3.193145033454901e-02
-2.881523485423112e-02
-2.128372939904525e-02
-2.081472267295907e-02
-2.809918046408719e-02
-2.128372939904525e-02
-1.244529936397898e-02
-1.223820065813513e-02
-2.081472267295907e-02
-1.244529936397898e-02
-4.551075290211353e-03
-4.547871291912201e-03
-1.223820065813513e-02
-4.551075290211353e-03
0.000000000000000e+00
0.000000000000000e+00
-4.547871291912201e-03
0.000000000000000e+00
-2.029932497105814e-02
-1.858791751692182e-02
0.000000000000000e+00
-2.029932497105814e-02
-3.010568022517298e-02
-2.769398458584794e-02
-1.858791751692182e-02
-3.010568022517298e-02
-3.193145033454901e-02
-2.949172914348863e-02
-2.769398458584794e-02
-3.193145033454901e-02
-2.809918046408719e-02
-2.606552204756180e-02
-2.949172914348863e-02
-2.809918046408719e-02
-2.081472267295907e-02
-1.942598988513491e-02
-2.606552204756180e-02
-2.081472267295907e-02
-1.223820065813513e-02
-1.154736010375073e-02
-1.942598988513491e-02
-1.223820065813513e-02
-4.547871291912201e-03
-4.405229051708394e-03
-1.154736010375073e-02
-4.547871291912201e-03
0.000000000000000e+00
0.000000000000000e+00
-4.405229051708394e-03
0.000000000000000e+00
-1.858791751692182e-02
-1.608513221263938e-02
0.000000000000000e+00
-1.858791751692182e-02
-2.769398458584794e-02
-2.406006846210791e-02
-1.608513221263938e-02
-2.769398458584794e-02
-2.949172914348863e-02
-2.572990284102790e-02
-2.406006846210791e-02
-2.949172914348863e-02
-2.606552204756180e-02
-2.285494980685766e-02
-2.572990284102790e-02
-2.606552204756180e-02
-1.942598988513491e-02
-1.715389202015040e-02
-2.285494980685766e-02
-1.942598988513491e-02
-1.154736010375073e-02
-1.031968650207600e-02
-1.715389202015040e-02
-1.154736010375073e-02
-4.405229051708394e-03
-4.038118256393350e-03
-1.031968650207600e-02
-4.405229051708394e-03
0.000000000000000e+00
0.000000000000000e+00
-4.038118256393350e-03
0.000000000000000e+00
-1.608513221263938e-02
-1.290999899917614e-02
0.000000000000000e+00
-1.608513221263938e-02
-2.406006846210791e-02
-1.937686747462633e-02
-1.290999899917614e-02
-2.406006846210791e-02
-2.572990284102790e-02
-2.080427436323939e-02
-1.937686747462633e-02
-2.572990284102790e-02
-2.285494980685766e-02
-1.857275437541795e-02
-2.080427436323939e-02
-2.285494980685766e-02
-1.715389202015040e-02
-1.403954419550702e-02
-1.857275437541795e-02
-1.715389202015040e-02
-1.031968650207600e-02
-8.545064148868459e-03
-1.403954419550702e-02
-1.031968650207600e-02
-4.038118256393350e-03
-3.421622154573934e-03
-8.545064148868459e-03
-4.038118256393350e-03
0.000000000000000e+00
0.000000000000000e+00
-3.421622154573934e-03
0.000000000000000e+00
-1.290999899917614e-02
-9.136557023920008e-03
0.000000000000000e+00
-1.290999899917614e-02
-1.937686747462633e-02
-1.375503635543449e-02
-9.136557023920008e-03
-1.937686747462633e-02
-2.080427436323939e-02
-1.482334738777268e-02
-1.375503635543449e-02
-2.080427436323939e-02
-1.857275437541795e-02
-1.329763244013769e-02
-1.482334738777268e-02
-1.857275437541795e-02
-1.403954419550702e-02
-1.012151359578629e-02
-1.329763244013769e-02
-1.403954419550702e-02
-8.545064148868459e-03
-6.228603696408861e-03
-1.012151359578629e-02
-8.545064148868459e-03
-3.421622154573934e-03
-2.546454075390378e-03
-6.228603696408861e-03
-3.421622154573934e-03
0.000000000000000e+00
0.000000000000000e+00
-2.546454075390378e-03
0.000000000000000e+00
-9.136557023920008e-03
-4.818506925539612e-03
0.000000000000000e+00
-9.136557023920008e-03
-1.375503635543449e-02
-7.274491301492348e-03
-4.818506925539612e-03
-1.375503635543449e-02
-1.482334738777268e-02
-7.867021700391772e-03
-7.274491301492348e-03
-1.482334738777268e-02
-1.329763244013769e-02
-7.090173055959705e-03
-7.867021700391772e-03
-1.329763244013769e-02
-1.012151359578629e-02
-5.432527689474610e-03
-7.090173055959705e-03
-1.012151359578629e-02
-6.228603696408861e-03
-3.378017213018649e-03
-5.432527689474610e-03
-6.228603696408861e-03
-2.546454075390378e-03
-1.407451163365095e-03
-3.378017213018649e-03
-2.546454075390378e-03
0.000000000000000e+00
0.000000000000000e+00
-1.407451163365095e-03
0.000000000000000e+00
-4.818506925539612e-03
0.000000000000000e+00
0.000000000000000e+00
-4.818506925539612e-03
-7.274491301492348e-03
0.000000000000000e+00
0.000000000000000e+00
-7.274491301492348e-03
-7.867021700391772e-03
0.000000000000000e+00
0.000000000000000e+00
-7.867021700391772e-03
-7.090173055959705e-03
0.000000000000000e+00
0.000000000000000e+00
-7.090173055959705e-03
-5.432527689474610e-03
0.000000000000000e+00
0.000000000000000e+00
-5.432527689474610e-03
-3.378017213018649e-03
0.000000000000000e+00
0.000000000000000e+00
-3.378017213018649e-03
-1.407451163365095e-03
0.000000000000000e+00
0.000000000000000e+00
-1.407451163365095e-03
0.000000000000000e+00
0.000000000000000e+00
0.000000000000000e+00
        </DataArray>
  </PointData>
  <CellData>
        <DataArray type="Float64" Name="Owner" format="ascii">
0.000000000000000e+00
0.000000000000000e+00
0.000000000000000e+00
0.000000000000000e+00
0.000000000000000e+00
0.000000000000000e+00
0.000000000000000e+00
0.000000000000000e+00
0.000000000000000e+00
0.000000000000000e+00
0.000000000000000e+00
0.000000000000000e+00
0.000000000000000e+00
0.000000000000000e+00
0.000000000000000e+00
0.000000000000000e+00
0.000000000000000e+00
0.000000000000000e+00
0.000000000000000e+00
0.000000000000000e+00
0.000000000000000e+00
0.000000000000000e+00
0.000000000000000e+00
0.000000000000000e+00
0.000000000000000e+00
0.000000000000000e+00
0.000000000000000e+00
0.000000000000000e+00
0.000000000000000e+00
0.000000000000000e+00
0.000000000000000e+00
0.000000000000000e+00
0.000000000000000e+00
0.000000000000000e+00
0.000000000000000e+00
0.000000000000000e+00
0.000000000000000e+00
0.000000000000000e+00
0.000000000000000e+00
0.000000000000000e+00
0.000000000000000e+00
0.000000000000000e+00
0.000000000000000e+00
0.000000000000000e+00
0.000000000000000e+00
0.000000000000000e+00
0.000000000000000e+00
0.000000000000000e+00
0.000000000000000e+00
0.000000000000000e+00
0.000000000000000e+00
0.000000000000000e+00
0.000000000000000e+00
0.000000000000000e+00
0.000000000000000e+00
0.000000000000000e+00
        </DataArray>
      </CellData>

    </Piece>
  </UnstructuredGrid>
</VTKFile>
