<?xml version="1.0" ?> 
<!-- 
# vtk DataFile Version 3.0
-->
<VTKFile type="UnstructuredGrid" version="0.1" compressor="vtkZLibDataCompressor" byte_order="LittleEndian">
  <UnstructuredGrid>
    <FieldData>
      <DataArray type="Float64" Name="TIME" NumberOfTuples="1" format="ascii">
1.000000000000000e+00 
      </DataArray>
    </FieldData>

    <Piece NumberOfPoints="640" NumberOfCells="160" >
      <Points>
        <DataArray type="Float64" NumberOfComponents="3" format="ascii">
0.000000000000000e+00 2.000000000000000e-01 0.000000000000000e+00
2.500000000000000e-02 2.000000000000000e-01 0.000000000000000e+00
2.500000000000000e-02 2.125000000000000e-01 0.000000000000000e+00
0.000000000000000e+00 2.125000000000000e-01 0.000000000000000e+00
2.500000000000000e-02 2.000000000000000e-01 0.000000000000000e+00
5.000000000000000e-02 2.000000000000000e-01 0.000000000000000e+00
5.000000000000000e-02 2.125000000000000e-01 0.000000000000000e+00
2.500000000000000e-02 2.125000000000000e-01 0.000000000000000e+00
5.000000000000000e-02 2.000000000000000e-01 0.000000000000000e+00
7.500000000000000e-02 2.000000000000000e-01 0.000000000000000e+00
7.500000000000000e-02 2.125000000000000e-01 0.000000000000000e+00
5.000000000000000e-02 2.125000000000000e-01 0.000000000000000e+00
7.500000000000000e-02 2.000000000000000e-01 0.000000000000000e+00
1.000000000000000e-01 2.000000000000000e-01 0.000000000000000e+00
1.000000000000000e-01 2.125000000000000e-01 0.000000000000000e+00
7.500000000000000e-02 2.125000000000000e-01 0.000000000000000e+00
1.000000000000000e-01 2.000000000000000e-01 0.000000000000000e+00
1.250000000000000e-01 2.000000000000000e-01 0.000000000000000e+00
1.250000000000000e-01 2.125000000000000e-01 0.000000000000000e+00
1.000000000000000e-01 2.125000000000000e-01 0.000000000000000e+00
1.250000000000000e-01 2.000000000000000e-01 0.000000000000000e+00
1.500000000000000e-01 2.000000000000000e-01 0.000000000000000e+00
1.500000000000000e-01 2.125000000000000e-01 0.000000000000000e+00
1.250000000000000e-01 2.125000000000000e-01 0.000000000000000e+00
1.500000000000000e-01 2.000000000000000e-01 0.000000000000000e+00
1.750000000000000e-01 2.000000000000000e-01 0.000000000000000e+00
1.750000000000000e-01 2.125000000000000e-01 0.000000000000000e+00
1.500000000000000e-01 2.125000000000000e-01 0.000000000000000e+00
1.750000000000000e-01 2.000000000000000e-01 0.000000000000000e+00
2.000000000000000e-01 2.000000000000000e-01 0.000000000000000e+00
2.000000000000000e-01 2.125000000000000e-01 0.000000000000000e+00
1.750000000000000e-01 2.125000000000000e-01 0.000000000000000e+00
2.000000000000000e-01 2.000000000000000e-01 0.000000000000000e+00
2.250000000000000e-01 2.000000000000000e-01 0.000000000000000e+00
2.250000000000000e-01 2.125000000000000e-01 0.000000000000000e+00
2.000000000000000e-01 2.125000000000000e-01 0.000000000000000e+00
2.250000000000000e-01 2.000000000000000e-01 0.000000000000000e+00
2.500000000000000e-01 2.000000000000000e-01 0.000000000000000e+00
2.500000000000000e-01 2.125000000000000e-01 0.000000000000000e+00
2.250000000000000e-01 2.125000000000000e-01 0.000000000000000e+00
2.500000000000000e-01 2.000000000000000e-01 0.000000000000000e+00
2.750000000000000e-01 2.000000000000000e-01 0.000000000000000e+00
2.750000000000000e-01 2.125000000000000e-01 0.000000000000000e+00
2.500000000000000e-01 2.125000000000000e-01 0.000000000000000e+00
2.750000000000000e-01 2.000000000000000e-01 0.000000000000000e+00
3.000000000000000e-01 2.000000000000000e-01 0.000000000000000e+00
3.000000000000000e-01 2.125000000000000e-01 0.000000000000000e+00
2.750000000000000e-01 2.125000000000000e-01 0.000000000000000e+00
3.000000000000000e-01 2.000000000000000e-01 0.000000000000000e+00
3.250000000000000e-01 2.000000000000000e-01 0.000000000000000e+00
3.250000000000000e-01 2.125000000000000e-01 0.000000000000000e+00
3.000000000000000e-01 2.125000000000000e-01 0.000000000000000e+00
3.250000000000000e-01 2.000000000000000e-01 0.000000000000000e+00
3.500000000000000e-01 2.000000000000000e-01 0.000000000000000e+00
3.500000000000000e-01 2.125000000000000e-01 0.000000000000000e+00
3.250000000000000e-01 2.125000000000000e-01 0.000000000000000e+00
3.500000000000000e-01 2.000000000000000e-01 0.000000000000000e+00
3.750000000000000e-01 2.000000000000000e-01 0.000000000000000e+00
3.750000000000000e-01 2.125000000000000e-01 0.000000000000000e+00
3.500000000000000e-01 2.125000000000000e-01 0.000000000000000e+00
3.750000000000000e-01 2.000000000000000e-01 0.000000000000000e+00
4.000000000000000e-01 2.000000000000000e-01 0.000000000000000e+00
4.000000000000000e-01 2.125000000000000e-01 0.000000000000000e+00
3.750000000000000e-01 2.125000000000000e-01 0.000000000000000e+00
4.000000000000000e-01 2.000000000000000e-01 0.000000000000000e+00
4.250000000000000e-01 2.000000000000000e-01 0.000000000000000e+00
4.250000000000000e-01 2.125000000000000e-01 0.000000000000000e+00
4.000000000000000e-01 2.125000000000000e-01 0.000000000000000e+00
4.250000000000000e-01 2.000000000000000e-01 0.000000000000000e+00
4.500000000000000e-01 2.000000000000000e-01 0.000000000000000e+00
4.500000000000000e-01 2.125000000000000e-01 0.000000000000000e+00
4.250000000000000e-01 2.125000000000000e-01 0.000000000000000e+00
4.500000000000000e-01 2.000000000000000e-01 0.000000000000000e+00
4.750000000000000e-01 2.000000000000000e-01 0.000000000000000e+00
4.750000000000000e-01 2.125000000000000e-01 0.000000000000000e+00
4.500000000000000e-01 2.125000000000000e-01 0.000000000000000e+00
4.750000000000000e-01 2.000000000000000e-01 0.000000000000000e+00
5.000000000000000e-01 2.000000000000000e-01 0.000000000000000e+00
5.000000000000000e-01 2.125000000000000e-01 0.000000000000000e+00
4.750000000000000e-01 2.125000000000000e-01 0.000000000000000e+00
5.000000000000000e-01 2.000000000000000e-01 0.000000000000000e+00
5.250000000000000e-01 2.000000000000000e-01 0.000000000000000e+00
5.250000000000000e-01 2.125000000000000e-01 0.000000000000000e+00
5.000000000000000e-01 2.125000000000000e-01 0.000000000000000e+00
5.250000000000000e-01 2.000000000000000e-01 0.000000000000000e+00
5.500000000000000e-01 2.000000000000000e-01 0.000000000000000e+00
5.500000000000000e-01 2.125000000000000e-01 0.000000000000000e+00
5.250000000000000e-01 2.125000000000000e-01 0.000000000000000e+00
5.500000000000000e-01 2.000000000000000e-01 0.000000000000000e+00
5.750000000000000e-01 2.000000000000000e-01 0.000000000000000e+00
5.750000000000000e-01 2.125000000000000e-01 0.000000000000000e+00
5.500000000000000e-01 2.125000000000000e-01 0.000000000000000e+00
5.750000000000000e-01 2.000000000000000e-01 0.000000000000000e+00
6.000000000000000e-01 2.000000000000000e-01 0.000000000000000e+00
6.000000000000000e-01 2.125000000000000e-01 0.000000000000000e+00
5.750000000000000e-01 2.125000000000000e-01 0.000000000000000e+00
6.000000000000000e-01 2.000000000000000e-01 0.000000000000000e+00
6.250000000000000e-01 2.000000000000000e-01 0.000000000000000e+00
6.250000000000000e-01 2.125000000000000e-01 0.000000000000000e+00
6.000000000000000e-01 2.125000000000000e-01 0.000000000000000e+00
6.250000000000000e-01 2.000000000000000e-01 0.000000000000000e+00
6.500000000000000e-01 2.000000000000000e-01 0.000000000000000e+00
6.500000000000000e-01 2.125000000000000e-01 0.000000000000000e+00
6.250000000000000e-01 2.125000000000000e-01 0.000000000000000e+00
6.500000000000000e-01 2.000000000000000e-01 0.000000000000000e+00
6.750000000000000e-01 2.000000000000000e-01 0.000000000000000e+00
6.750000000000000e-01 2.125000000000000e-01 0.000000000000000e+00
6.500000000000000e-01 2.125000000000000e-01 0.000000000000000e+00
6.750000000000000e-01 2.000000000000000e-01 0.000000000000000e+00
7.000000000000000e-01 2.000000000000000e-01 0.000000000000000e+00
7.000000000000000e-01 2.125000000000000e-01 0.000000000000000e+00
6.750000000000000e-01 2.125000000000000e-01 0.000000000000000e+00
7.000000000000000e-01 2.000000000000000e-01 0.000000000000000e+00
7.250000000000000e-01 2.000000000000000e-01 0.000000000000000e+00
7.250000000000000e-01 2.125000000000000e-01 0.000000000000000e+00
7.000000000000000e-01 2.125000000000000e-01 0.000000000000000e+00
7.250000000000000e-01 2.000000000000000e-01 0.000000000000000e+00
7.500000000000000e-01 2.000000000000000e-01 0.000000000000000e+00
7.500000000000000e-01 2.125000000000000e-01 0.000000000000000e+00
7.250000000000000e-01 2.125000000000000e-01 0.000000000000000e+00
7.500000000000000e-01 2.000000000000000e-01 0.000000000000000e+00
7.750000000000000e-01 2.000000000000000e-01 0.000000000000000e+00
7.750000000000000e-01 2.125000000000000e-01 0.000000000000000e+00
7.500000000000000e-01 2.125000000000000e-01 0.000000000000000e+00
7.750000000000000e-01 2.000000000000000e-01 0.000000000000000e+00
8.000000000000000e-01 2.000000000000000e-01 0.000000000000000e+00
8.000000000000000e-01 2.125000000000000e-01 0.000000000000000e+00
7.750000000000000e-01 2.125000000000000e-01 0.000000000000000e+00
8.000000000000000e-01 2.000000000000000e-01 0.000000000000000e+00
8.250000000000000e-01 2.000000000000000e-01 0.000000000000000e+00
8.250000000000000e-01 2.125000000000000e-01 0.000000000000000e+00
8.000000000000000e-01 2.125000000000000e-01 0.000000000000000e+00
8.250000000000000e-01 2.000000000000000e-01 0.000000000000000e+00
8.500000000000000e-01 2.000000000000000e-01 0.000000000000000e+00
8.500000000000000e-01 2.125000000000000e-01 0.000000000000000e+00
8.250000000000000e-01 2.125000000000000e-01 0.000000000000000e+00
8.500000000000000e-01 2.000000000000000e-01 0.000000000000000e+00
8.750000000000000e-01 2.000000000000000e-01 0.000000000000000e+00
8.750000000000000e-01 2.125000000000000e-01 0.000000000000000e+00
8.500000000000000e-01 2.125000000000000e-01 0.000000000000000e+00
8.750000000000000e-01 2.000000000000000e-01 0.000000000000000e+00
9.000000000000000e-01 2.000000000000000e-01 0.000000000000000e+00
9.000000000000000e-01 2.125000000000000e-01 0.000000000000000e+00
8.750000000000000e-01 2.125000000000000e-01 0.000000000000000e+00
9.000000000000000e-01 2.000000000000000e-01 0.000000000000000e+00
9.250000000000000e-01 2.000000000000000e-01 0.000000000000000e+00
9.250000000000000e-01 2.125000000000000e-01 0.000000000000000e+00
9.000000000000000e-01 2.125000000000000e-01 0.000000000000000e+00
9.250000000000000e-01 2.000000000000000e-01 0.000000000000000e+00
9.500000000000000e-01 2.000000000000000e-01 0.000000000000000e+00
9.500000000000000e-01 2.125000000000000e-01 0.000000000000000e+00
9.250000000000000e-01 2.125000000000000e-01 0.000000000000000e+00
9.500000000000000e-01 2.000000000000000e-01 0.000000000000000e+00
9.750000000000000e-01 2.000000000000000e-01 0.000000000000000e+00
9.750000000000000e-01 2.125000000000000e-01 0.000000000000000e+00
9.500000000000000e-01 2.125000000000000e-01 0.000000000000000e+00
9.750000000000000e-01 2.000000000000000e-01 0.000000000000000e+00
1.000000000000000e+00 2.000000000000000e-01 0.000000000000000e+00
1.000000000000000e+00 2.125000000000000e-01 0.000000000000000e+00
9.750000000000000e-01 2.125000000000000e-01 0.000000000000000e+00
0.000000000000000e+00 2.125000000000000e-01 0.000000000000000e+00
2.500000000000000e-02 2.125000000000000e-01 0.000000000000000e+00
2.500000000000000e-02 2.250000000000000e-01 0.000000000000000e+00
0.000000000000000e+00 2.250000000000000e-01 0.000000000000000e+00
2.500000000000000e-02 2.125000000000000e-01 0.000000000000000e+00
5.000000000000000e-02 2.125000000000000e-01 0.000000000000000e+00
5.000000000000000e-02 2.250000000000000e-01 0.000000000000000e+00
2.500000000000000e-02 2.250000000000000e-01 0.000000000000000e+00
5.000000000000000e-02 2.125000000000000e-01 0.000000000000000e+00
7.500000000000000e-02 2.125000000000000e-01 0.000000000000000e+00
7.500000000000000e-02 2.250000000000000e-01 0.000000000000000e+00
5.000000000000000e-02 2.250000000000000e-01 0.000000000000000e+00
7.500000000000000e-02 2.125000000000000e-01 0.000000000000000e+00
1.000000000000000e-01 2.125000000000000e-01 0.000000000000000e+00
1.000000000000000e-01 2.250000000000000e-01 0.000000000000000e+00
7.500000000000000e-02 2.250000000000000e-01 0.000000000000000e+00
1.000000000000000e-01 2.125000000000000e-01 0.000000000000000e+00
1.250000000000000e-01 2.125000000000000e-01 0.000000000000000e+00
1.250000000000000e-01 2.250000000000000e-01 0.000000000000000e+00
1.000000000000000e-01 2.250000000000000e-01 0.000000000000000e+00
1.250000000000000e-01 2.125000000000000e-01 0.000000000000000e+00
1.500000000000000e-01 2.125000000000000e-01 0.000000000000000e+00
1.500000000000000e-01 2.250000000000000e-01 0.000000000000000e+00
1.250000000000000e-01 2.250000000000000e-01 0.000000000000000e+00
1.500000000000000e-01 2.125000000000000e-01 0.000000000000000e+00
1.750000000000000e-01 2.125000000000000e-01 0.000000000000000e+00
1.750000000000000e-01 2.250000000000000e-01 0.000000000000000e+00
1.500000000000000e-01 2.250000000000000e-01 0.000000000000000e+00
1.750000000000000e-01 2.125000000000000e-01 0.000000000000000e+00
2.000000000000000e-01 2.125000000000000e-01 0.000000000000000e+00
2.000000000000000e-01 2.250000000000000e-01 0.000000000000000e+00
1.750000000000000e-01 2.250000000000000e-01 0.000000000000000e+00
2.000000000000000e-01 2.125000000000000e-01 0.000000000000000e+00
2.250000000000000e-01 2.125000000000000e-01 0.000000000000000e+00
2.250000000000000e-01 2.250000000000000e-01 0.000000000000000e+00
2.000000000000000e-01 2.250000000000000e-01 0.000000000000000e+00
2.250000000000000e-01 2.125000000000000e-01 0.000000000000000e+00
2.500000000000000e-01 2.125000000000000e-01 0.000000000000000e+00
2.500000000000000e-01 2.250000000000000e-01 0.000000000000000e+00
2.250000000000000e-01 2.250000000000000e-01 0.000000000000000e+00
2.500000000000000e-01 2.125000000000000e-01 0.000000000000000e+00
2.750000000000000e-01 2.125000000000000e-01 0.000000000000000e+00
2.750000000000000e-01 2.250000000000000e-01 0.000000000000000e+00
2.500000000000000e-01 2.250000000000000e-01 0.000000000000000e+00
2.750000000000000e-01 2.125000000000000e-01 0.000000000000000e+00
3.000000000000000e-01 2.125000000000000e-01 0.000000000000000e+00
3.000000000000000e-01 2.250000000000000e-01 0.000000000000000e+00
2.750000000000000e-01 2.250000000000000e-01 0.000000000000000e+00
3.000000000000000e-01 2.125000000000000e-01 0.000000000000000e+00
3.250000000000000e-01 2.125000000000000e-01 0.000000000000000e+00
3.250000000000000e-01 2.250000000000000e-01 0.000000000000000e+00
3.000000000000000e-01 2.250000000000000e-01 0.000000000000000e+00
3.250000000000000e-01 2.125000000000000e-01 0.000000000000000e+00
3.500000000000000e-01 2.125000000000000e-01 0.000000000000000e+00
3.500000000000000e-01 2.250000000000000e-01 0.000000000000000e+00
3.250000000000000e-01 2.250000000000000e-01 0.000000000000000e+00
3.500000000000000e-01 2.125000000000000e-01 0.000000000000000e+00
3.750000000000000e-01 2.125000000000000e-01 0.000000000000000e+00
3.750000000000000e-01 2.250000000000000e-01 0.000000000000000e+00
3.500000000000000e-01 2.250000000000000e-01 0.000000000000000e+00
3.750000000000000e-01 2.125000000000000e-01 0.000000000000000e+00
4.000000000000000e-01 2.125000000000000e-01 0.000000000000000e+00
4.000000000000000e-01 2.250000000000000e-01 0.000000000000000e+00
3.750000000000000e-01 2.250000000000000e-01 0.000000000000000e+00
4.000000000000000e-01 2.125000000000000e-01 0.000000000000000e+00
4.250000000000000e-01 2.125000000000000e-01 0.000000000000000e+00
4.250000000000000e-01 2.250000000000000e-01 0.000000000000000e+00
4.000000000000000e-01 2.250000000000000e-01 0.000000000000000e+00
4.250000000000000e-01 2.125000000000000e-01 0.000000000000000e+00
4.500000000000000e-01 2.125000000000000e-01 0.000000000000000e+00
4.500000000000000e-01 2.250000000000000e-01 0.000000000000000e+00
4.250000000000000e-01 2.250000000000000e-01 0.000000000000000e+00
4.500000000000000e-01 2.125000000000000e-01 0.000000000000000e+00
4.750000000000000e-01 2.125000000000000e-01 0.000000000000000e+00
4.750000000000000e-01 2.250000000000000e-01 0.000000000000000e+00
4.500000000000000e-01 2.250000000000000e-01 0.000000000000000e+00
4.750000000000000e-01 2.125000000000000e-01 0.000000000000000e+00
5.000000000000000e-01 2.125000000000000e-01 0.000000000000000e+00
5.000000000000000e-01 2.250000000000000e-01 0.000000000000000e+00
4.750000000000000e-01 2.250000000000000e-01 0.000000000000000e+00
5.000000000000000e-01 2.125000000000000e-01 0.000000000000000e+00
5.250000000000000e-01 2.125000000000000e-01 0.000000000000000e+00
5.250000000000000e-01 2.250000000000000e-01 0.000000000000000e+00
5.000000000000000e-01 2.250000000000000e-01 0.000000000000000e+00
5.250000000000000e-01 2.125000000000000e-01 0.000000000000000e+00
5.500000000000000e-01 2.125000000000000e-01 0.000000000000000e+00
5.500000000000000e-01 2.250000000000000e-01 0.000000000000000e+00
5.250000000000000e-01 2.250000000000000e-01 0.000000000000000e+00
5.500000000000000e-01 2.125000000000000e-01 0.000000000000000e+00
5.750000000000000e-01 2.125000000000000e-01 0.000000000000000e+00
5.750000000000000e-01 2.250000000000000e-01 0.000000000000000e+00
5.500000000000000e-01 2.250000000000000e-01 0.000000000000000e+00
5.750000000000000e-01 2.125000000000000e-01 0.000000000000000e+00
6.000000000000000e-01 2.125000000000000e-01 0.000000000000000e+00
6.000000000000000e-01 2.250000000000000e-01 0.000000000000000e+00
5.750000000000000e-01 2.250000000000000e-01 0.000000000000000e+00
6.000000000000000e-01 2.125000000000000e-01 0.000000000000000e+00
6.250000000000000e-01 2.125000000000000e-01 0.000000000000000e+00
6.250000000000000e-01 2.250000000000000e-01 0.000000000000000e+00
6.000000000000000e-01 2.250000000000000e-01 0.000000000000000e+00
6.250000000000000e-01 2.125000000000000e-01 0.000000000000000e+00
6.500000000000000e-01 2.125000000000000e-01 0.000000000000000e+00
6.500000000000000e-01 2.250000000000000e-01 0.000000000000000e+00
6.250000000000000e-01 2.250000000000000e-01 0.000000000000000e+00
6.500000000000000e-01 2.125000000000000e-01 0.000000000000000e+00
6.750000000000000e-01 2.125000000000000e-01 0.000000000000000e+00
6.750000000000000e-01 2.250000000000000e-01 0.000000000000000e+00
6.500000000000000e-01 2.250000000000000e-01 0.000000000000000e+00
6.750000000000000e-01 2.125000000000000e-01 0.000000000000000e+00
7.000000000000000e-01 2.125000000000000e-01 0.000000000000000e+00
7.000000000000000e-01 2.250000000000000e-01 0.000000000000000e+00
6.750000000000000e-01 2.250000000000000e-01 0.000000000000000e+00
7.000000000000000e-01 2.125000000000000e-01 0.000000000000000e+00
7.250000000000000e-01 2.125000000000000e-01 0.000000000000000e+00
7.250000000000000e-01 2.250000000000000e-01 0.000000000000000e+00
7.000000000000000e-01 2.250000000000000e-01 0.000000000000000e+00
7.250000000000000e-01 2.125000000000000e-01 0.000000000000000e+00
7.500000000000000e-01 2.125000000000000e-01 0.000000000000000e+00
7.500000000000000e-01 2.250000000000000e-01 0.000000000000000e+00
7.250000000000000e-01 2.250000000000000e-01 0.000000000000000e+00
7.500000000000000e-01 2.125000000000000e-01 0.000000000000000e+00
7.750000000000000e-01 2.125000000000000e-01 0.000000000000000e+00
7.750000000000000e-01 2.250000000000000e-01 0.000000000000000e+00
7.500000000000000e-01 2.250000000000000e-01 0.000000000000000e+00
7.750000000000000e-01 2.125000000000000e-01 0.000000000000000e+00
8.000000000000000e-01 2.125000000000000e-01 0.000000000000000e+00
8.000000000000000e-01 2.250000000000000e-01 0.000000000000000e+00
7.750000000000000e-01 2.250000000000000e-01 0.000000000000000e+00
8.000000000000000e-01 2.125000000000000e-01 0.000000000000000e+00
8.250000000000000e-01 2.125000000000000e-01 0.000000000000000e+00
8.250000000000000e-01 2.250000000000000e-01 0.000000000000000e+00
8.000000000000000e-01 2.250000000000000e-01 0.000000000000000e+00
8.250000000000000e-01 2.125000000000000e-01 0.000000000000000e+00
8.500000000000000e-01 2.125000000000000e-01 0.000000000000000e+00
8.500000000000000e-01 2.250000000000000e-01 0.000000000000000e+00
8.250000000000000e-01 2.250000000000000e-01 0.000000000000000e+00
8.500000000000000e-01 2.125000000000000e-01 0.000000000000000e+00
8.750000000000000e-01 2.125000000000000e-01 0.000000000000000e+00
8.750000000000000e-01 2.250000000000000e-01 0.000000000000000e+00
8.500000000000000e-01 2.250000000000000e-01 0.000000000000000e+00
8.750000000000000e-01 2.125000000000000e-01 0.000000000000000e+00
9.000000000000000e-01 2.125000000000000e-01 0.000000000000000e+00
9.000000000000000e-01 2.250000000000000e-01 0.000000000000000e+00
8.750000000000000e-01 2.250000000000000e-01 0.000000000000000e+00
9.000000000000000e-01 2.125000000000000e-01 0.000000000000000e+00
9.250000000000000e-01 2.125000000000000e-01 0.000000000000000e+00
9.250000000000000e-01 2.250000000000000e-01 0.000000000000000e+00
9.000000000000000e-01 2.250000000000000e-01 0.000000000000000e+00
9.250000000000000e-01 2.125000000000000e-01 0.000000000000000e+00
9.500000000000000e-01 2.125000000000000e-01 0.000000000000000e+00
9.500000000000000e-01 2.250000000000000e-01 0.000000000000000e+00
9.250000000000000e-01 2.250000000000000e-01 0.000000000000000e+00
9.500000000000000e-01 2.125000000000000e-01 0.000000000000000e+00
9.750000000000000e-01 2.125000000000000e-01 0.000000000000000e+00
9.750000000000000e-01 2.250000000000000e-01 0.000000000000000e+00
9.500000000000000e-01 2.250000000000000e-01 0.000000000000000e+00
9.750000000000000e-01 2.125000000000000e-01 0.000000000000000e+00
1.000000000000000e+00 2.125000000000000e-01 0.000000000000000e+00
1.000000000000000e+00 2.250000000000000e-01 0.000000000000000e+00
9.750000000000000e-01 2.250000000000000e-01 0.000000000000000e+00
0.000000000000000e+00 2.250000000000000e-01 0.000000000000000e+00
2.500000000000000e-02 2.250000000000000e-01 0.000000000000000e+00
2.500000000000000e-02 2.375000000000000e-01 0.000000000000000e+00
0.000000000000000e+00 2.375000000000000e-01 0.000000000000000e+00
2.500000000000000e-02 2.250000000000000e-01 0.000000000000000e+00
5.000000000000000e-02 2.250000000000000e-01 0.000000000000000e+00
5.000000000000000e-02 2.375000000000000e-01 0.000000000000000e+00
2.500000000000000e-02 2.375000000000000e-01 0.000000000000000e+00
5.000000000000000e-02 2.250000000000000e-01 0.000000000000000e+00
7.500000000000000e-02 2.250000000000000e-01 0.000000000000000e+00
7.500000000000000e-02 2.375000000000000e-01 0.000000000000000e+00
5.000000000000000e-02 2.375000000000000e-01 0.000000000000000e+00
7.500000000000000e-02 2.250000000000000e-01 0.000000000000000e+00
1.000000000000000e-01 2.250000000000000e-01 0.000000000000000e+00
1.000000000000000e-01 2.375000000000000e-01 0.000000000000000e+00
7.500000000000000e-02 2.375000000000000e-01 0.000000000000000e+00
1.000000000000000e-01 2.250000000000000e-01 0.000000000000000e+00
1.250000000000000e-01 2.250000000000000e-01 0.000000000000000e+00
1.250000000000000e-01 2.375000000000000e-01 0.000000000000000e+00
1.000000000000000e-01 2.375000000000000e-01 0.000000000000000e+00
1.250000000000000e-01 2.250000000000000e-01 0.000000000000000e+00
1.500000000000000e-01 2.250000000000000e-01 0.000000000000000e+00
1.500000000000000e-01 2.375000000000000e-01 0.000000000000000e+00
1.250000000000000e-01 2.375000000000000e-01 0.000000000000000e+00
1.500000000000000e-01 2.250000000000000e-01 0.000000000000000e+00
1.750000000000000e-01 2.250000000000000e-01 0.000000000000000e+00
1.750000000000000e-01 2.375000000000000e-01 0.000000000000000e+00
1.500000000000000e-01 2.375000000000000e-01 0.000000000000000e+00
1.750000000000000e-01 2.250000000000000e-01 0.000000000000000e+00
2.000000000000000e-01 2.250000000000000e-01 0.000000000000000e+00
2.000000000000000e-01 2.375000000000000e-01 0.000000000000000e+00
1.750000000000000e-01 2.375000000000000e-01 0.000000000000000e+00
2.000000000000000e-01 2.250000000000000e-01 0.000000000000000e+00
2.250000000000000e-01 2.250000000000000e-01 0.000000000000000e+00
2.250000000000000e-01 2.375000000000000e-01 0.000000000000000e+00
2.000000000000000e-01 2.375000000000000e-01 0.000000000000000e+00
2.250000000000000e-01 2.250000000000000e-01 0.000000000000000e+00
2.500000000000000e-01 2.250000000000000e-01 0.000000000000000e+00
2.500000000000000e-01 2.375000000000000e-01 0.000000000000000e+00
2.250000000000000e-01 2.375000000000000e-01 0.000000000000000e+00
2.500000000000000e-01 2.250000000000000e-01 0.000000000000000e+00
2.750000000000000e-01 2.250000000000000e-01 0.000000000000000e+00
2.750000000000000e-01 2.375000000000000e-01 0.000000000000000e+00
2.500000000000000e-01 2.375000000000000e-01 0.000000000000000e+00
2.750000000000000e-01 2.250000000000000e-01 0.000000000000000e+00
3.000000000000000e-01 2.250000000000000e-01 0.000000000000000e+00
3.000000000000000e-01 2.375000000000000e-01 0.000000000000000e+00
2.750000000000000e-01 2.375000000000000e-01 0.000000000000000e+00
3.000000000000000e-01 2.250000000000000e-01 0.000000000000000e+00
3.250000000000000e-01 2.250000000000000e-01 0.000000000000000e+00
3.250000000000000e-01 2.375000000000000e-01 0.000000000000000e+00
3.000000000000000e-01 2.375000000000000e-01 0.000000000000000e+00
3.250000000000000e-01 2.250000000000000e-01 0.000000000000000e+00
3.500000000000000e-01 2.250000000000000e-01 0.000000000000000e+00
3.500000000000000e-01 2.375000000000000e-01 0.000000000000000e+00
3.250000000000000e-01 2.375000000000000e-01 0.000000000000000e+00
3.500000000000000e-01 2.250000000000000e-01 0.000000000000000e+00
3.750000000000000e-01 2.250000000000000e-01 0.000000000000000e+00
3.750000000000000e-01 2.375000000000000e-01 0.000000000000000e+00
3.500000000000000e-01 2.375000000000000e-01 0.000000000000000e+00
3.750000000000000e-01 2.250000000000000e-01 0.000000000000000e+00
4.000000000000000e-01 2.250000000000000e-01 0.000000000000000e+00
4.000000000000000e-01 2.375000000000000e-01 0.000000000000000e+00
3.750000000000000e-01 2.375000000000000e-01 0.000000000000000e+00
4.000000000000000e-01 2.250000000000000e-01 0.000000000000000e+00
4.250000000000000e-01 2.250000000000000e-01 0.000000000000000e+00
4.250000000000000e-01 2.375000000000000e-01 0.000000000000000e+00
4.000000000000000e-01 2.375000000000000e-01 0.000000000000000e+00
4.250000000000000e-01 2.250000000000000e-01 0.000000000000000e+00
4.500000000000000e-01 2.250000000000000e-01 0.000000000000000e+00
4.500000000000000e-01 2.375000000000000e-01 0.000000000000000e+00
4.250000000000000e-01 2.375000000000000e-01 0.000000000000000e+00
4.500000000000000e-01 2.250000000000000e-01 0.000000000000000e+00
4.750000000000000e-01 2.250000000000000e-01 0.000000000000000e+00
4.750000000000000e-01 2.375000000000000e-01 0.000000000000000e+00
4.500000000000000e-01 2.375000000000000e-01 0.000000000000000e+00
4.750000000000000e-01 2.250000000000000e-01 0.000000000000000e+00
5.000000000000000e-01 2.250000000000000e-01 0.000000000000000e+00
5.000000000000000e-01 2.375000000000000e-01 0.000000000000000e+00
4.750000000000000e-01 2.375000000000000e-01 0.000000000000000e+00
5.000000000000000e-01 2.250000000000000e-01 0.000000000000000e+00
5.250000000000000e-01 2.250000000000000e-01 0.000000000000000e+00
5.250000000000000e-01 2.375000000000000e-01 0.000000000000000e+00
5.000000000000000e-01 2.375000000000000e-01 0.000000000000000e+00
5.250000000000000e-01 2.250000000000000e-01 0.000000000000000e+00
5.500000000000000e-01 2.250000000000000e-01 0.000000000000000e+00
5.500000000000000e-01 2.375000000000000e-01 0.000000000000000e+00
5.250000000000000e-01 2.375000000000000e-01 0.000000000000000e+00
5.500000000000000e-01 2.250000000000000e-01 0.000000000000000e+00
5.750000000000000e-01 2.250000000000000e-01 0.000000000000000e+00
5.750000000000000e-01 2.375000000000000e-01 0.000000000000000e+00
5.500000000000000e-01 2.375000000000000e-01 0.000000000000000e+00
5.750000000000000e-01 2.250000000000000e-01 0.000000000000000e+00
6.000000000000000e-01 2.250000000000000e-01 0.000000000000000e+00
6.000000000000000e-01 2.375000000000000e-01 0.000000000000000e+00
5.750000000000000e-01 2.375000000000000e-01 0.000000000000000e+00
6.000000000000000e-01 2.250000000000000e-01 0.000000000000000e+00
6.250000000000000e-01 2.250000000000000e-01 0.000000000000000e+00
6.250000000000000e-01 2.375000000000000e-01 0.000000000000000e+00
6.000000000000000e-01 2.375000000000000e-01 0.000000000000000e+00
6.250000000000000e-01 2.250000000000000e-01 0.000000000000000e+00
6.500000000000000e-01 2.250000000000000e-01 0.000000000000000e+00
6.500000000000000e-01 2.375000000000000e-01 0.000000000000000e+00
6.250000000000000e-01 2.375000000000000e-01 0.000000000000000e+00
6.500000000000000e-01 2.250000000000000e-01 0.000000000000000e+00
6.750000000000000e-01 2.250000000000000e-01 0.000000000000000e+00
6.750000000000000e-01 2.375000000000000e-01 0.000000000000000e+00
6.500000000000000e-01 2.375000000000000e-01 0.000000000000000e+00
6.750000000000000e-01 2.250000000000000e-01 0.000000000000000e+00
7.000000000000000e-01 2.250000000000000e-01 0.000000000000000e+00
7.000000000000000e-01 2.375000000000000e-01 0.000000000000000e+00
6.750000000000000e-01 2.375000000000000e-01 0.000000000000000e+00
7.000000000000000e-01 2.250000000000000e-01 0.000000000000000e+00
7.250000000000000e-01 2.250000000000000e-01 0.000000000000000e+00
7.250000000000000e-01 2.375000000000000e-01 0.000000000000000e+00
7.000000000000000e-01 2.375000000000000e-01 0.000000000000000e+00
7.250000000000000e-01 2.250000000000000e-01 0.000000000000000e+00
7.500000000000000e-01 2.250000000000000e-01 0.000000000000000e+00
7.500000000000000e-01 2.375000000000000e-01 0.000000000000000e+00
7.250000000000000e-01 2.375000000000000e-01 0.000000000000000e+00
7.500000000000000e-01 2.250000000000000e-01 0.000000000000000e+00
7.750000000000000e-01 2.250000000000000e-01 0.000000000000000e+00
7.750000000000000e-01 2.375000000000000e-01 0.000000000000000e+00
7.500000000000000e-01 2.375000000000000e-01 0.000000000000000e+00
7.750000000000000e-01 2.250000000000000e-01 0.000000000000000e+00
8.000000000000000e-01 2.250000000000000e-01 0.000000000000000e+00
8.000000000000000e-01 2.375000000000000e-01 0.000000000000000e+00
7.750000000000000e-01 2.375000000000000e-01 0.000000000000000e+00
8.000000000000000e-01 2.250000000000000e-01 0.000000000000000e+00
8.250000000000000e-01 2.250000000000000e-01 0.000000000000000e+00
8.250000000000000e-01 2.375000000000000e-01 0.000000000000000e+00
8.000000000000000e-01 2.375000000000000e-01 0.000000000000000e+00
8.250000000000000e-01 2.250000000000000e-01 0.000000000000000e+00
8.500000000000000e-01 2.250000000000000e-01 0.000000000000000e+00
8.500000000000000e-01 2.375000000000000e-01 0.000000000000000e+00
8.250000000000000e-01 2.375000000000000e-01 0.000000000000000e+00
8.500000000000000e-01 2.250000000000000e-01 0.000000000000000e+00
8.750000000000000e-01 2.250000000000000e-01 0.000000000000000e+00
8.750000000000000e-01 2.375000000000000e-01 0.000000000000000e+00
8.500000000000000e-01 2.375000000000000e-01 0.000000000000000e+00
8.750000000000000e-01 2.250000000000000e-01 0.000000000000000e+00
9.000000000000000e-01 2.250000000000000e-01 0.000000000000000e+00
9.000000000000000e-01 2.375000000000000e-01 0.000000000000000e+00
8.750000000000000e-01 2.375000000000000e-01 0.000000000000000e+00
9.000000000000000e-01 2.250000000000000e-01 0.000000000000000e+00
9.250000000000000e-01 2.250000000000000e-01 0.000000000000000e+00
9.250000000000000e-01 2.375000000000000e-01 0.000000000000000e+00
9.000000000000000e-01 2.375000000000000e-01 0.000000000000000e+00
9.250000000000000e-01 2.250000000000000e-01 0.000000000000000e+00
9.500000000000000e-01 2.250000000000000e-01 0.000000000000000e+00
9.500000000000000e-01 2.375000000000000e-01 0.000000000000000e+00
9.250000000000000e-01 2.375000000000000e-01 0.000000000000000e+00
9.500000000000000e-01 2.250000000000000e-01 0.000000000000000e+00
9.750000000000000e-01 2.250000000000000e-01 0.000000000000000e+00
9.750000000000000e-01 2.375000000000000e-01 0.000000000000000e+00
9.500000000000000e-01 2.375000000000000e-01 0.000000000000000e+00
9.750000000000000e-01 2.250000000000000e-01 0.000000000000000e+00
1.000000000000000e+00 2.250000000000000e-01 0.000000000000000e+00
1.000000000000000e+00 2.375000000000000e-01 0.000000000000000e+00
9.750000000000000e-01 2.375000000000000e-01 0.000000000000000e+00
0.000000000000000e+00 2.375000000000000e-01 0.000000000000000e+00
2.500000000000000e-02 2.375000000000000e-01 0.000000000000000e+00
2.500000000000000e-02 2.500000000000000e-01 0.000000000000000e+00
0.000000000000000e+00 2.500000000000000e-01 0.000000000000000e+00
2.500000000000000e-02 2.375000000000000e-01 0.000000000000000e+00
5.000000000000000e-02 2.375000000000000e-01 0.000000000000000e+00
5.000000000000000e-02 2.500000000000000e-01 0.000000000000000e+00
2.500000000000000e-02 2.500000000000000e-01 0.000000000000000e+00
5.000000000000000e-02 2.375000000000000e-01 0.000000000000000e+00
7.500000000000000e-02 2.375000000000000e-01 0.000000000000000e+00
7.500000000000000e-02 2.500000000000000e-01 0.000000000000000e+00
5.000000000000000e-02 2.500000000000000e-01 0.000000000000000e+00
7.500000000000000e-02 2.375000000000000e-01 0.000000000000000e+00
1.000000000000000e-01 2.375000000000000e-01 0.000000000000000e+00
1.000000000000000e-01 2.500000000000000e-01 0.000000000000000e+00
7.500000000000000e-02 2.500000000000000e-01 0.000000000000000e+00
1.000000000000000e-01 2.375000000000000e-01 0.000000000000000e+00
1.250000000000000e-01 2.375000000000000e-01 0.000000000000000e+00
1.250000000000000e-01 2.500000000000000e-01 0.000000000000000e+00
1.000000000000000e-01 2.500000000000000e-01 0.000000000000000e+00
1.250000000000000e-01 2.375000000000000e-01 0.000000000000000e+00
1.500000000000000e-01 2.375000000000000e-01 0.000000000000000e+00
1.500000000000000e-01 2.500000000000000e-01 0.000000000000000e+00
1.250000000000000e-01 2.500000000000000e-01 0.000000000000000e+00
1.500000000000000e-01 2.375000000000000e-01 0.000000000000000e+00
1.750000000000000e-01 2.375000000000000e-01 0.000000000000000e+00
1.750000000000000e-01 2.500000000000000e-01 0.000000000000000e+00
1.500000000000000e-01 2.500000000000000e-01 0.000000000000000e+00
1.750000000000000e-01 2.375000000000000e-01 0.000000000000000e+00
2.000000000000000e-01 2.375000000000000e-01 0.000000000000000e+00
2.000000000000000e-01 2.500000000000000e-01 0.000000000000000e+00
1.750000000000000e-01 2.500000000000000e-01 0.000000000000000e+00
2.000000000000000e-01 2.375000000000000e-01 0.000000000000000e+00
2.250000000000000e-01 2.375000000000000e-01 0.000000000000000e+00
2.250000000000000e-01 2.500000000000000e-01 0.000000000000000e+00
2.000000000000000e-01 2.500000000000000e-01 0.000000000000000e+00
2.250000000000000e-01 2.375000000000000e-01 0.000000000000000e+00
2.500000000000000e-01 2.375000000000000e-01 0.000000000000000e+00
2.500000000000000e-01 2.500000000000000e-01 0.000000000000000e+00
2.250000000000000e-01 2.500000000000000e-01 0.000000000000000e+00
2.500000000000000e-01 2.375000000000000e-01 0.000000000000000e+00
2.750000000000000e-01 2.375000000000000e-01 0.000000000000000e+00
2.750000000000000e-01 2.500000000000000e-01 0.000000000000000e+00
2.500000000000000e-01 2.500000000000000e-01 0.000000000000000e+00
2.750000000000000e-01 2.375000000000000e-01 0.000000000000000e+00
3.000000000000000e-01 2.375000000000000e-01 0.000000000000000e+00
3.000000000000000e-01 2.500000000000000e-01 0.000000000000000e+00
2.750000000000000e-01 2.500000000000000e-01 0.000000000000000e+00
3.000000000000000e-01 2.375000000000000e-01 0.000000000000000e+00
3.250000000000000e-01 2.375000000000000e-01 0.000000000000000e+00
3.250000000000000e-01 2.500000000000000e-01 0.000000000000000e+00
3.000000000000000e-01 2.500000000000000e-01 0.000000000000000e+00
3.250000000000000e-01 2.375000000000000e-01 0.000000000000000e+00
3.500000000000000e-01 2.375000000000000e-01 0.000000000000000e+00
3.500000000000000e-01 2.500000000000000e-01 0.000000000000000e+00
3.250000000000000e-01 2.500000000000000e-01 0.000000000000000e+00
3.500000000000000e-01 2.375000000000000e-01 0.000000000000000e+00
3.750000000000000e-01 2.375000000000000e-01 0.000000000000000e+00
3.750000000000000e-01 2.500000000000000e-01 0.000000000000000e+00
3.500000000000000e-01 2.500000000000000e-01 0.000000000000000e+00
3.750000000000000e-01 2.375000000000000e-01 0.000000000000000e+00
4.000000000000000e-01 2.375000000000000e-01 0.000000000000000e+00
4.000000000000000e-01 2.500000000000000e-01 0.000000000000000e+00
3.750000000000000e-01 2.500000000000000e-01 0.000000000000000e+00
4.000000000000000e-01 2.375000000000000e-01 0.000000000000000e+00
4.250000000000000e-01 2.375000000000000e-01 0.000000000000000e+00
4.250000000000000e-01 2.500000000000000e-01 0.000000000000000e+00
4.000000000000000e-01 2.500000000000000e-01 0.000000000000000e+00
4.250000000000000e-01 2.375000000000000e-01 0.000000000000000e+00
4.500000000000000e-01 2.375000000000000e-01 0.000000000000000e+00
4.500000000000000e-01 2.500000000000000e-01 0.000000000000000e+00
4.250000000000000e-01 2.500000000000000e-01 0.000000000000000e+00
4.500000000000000e-01 2.375000000000000e-01 0.000000000000000e+00
4.750000000000000e-01 2.375000000000000e-01 0.000000000000000e+00
4.750000000000000e-01 2.500000000000000e-01 0.000000000000000e+00
4.500000000000000e-01 2.500000000000000e-01 0.000000000000000e+00
4.750000000000000e-01 2.375000000000000e-01 0.000000000000000e+00
5.000000000000000e-01 2.375000000000000e-01 0.000000000000000e+00
5.000000000000000e-01 2.500000000000000e-01 0.000000000000000e+00
4.750000000000000e-01 2.500000000000000e-01 0.000000000000000e+00
5.000000000000000e-01 2.375000000000000e-01 0.000000000000000e+00
5.250000000000000e-01 2.375000000000000e-01 0.000000000000000e+00
5.250000000000000e-01 2.500000000000000e-01 0.000000000000000e+00
5.000000000000000e-01 2.500000000000000e-01 0.000000000000000e+00
5.250000000000000e-01 2.375000000000000e-01 0.000000000000000e+00
5.500000000000000e-01 2.375000000000000e-01 0.000000000000000e+00
5.500000000000000e-01 2.500000000000000e-01 0.000000000000000e+00
5.250000000000000e-01 2.500000000000000e-01 0.000000000000000e+00
5.500000000000000e-01 2.375000000000000e-01 0.000000000000000e+00
5.750000000000000e-01 2.375000000000000e-01 0.000000000000000e+00
5.750000000000000e-01 2.500000000000000e-01 0.000000000000000e+00
5.500000000000000e-01 2.500000000000000e-01 0.000000000000000e+00
5.750000000000000e-01 2.375000000000000e-01 0.000000000000000e+00
6.000000000000000e-01 2.375000000000000e-01 0.000000000000000e+00
6.000000000000000e-01 2.500000000000000e-01 0.000000000000000e+00
5.750000000000000e-01 2.500000000000000e-01 0.000000000000000e+00
6.000000000000000e-01 2.375000000000000e-01 0.000000000000000e+00
6.250000000000000e-01 2.375000000000000e-01 0.000000000000000e+00
6.250000000000000e-01 2.500000000000000e-01 0.000000000000000e+00
6.000000000000000e-01 2.500000000000000e-01 0.000000000000000e+00
6.250000000000000e-01 2.375000000000000e-01 0.000000000000000e+00
6.500000000000000e-01 2.375000000000000e-01 0.000000000000000e+00
6.500000000000000e-01 2.500000000000000e-01 0.000000000000000e+00
6.250000000000000e-01 2.500000000000000e-01 0.000000000000000e+00
6.500000000000000e-01 2.375000000000000e-01 0.000000000000000e+00
6.750000000000000e-01 2.375000000000000e-01 0.000000000000000e+00
6.750000000000000e-01 2.500000000000000e-01 0.000000000000000e+00
6.500000000000000e-01 2.500000000000000e-01 0.000000000000000e+00
6.750000000000000e-01 2.375000000000000e-01 0.000000000000000e+00
7.000000000000000e-01 2.375000000000000e-01 0.000000000000000e+00
7.000000000000000e-01 2.500000000000000e-01 0.000000000000000e+00
6.750000000000000e-01 2.500000000000000e-01 0.000000000000000e+00
7.000000000000000e-01 2.375000000000000e-01 0.000000000000000e+00
7.250000000000000e-01 2.375000000000000e-01 0.000000000000000e+00
7.250000000000000e-01 2.500000000000000e-01 0.000000000000000e+00
7.000000000000000e-01 2.500000000000000e-01 0.000000000000000e+00
7.250000000000000e-01 2.375000000000000e-01 0.000000000000000e+00
7.500000000000000e-01 2.375000000000000e-01 0.000000000000000e+00
7.500000000000000e-01 2.500000000000000e-01 0.000000000000000e+00
7.250000000000000e-01 2.500000000000000e-01 0.000000000000000e+00
7.500000000000000e-01 2.375000000000000e-01 0.000000000000000e+00
7.750000000000000e-01 2.375000000000000e-01 0.000000000000000e+00
7.750000000000000e-01 2.500000000000000e-01 0.000000000000000e+00
7.500000000000000e-01 2.500000000000000e-01 0.000000000000000e+00
7.750000000000000e-01 2.375000000000000e-01 0.000000000000000e+00
8.000000000000000e-01 2.375000000000000e-01 0.000000000000000e+00
8.000000000000000e-01 2.500000000000000e-01 0.000000000000000e+00
7.750000000000000e-01 2.500000000000000e-01 0.000000000000000e+00
8.000000000000000e-01 2.375000000000000e-01 0.000000000000000e+00
8.250000000000000e-01 2.375000000000000e-01 0.000000000000000e+00
8.250000000000000e-01 2.500000000000000e-01 0.000000000000000e+00
8.000000000000000e-01 2.500000000000000e-01 0.000000000000000e+00
8.250000000000000e-01 2.375000000000000e-01 0.000000000000000e+00
8.500000000000000e-01 2.375000000000000e-01 0.000000000000000e+00
8.500000000000000e-01 2.500000000000000e-01 0.000000000000000e+00
8.250000000000000e-01 2.500000000000000e-01 0.000000000000000e+00
8.500000000000000e-01 2.375000000000000e-01 0.000000000000000e+00
8.750000000000000e-01 2.375000000000000e-01 0.000000000000000e+00
8.750000000000000e-01 2.500000000000000e-01 0.000000000000000e+00
8.500000000000000e-01 2.500000000000000e-01 0.000000000000000e+00
8.750000000000000e-01 2.375000000000000e-01 0.000000000000000e+00
9.000000000000000e-01 2.375000000000000e-01 0.000000000000000e+00
9.000000000000000e-01 2.500000000000000e-01 0.000000000000000e+00
8.750000000000000e-01 2.500000000000000e-01 0.000000000000000e+00
9.000000000000000e-01 2.375000000000000e-01 0.000000000000000e+00
9.250000000000000e-01 2.375000000000000e-01 0.000000000000000e+00
9.250000000000000e-01 2.500000000000000e-01 0.000000000000000e+00
9.000000000000000e-01 2.500000000000000e-01 0.000000000000000e+00
9.250000000000000e-01 2.375000000000000e-01 0.000000000000000e+00
9.500000000000000e-01 2.375000000000000e-01 0.000000000000000e+00
9.500000000000000e-01 2.500000000000000e-01 0.000000000000000e+00
9.250000000000000e-01 2.500000000000000e-01 0.000000000000000e+00
9.500000000000000e-01 2.375000000000000e-01 0.000000000000000e+00
9.750000000000000e-01 2.375000000000000e-01 0.000000000000000e+00
9.750000000000000e-01 2.500000000000000e-01 0.000000000000000e+00
9.500000000000000e-01 2.500000000000000e-01 0.000000000000000e+00
9.750000000000000e-01 2.375000000000000e-01 0.000000000000000e+00
1.000000000000000e+00 2.375000000000000e-01 0.000000000000000e+00
1.000000000000000e+00 2.500000000000000e-01 0.000000000000000e+00
9.750000000000000e-01 2.500000000000000e-01 0.000000000000000e+00
        </DataArray>
      </Points>

      <Cells>
        <DataArray type="Int32" Name="connectivity" format="ascii">
0 1 2 3 4 5 6 7 8 9 10 11 12 13 14 15 16 17 18 19 20 21 22 23 24 25 26 27 28 29 30 31 32 33 34 35 36 37 38 39 40 41 42 43 44 45 46 47 48 49 50 51 52 53 54 55 56 57 58 59 60 61 62 63 64 65 66 67 68 69 70 71 72 73 74 75 76 77 78 79 80 81 82 83 84 85 86 87 88 89 90 91 92 93 94 95 96 97 98 99 100 101 102 103 104 105 106 107 108 109 110 111 112 113 114 115 116 117 118 119 120 121 122 123 124 125 126 127 128 129 130 131 132 133 134 135 136 137 138 139 140 141 142 143 144 145 146 147 148 149 150 151 152 153 154 155 156 157 158 159 160 161 162 163 164 165 166 167 168 169 170 171 172 173 174 175 176 177 178 179 180 181 182 183 184 185 186 187 188 189 190 191 192 193 194 195 196 197 198 199 200 201 202 203 204 205 206 207 208 209 210 211 212 213 214 215 216 217 218 219 220 221 222 223 224 225 226 227 228 229 230 231 232 233 234 235 236 237 238 239 240 241 242 243 244 245 246 247 248 249 250 251 252 253 254 255 256 257 258 259 260 261 262 263 264 265 266 267 268 269 270 271 272 273 274 275 276 277 278 279 280 281 282 283 284 285 286 287 288 289 290 291 292 293 294 295 296 297 298 299 300 301 302 303 304 305 306 307 308 309 310 311 312 313 314 315 316 317 318 319 320 321 322 323 324 325 326 327 328 329 330 331 332 333 334 335 336 337 338 339 340 341 342 343 344 345 346 347 348 349 350 351 352 353 354 355 356 357 358 359 360 361 362 363 364 365 366 367 368 369 370 371 372 373 374 375 376 377 378 379 380 381 382 383 384 385 386 387 388 389 390 391 392 393 394 395 396 397 398 399 400 401 402 403 404 405 406 407 408 409 410 411 412 413 414 415 416 417 418 419 420 421 422 423 424 425 426 427 428 429 430 431 432 433 434 435 436 437 438 439 440 441 442 443 444 445 446 447 448 449 450 451 452 453 454 455 456 457 458 459 460 461 462 463 464 465 466 467 468 469 470 471 472 473 474 475 476 477 478 479 480 481 482 483 484 485 486 487 488 489 490 491 492 493 494 495 496 497 498 499 500 501 502 503 504 505 506 507 508 509 510 511 512 513 514 515 516 517 518 519 520 521 522 523 524 525 526 527 528 529 530 531 532 533 534 535 536 537 538 539 540 541 542 543 544 545 546 547 548 549 550 551 552 553 554 555 556 557 558 559 560 561 562 563 564 565 566 567 568 569 570 571 572 573 574 575 576 577 578 579 580 581 582 583 584 585 586 587 588 589 590 591 592 593 594 595 596 597 598 599 600 601 602 603 604 605 606 607 608 609 610 611 612 613 614 615 616 617 618 619 620 621 622 623 624 625 626 627 628 629 630 631 632 633 634 635 636 637 638 639 
        </DataArray>
        <DataArray type="Int32" Name="offsets" format="ascii">
4 8 12 16 20 24 28 32 36 40 44 48 52 56 60 64 68 72 76 80 84 88 92 96 100 104 108 112 116 120 124 128 132 136 140 144 148 152 156 160 164 168 172 176 180 184 188 192 196 200 204 208 212 216 220 224 228 232 236 240 244 248 252 256 260 264 268 272 276 280 284 288 292 296 300 304 308 312 316 320 324 328 332 336 340 344 348 352 356 360 364 368 372 376 380 384 388 392 396 400 404 408 412 416 420 424 428 432 436 440 444 448 452 456 460 464 468 472 476 480 484 488 492 496 500 504 508 512 516 520 524 528 532 536 540 544 548 552 556 560 564 568 572 576 580 584 588 592 596 600 604 608 612 616 620 624 628 632 636 640 
        </DataArray>
        <DataArray type="UInt8" Name="types" format="ascii">
9 9 9 9 9 9 9 9 9 9 9 9 9 9 9 9 9 9 9 9 9 9 9 9 9 9 9 9 9 9 9 9 9 9 9 9 9 9 9 9 9 9 9 9 9 9 9 9 9 9 9 9 9 9 9 9 9 9 9 9 9 9 9 9 9 9 9 9 9 9 9 9 9 9 9 9 9 9 9 9 9 9 9 9 9 9 9 9 9 9 9 9 9 9 9 9 9 9 9 9 9 9 9 9 9 9 9 9 9 9 9 9 9 9 9 9 9 9 9 9 9 9 9 9 9 9 9 9 9 9 9 9 9 9 9 9 9 9 9 9 9 9 9 9 9 9 9 9 9 9 9 9 9 9 9 9 9 9 9 9 
        </DataArray>
      </Cells>

  <PointData>
        <DataArray type="Float64" Name="displacement" NumberOfComponents="2" format="ascii">
0.000000000000000e+00 0.000000000000000e+00
2.002428560143778e-04 1.709297698484926e-04
9.111974947432152e-05 1.331166225338109e-04
0.000000000000000e+00 0.000000000000000e+00
2.002428560143778e-04 1.709297698484926e-04
3.711659867020750e-04 4.800380466969124e-04
1.829061414987781e-04 4.553188923040533e-04
9.111974947432152e-05 1.331166225338109e-04
3.711659867020750e-04 4.800380466969124e-04
5.090584904334393e-04 9.455083698363246e-04
2.525443464966669e-04 9.249256362995941e-04
1.829061414987781e-04 4.553188923040533e-04
5.090584904334393e-04 9.455083698363246e-04
6.154777414435946e-04 1.528179431858316e-03
3.070400660391318e-04 1.512668478960027e-03
2.525443464966669e-04 9.249256362995941e-04
6.154777414435946e-04 1.528179431858316e-03
6.930421991041302e-04 2.198911050641329e-03
3.470607180190555e-04 2.187803228655860e-03
3.070400660391318e-04 1.512668478960027e-03
6.930421991041302e-04 2.198911050641329e-03
7.443486169318572e-04 2.930176209116225e-03
3.738656362300791e-04 2.923134891766617e-03
3.470607180190555e-04 2.187803228655860e-03
7.443486169318572e-04 2.930176209116225e-03
7.717971898284873e-04 3.697116653282823e-03
3.886882570409616e-04 3.693740771195140e-03
3.738656362300791e-04 2.923134891766617e-03
7.717971898284873e-04 3.697116653282823e-03
7.777514924587163e-04 4.477208841896009e-03
3.927027994253425e-04 4.477129908483339e-03
3.886882570409616e-04 3.693740771195140e-03
7.777514924587163e-04 4.477208841896009e-03
7.644880484786520e-04 5.250260360276711e-03
3.870497677273905e-04 5.253116852811439e-03
3.927027994253425e-04 4.477129908483339e-03
7.644880484786520e-04 5.250260360276711e-03
7.342118675650848e-04 5.998315294255317e-03
3.728313400794418e-04 6.003758844006460e-03
3.870497677273905e-04 5.253116852811439e-03
7.342118675650848e-04 5.998315294255317e-03
6.890534200179635e-04 6.705585804832101e-03
3.511127006920755e-04 6.713279558163682e-03
3.728313400794418e-04 6.003758844006460e-03
6.890534200179635e-04 6.705585804832101e-03
6.310705084388967e-04 7.358378212454916e-03
3.229225905659466e-04 7.367997002158515e-03
3.511127006920755e-04 6.713279558163682e-03
6.310705084388967e-04 7.358378212454916e-03
5.622506039385823e-04 7.945022647601838e-03
2.892540993951175e-04 7.956252574556262e-03
3.229225905659466e-04 7.367997002158515e-03
5.622506039385823e-04 7.945022647601838e-03
4.845114085153596e-04 8.455802885250057e-03
2.510653330218419e-04 8.468341250737301e-03
2.892540993951175e-04 7.956252574556262e-03
4.845114085153596e-04 8.455802885250057e-03
3.997017700345028e-04 8.882887310538771e-03
2.092796611404836e-04 8.896442487259137e-03
2.510653330218419e-04 8.468341250737301e-03
3.997017700345028e-04 8.882887310538771e-03
3.096011284506972e-04 9.220259850961110e-03
1.647859900370011e-04 9.234551312482450e-03
2.092796611404836e-04 8.896442487259137e-03
3.096011284506972e-04 9.220259850961110e-03
2.159207969894705e-04 9.463651969672346e-03
1.184392060817268e-04 9.478410082671970e-03
1.647859900370011e-04 9.234551312482450e-03
2.159207969894705e-04 9.463651969672346e-03
1.203061354677467e-04 9.610476025218232e-03
7.106073203983516e-05 9.625441797067952e-03
1.184392060817268e-04 9.478410082671970e-03
1.203061354677467e-04 9.610476025218232e-03
2.433570312397635e-05 9.659758212971289e-03
2.343878959519752e-05 9.674683402444007e-03
7.106073203983516e-05 9.625441797067952e-03
2.433570312397635e-05 9.659758212971289e-03
-7.047840794504401e-05 9.612072094815195e-03
-2.367176166577986e-05 9.626719166828007e-03
2.343878959519752e-05 9.674683402444007e-03
-7.047840794504401e-05 9.612072094815195e-03
-1.626914339870600e-04 9.469471566420820e-03
-6.954943268145240e-05 9.483613814411760e-03
-2.367176166577986e-05 9.626719166828007e-03
-1.626914339870600e-04 9.469471566420820e-03
-2.509252462047937e-04 9.235424464669828e-03
-1.135059716723753e-04 9.248845874591212e-03
-6.954943268145240e-05 9.483613814411760e-03
-2.509252462047937e-04 9.235424464669828e-03
-3.338671634196544e-04 8.914746560187215e-03
-1.548861645296557e-04 8.927241698331714e-03
-1.135059716723753e-04 9.248845874591212e-03
-3.338671634196544e-04 8.914746560187215e-03
-4.102712991296269e-04 8.513534658473126e-03
-1.930679274377413e-04 8.524908872686124e-03
-1.548861645296557e-04 8.927241698331714e-03
-4.102712991296269e-04 8.513534658473126e-03
-4.789588248545150e-04 8.039099743872069e-03
-2.274626876017962e-04 8.049169198150161e-03
-1.930679274377413e-04 8.524908872686124e-03
-4.789588248545150e-04 8.039099743872069e-03
-5.388188127769560e-04 7.499899304666219e-03
-2.575156256456102e-04 7.508491147252831e-03
-2.274626876017962e-04 8.049169198150161e-03
-5.388188127769560e-04 7.499899304666219e-03
-5.888083280017071e-04 6.905469744132001e-03
-2.827058508662520e-04 6.912422075507873e-03
-2.575156256456102e-04 7.508491147252831e-03
-5.888083280017071e-04 6.905469744132001e-03
-6.279524229043962e-04 6.266358190730976e-03
-3.025465647968187e-04 6.271520103099689e-03
-2.827058508662520e-04 6.912422075507873e-03
-6.279524229043962e-04 6.266358190730976e-03
-6.553454583001568e-04 5.594053292741395e-03
-3.165854255409764e-04 5.597285082746052e-03
-3.025465647968187e-04 6.271520103099689e-03
-6.553454583001568e-04 5.594053292741395e-03
-6.701518547773737e-04 4.900915520114613e-03
-3.244050296827221e-04 4.902088817672485e-03
-3.165854255409764e-04 5.597285082746052e-03
-6.701518547773737e-04 4.900915520114613e-03
-6.716068255273881e-04 4.200106696919443e-03
-3.256233141589793e-04 4.199104570400374e-03
-3.244050296827221e-04 4.902088817672485e-03
-6.716068255273881e-04 4.200106696919443e-03
-6.590171623358768e-04 3.505518788936804e-03
-3.198939371434705e-04 3.502236036831831e-03
-3.256233141589793e-04 4.199104570400374e-03
-6.590171623358768e-04 3.505518788936804e-03
-6.317617533806425e-04 2.831702400070976e-03
-3.069067712064810e-04 2.826044730304144e-03
-3.198939371434705e-04 3.502236036831831e-03
-6.317617533806425e-04 2.831702400070976e-03
-5.892946600093951e-04 2.193790276278950e-03
-2.863878073666945e-04 2.185678568862978e-03
-3.069067712064810e-04 2.826044730304144e-03
-5.892946600093951e-04 2.193790276278950e-03
-5.311364427286639e-04 1.607436948352293e-03
-2.581032340865816e-04 1.596790997135894e-03
-2.863878073666945e-04 2.185678568862978e-03
-5.311364427286639e-04 1.607436948352293e-03
-4.569111422036949e-04 1.088699621197948e-03
-2.218415816374980e-04 1.075499963497961e-03
-2.581032340865816e-04 1.596790997135894e-03
-4.569111422036949e-04 1.088699621197948e-03
-3.662492544614194e-04 6.541116498688367e-04
-1.774335151866172e-04 6.381477465364603e-04
-2.218415816374980e-04 1.075499963497961e-03
-3.662492544614194e-04 6.541116498688367e-04
-2.587991780802452e-04 3.198663283291971e-04
-1.251956781214317e-04 3.019763187618620e-04
-1.774335151866172e-04 6.381477465364603e-04
-2.587991780802452e-04 3.198663283291971e-04
-1.348417884767276e-04 1.076122535554412e-04
-6.127366361830494e-05 8.208923787520325e-05
-1.251956781214317e-04 3.019763187618620e-04
-1.348417884767276e-04 1.076122535554412e-04
0.000000000000000e+00 0.000000000000000e+00
0.000000000000000e+00 0.000000000000000e+00
-6.127366361830494e-05 8.208923787520325e-05
0.000000000000000e+00 0.000000000000000e+00
9.111974947432152e-05 1.331166225338109e-04
1.580036842620009e-06 1.211552581967847e-04
0.000000000000000e+00 0.000000000000000e+00
9.111974947432152e-05 1.331166225338109e-04
1.829061414987781e-04 4.553188923040533e-04
3.671235027782369e-06 4.456464361342240e-04
1.580036842620009e-06 1.211552581967847e-04
1.829061414987781e-04 4.553188923040533e-04
2.525443464966669e-04 9.249256362995941e-04
5.613223817323250e-06 9.177524402144323e-04
3.671235027782369e-06 4.456464361342240e-04
2.525443464966669e-04 9.249256362995941e-04
3.070400660391318e-04 1.512668478960027e-03
7.382117064993406e-06 1.506882489899255e-03
5.613223817323250e-06 9.177524402144323e-04
3.070400660391318e-04 1.512668478960027e-03
3.470607180190555e-04 2.187803228655860e-03
9.056302642385070e-06 2.183589551512385e-03
7.382117064993406e-06 1.506882489899255e-03
3.470607180190555e-04 2.187803228655860e-03
3.738656362300791e-04 2.923134891766617e-03
1.063270379815592e-05 2.920281068159879e-03
9.056302642385070e-06 2.183589551512385e-03
3.738656362300791e-04 2.923134891766617e-03
3.886882570409616e-04 3.693740771195140e-03
1.211212109590440e-05 3.692135666399483e-03
1.063270379815592e-05 2.920281068159879e-03
3.886882570409616e-04 3.693740771195140e-03
3.927027994253425e-04 4.477129908483339e-03
1.349570569968323e-05 4.476645316745353e-03
1.211212109590440e-05 3.692135666399483e-03
3.927027994253425e-04 4.477129908483339e-03
3.870497677273905e-04 5.253116852811439e-03
1.478409341177492e-05 5.253633258376539e-03
1.349570569968323e-05 4.476645316745353e-03
3.870497677273905e-04 5.253116852811439e-03
3.728313400794418e-04 6.003758844006460e-03
1.597715299593277e-05 6.005159810332054e-03
1.478409341177492e-05 5.253633258376539e-03
3.728313400794418e-04 6.003758844006460e-03
3.511127006920755e-04 6.713279558163682e-03
1.707424032537068e-05 6.715452821924821e-03
1.597715299593277e-05 6.005159810332054e-03
3.511127006920755e-04 6.713279558163682e-03
3.229225905659466e-04 7.367997002158515e-03
1.807425079802200e-05 7.370834217341986e-03
1.707424032537068e-05 6.715452821924821e-03
3.229225905659466e-04 7.367997002158515e-03
2.892540993951175e-04 7.956252574556262e-03
1.897570734172200e-05 7.959649266444536e-03
1.807425079802200e-05 7.370834217341986e-03
2.892540993951175e-04 7.956252574556262e-03
2.510653330218419e-04 8.468341250737301e-03
1.977686846511026e-05 8.472196736674174e-03
1.897570734172200e-05 7.959649266444536e-03
2.510653330218419e-04 8.468341250737301e-03
2.092796611404836e-04 8.896442487259137e-03
2.047578685352132e-05 8.900659784582814e-03
1.977686846511026e-05 8.472196736674174e-03
2.092796611404836e-04 8.896442487259137e-03
1.647859900370011e-04 9.234551312482450e-03
2.107036252698564e-05 9.239037096838428e-03
2.047578685352132e-05 8.900659784582814e-03
1.647859900370011e-04 9.234551312482450e-03
1.184392060817268e-04 9.478410082671970e-03
2.155837080497986e-05 9.483074756378843e-03
2.107036252698564e-05 9.239037096838428e-03
1.184392060817268e-04 9.478410082671970e-03
7.106073203983516e-05 9.625441797067952e-03
2.193755932500001e-05 9.630199354963905e-03
2.155837080497986e-05 9.483074756378843e-03
7.106073203983516e-05 9.625441797067952e-03
2.343878959519752e-05 9.674683402444007e-03
2.220574252807637e-05 9.679451412256896e-03
2.193755932500001e-05 9.630199354963905e-03
2.343878959519752e-05 9.674683402444007e-03
-2.367176166577986e-05 9.626719166828007e-03
2.236079893990396e-05 9.631418744453085e-03
2.220574252807637e-05 9.679451412256896e-03
-2.367176166577986e-05 9.626719166828007e-03
-6.954943268145240e-05 9.483613814411760e-03
2.240066940635744e-05 9.488169636583801e-03
2.236079893990396e-05 9.631418744453085e-03
-6.954943268145240e-05 9.483613814411760e-03
-1.135059716723753e-04 9.248845874591212e-03
2.232337016724119e-05 9.253186242066561e-03
2.240066940635744e-05 9.488169636583801e-03
-1.135059716723753e-04 9.248845874591212e-03
-1.548861645296557e-04 8.927241698331714e-03
2.212706864405718e-05 8.931298445341233e-03
2.232337016724119e-05 9.253186242066561e-03
-1.548861645296557e-04 8.927241698331714e-03
-1.930679274377413e-04 8.524908872686124e-03
2.181014402413695e-05 8.528617383794710e-03
2.212706864405718e-05 8.931298445341233e-03
-1.930679274377413e-04 8.524908872686124e-03
-2.274626876017962e-04 8.049169198150161e-03
2.137115817167340e-05 8.052468438814043e-03
2.181014402413695e-05 8.528617383794710e-03
-2.274626876017962e-04 8.049169198150161e-03
-2.575156256456102e-04 7.508491147252831e-03
2.080882370751121e-05 7.511323715834257e-03
2.137115817167340e-05 8.052468438814043e-03
-2.575156256456102e-04 7.508491147252831e-03
-2.827058508662520e-04 6.912422075507873e-03
2.012200696706360e-05 6.914734239284335e-03
2.080882370751121e-05 7.511323715834257e-03
-2.827058508662520e-04 6.912422075507873e-03
-3.025465647968187e-04 6.271520103099689e-03
1.930976930316710e-05 6.273261775235264e-03
2.012200696706360e-05 6.914734239284335e-03
-3.025465647968187e-04 6.271520103099689e-03
-3.165854255409764e-04 5.597285082746052e-03
1.837138319840867e-05 5.598409871102716e-03
1.930976930316710e-05 6.273261775235264e-03
-3.165854255409764e-04 5.597285082746052e-03
-3.244050296827221e-04 4.902088817672485e-03
1.730629275263470e-05 4.902554081622974e-03
1.837138319840867e-05 5.598409871102716e-03
-3.244050296827221e-04 4.902088817672485e-03
-3.256233141589793e-04 4.199104570400374e-03
1.611407451317185e-05 4.198871530124251e-03
1.730629275263470e-05 4.902554081622974e-03
-3.256233141589793e-04 4.199104570400374e-03
-3.198939371434705e-04 3.502236036831831e-03
1.479444247362664e-05 3.501269593738293e-03
1.611407451317185e-05 4.198871530124251e-03
-3.198939371434705e-04 3.502236036831831e-03
-3.069067712064810e-04 2.826044730304144e-03
1.334725656573070e-05 2.824314316083929e-03
1.479444247362664e-05 3.501269593738293e-03
-3.069067712064810e-04 2.826044730304144e-03
-2.863878073666945e-04 2.185678568862978e-03
1.177247250605616e-05 2.183154610580179e-03
1.334725656573070e-05 2.824314316083929e-03
-2.863878073666945e-04 2.185678568862978e-03
-2.581032340865816e-04 1.596790997135894e-03
1.007046599309975e-05 1.593461508220204e-03
1.177247250605616e-05 2.183154610580179e-03
-2.581032340865816e-04 1.596790997135894e-03
-2.218415816374980e-04 1.075499963497961e-03
8.242846994890801e-06 1.071291248804950e-03
1.007046599309975e-05 1.593461508220204e-03
-2.218415816374980e-04 1.075499963497961e-03
-1.774335151866172e-04 6.381477465364603e-04
6.293709929358314e-06 6.332564315732909e-04
8.242846994890801e-06 1.071291248804950e-03
-1.774335151866172e-04 6.381477465364603e-04
-1.251956781214317e-04 3.019763187618620e-04
4.189262069150924e-06 2.958445069083810e-04
6.293709929358314e-06 6.332564315732909e-04
-1.251956781214317e-04 3.019763187618620e-04
-6.127366361830494e-05 8.208923787520325e-05
1.971228594084417e-06 7.451535696057640e-05
4.189262069150924e-06 2.958445069083810e-04
-6.127366361830494e-05 8.208923787520325e-05
0.000000000000000e+00 0.000000000000000e+00
0.000000000000000e+00 0.000000000000000e+00
1.971228594084417e-06 7.451535696057640e-05
0.000000000000000e+00 0.000000000000000e+00
1.580036842620009e-06 1.211552581967847e-04
-8.781824510199091e-05 1.314804623218650e-04
0.000000000000000e+00 0.000000000000000e+00
1.580036842620009e-06 1.211552581967847e-04
3.671235027782369e-06 4.456464361342240e-04
-1.754135681534452e-04 4.535678204306851e-04
-8.781824510199091e-05 1.314804623218650e-04
3.671235027782369e-06 4.456464361342240e-04
5.613223817323250e-06 9.177524402144323e-04
-2.412885731859601e-04 9.233563820844971e-04
-1.754135681534452e-04 4.535678204306851e-04
5.613223817323250e-06 9.177524402144323e-04
7.382117064993406e-06 1.506882489899255e-03
-2.922291501825974e-04 1.511170098776281e-03
-2.412885731859601e-04 9.233563820844971e-04
7.382117064993406e-06 1.506882489899255e-03
9.056302642385070e-06 2.183589551512385e-03
-3.289023575983817e-04 2.186368057033708e-03
-2.922291501825974e-04 1.511170098776281e-03
9.056302642385070e-06 2.183589551512385e-03
1.063270379815592e-05 2.920281068159879e-03
-3.525554511450291e-04 2.921763942584982e-03
-3.289023575983817e-04 2.186368057033708e-03
1.063270379815592e-05 2.920281068159879e-03
1.211212109590440e-05 3.692135666399483e-03
-3.644199453905391e-04 3.692433596794515e-03
-3.525554511450291e-04 2.921763942584982e-03
1.211212109590440e-05 3.692135666399483e-03
1.349570569968323e-05 4.476645316745353e-03
-3.656673869840147e-04 4.475885628963752e-03
-3.644199453905391e-04 3.692433596794515e-03
1.349570569968323e-05 4.476645316745353e-03
1.478409341177492e-05 5.253633258376539e-03
-3.574373250939352e-04 5.251935103188761e-03
-3.656673869840147e-04 4.475885628963752e-03
1.478409341177492e-05 5.253633258376539e-03
1.597715299593277e-05 6.005159810332054e-03
-3.408321659465006e-04 6.002639507090083e-03
-3.574373250939352e-04 5.251935103188761e-03
1.597715299593277e-05 6.005159810332054e-03
1.707424032537068e-05 6.715452821924821e-03
-3.169184474576716e-04 6.712222660691379e-03
-3.408321659465006e-04 6.002639507090083e-03
1.707424032537068e-05 6.715452821924821e-03
1.807425079802200e-05 7.370834217341986e-03
-2.867272491681076e-04 7.367002845397878e-03
-3.169184474576716e-04 6.712222660691379e-03
1.807425079802200e-05 7.370834217341986e-03
1.897570734172200e-05 7.959649266444536e-03
-2.512546962157381e-04 7.955321659243057e-03
-2.867272491681076e-04 7.367002845397878e-03
1.897570734172200e-05 7.959649266444536e-03
1.977686846511026e-05 8.472196736674174e-03
-2.114623311792580e-04 8.467474230244331e-03
-2.512546962157381e-04 7.955321659243057e-03
1.977686846511026e-05 8.472196736674174e-03
2.047578685352132e-05 8.900659784582814e-03
-1.682773948602646e-04 8.895640052639762e-03
-2.114623311792580e-04 8.467474230244331e-03
2.047578685352132e-05 8.900659784582814e-03
2.107036252698564e-05 9.239037096838428e-03
-1.225930909841710e-04 9.233814181592512e-03
-1.682773948602646e-04 8.895640052639762e-03
2.107036252698564e-05 9.239037096838428e-03
2.155837080497986e-05 9.483074756378843e-03
-7.526888625866167e-05 9.477739157175039e-03
-1.225930909841710e-04 9.233814181592512e-03
2.155837080497986e-05 9.483074756378843e-03
2.193755932500001e-05 9.630199354963905e-03
-2.713072915094124e-05 9.624838009407055e-03
-7.526888625866167e-05 9.477739157175039e-03
2.193755932500001e-05 9.630199354963905e-03
2.220574252807637e-05 9.679451412256896e-03
2.102887088242878e-05 9.674147677113491e-03
-2.713072915094124e-05 9.624838009407055e-03
2.220574252807637e-05 9.679451412256896e-03
2.236079893990396e-05 9.631418744453085e-03
6.845082599964199e-05 9.626252372984170e-03
2.102887088242878e-05 9.674147677113491e-03
2.236079893990396e-05 9.631418744453085e-03
2.240066940635744e-05 9.488169636583801e-03
1.144094505527699e-04 9.483216795503135e-03
6.845082599964199e-05 9.626252372984170e-03
2.240066940635744e-05 9.488169636583801e-03
2.232337016724119e-05 9.253186242066561e-03
1.582124352080669e-04 9.248519551397339e-03
1.144094505527699e-04 9.483216795503135e-03
2.232337016724119e-05 9.253186242066561e-03
2.212706864405718e-05 8.931298445341233e-03
1.992009111531252e-04 8.926986929582922e-03
1.582124352080669e-04 9.248519551397339e-03
2.212706864405718e-05 8.931298445341233e-03
2.181014402413695e-05 8.528617383794710e-03
2.367496211671798e-04 8.524726434078318e-03
1.992009111531252e-04 8.926986929582922e-03
2.181014402413695e-05 8.528617383794710e-03
2.137115817167340e-05 8.052468438814043e-03
2.702671200305040e-04 8.049059788614537e-03
2.367496211671798e-04 8.524726434078318e-03
2.137115817167340e-05 8.052468438814043e-03
2.080882370751121e-05 7.511323715834257e-03
2.991959756128258e-04 7.508455437221692e-03
2.702671200305040e-04 8.049059788614537e-03
2.080882370751121e-05 7.511323715834257e-03
2.012200696706360e-05 6.914734239284335e-03
3.230129967290061e-04 6.912460725269166e-03
2.991959756128258e-04 7.508455437221692e-03
2.012200696706360e-05 6.914734239284335e-03
1.930976930316710e-05 6.273261775235264e-03
3.412295326910874e-04 6.271633681499449e-03
3.230129967290061e-04 6.912460725269166e-03
1.930976930316710e-05 6.273261775235264e-03
1.837138319840867e-05 5.598409871102716e-03
3.533918231131602e-04 5.597474069891846e-03
3.412295326910874e-04 6.271633681499449e-03
1.837138319840867e-05 5.598409871102716e-03
1.730629275263470e-05 4.902554081622974e-03
3.590813495741069e-04 4.902353647142360e-03
3.533918231131602e-04 5.597474069891846e-03
1.730629275263470e-05 4.902554081622974e-03
1.611407451317185e-05 4.198871530124251e-03
3.579152005852857e-04 4.199445665530161e-03
3.590813495741069e-04 4.902353647142360e-03
1.611407451317185e-05 4.198871530124251e-03
1.479444247362664e-05 3.501269593738293e-03
3.495464722695313e-04 3.502653755497478e-03
3.579152005852857e-04 4.199445665530161e-03
1.479444247362664e-05 3.501269593738293e-03
1.334725656573070e-05 2.824314316083929e-03
3.336647720010228e-04 2.826539370987720e-03
3.495464722695313e-04 3.502653755497478e-03
1.334725656573070e-05 2.824314316083929e-03
1.177247250605616e-05 2.183154610580179e-03
3.099960971947060e-04 2.186250382163767e-03
3.336647720010228e-04 2.826539370987720e-03
1.177247250605616e-05 2.183154610580179e-03
1.007046599309975e-05 1.593461508220204e-03
2.783069787092092e-04 1.597439546609900e-03
3.099960971947060e-04 2.186250382163767e-03
1.007046599309975e-05 1.593461508220204e-03
8.242846994890801e-06 1.071291248804950e-03
2.383886343492657e-04 1.076223413055623e-03
2.783069787092092e-04 1.597439546609900e-03
8.242846994890801e-06 1.071291248804950e-03
6.293709929358314e-06 6.332564315732909e-04
1.900728830070187e-04 6.389481555349834e-04
2.383886343492657e-04 1.076223413055623e-03
6.293709929358314e-06 6.332564315732909e-04
4.189262069150924e-06 2.958445069083810e-04
1.336883132809172e-04 3.028968312472408e-04
1.900728830070187e-04 6.389481555349834e-04
4.189262069150924e-06 2.958445069083810e-04
1.971228594084417e-06 7.451535696057640e-05
6.531224397081064e-05 8.292268224432222e-05
1.336883132809172e-04 3.028968312472408e-04
1.971228594084417e-06 7.451535696057640e-05
0.000000000000000e+00 0.000000000000000e+00
0.000000000000000e+00 0.000000000000000e+00
6.531224397081064e-05 8.292268224432222e-05
0.000000000000000e+00 0.000000000000000e+00
-8.781824510199091e-05 1.314804623218650e-04
-1.961062480139802e-04 1.674002409536912e-04
0.000000000000000e+00 0.000000000000000e+00
-8.781824510199091e-05 1.314804623218650e-04
-1.754135681534452e-04 4.535678204306851e-04
-3.635000949659232e-04 4.766916431848029e-04
-1.961062480139802e-04 1.674002409536912e-04
-1.754135681534452e-04 4.535678204306851e-04
-2.412885731859601e-04 9.233563820844971e-04
-4.976760148171211e-04 9.423579664710385e-04
-3.635000949659232e-04 4.766916431848029e-04
-2.412885731859601e-04 9.233563820844971e-04
-2.922291501825974e-04 1.511170098776281e-03
-6.005274189055588e-04 1.525182797109522e-03
-4.976760148171211e-04 9.423579664710385e-04
-2.922291501825974e-04 1.511170098776281e-03
-3.289023575983817e-04 2.186368057033708e-03
-6.747459237443604e-04 2.196041395246158e-03
-6.005274189055588e-04 1.525182797109522e-03
-3.289023575983817e-04 2.186368057033708e-03
-3.525554511450291e-04 2.921763942584982e-03
-7.229048077044419e-04 2.927435146714382e-03
-6.747459237443604e-04 2.196041395246158e-03
-3.525554511450291e-04 2.921763942584982e-03
-3.644199453905391e-04 3.692433596794515e-03
-7.473967587931408e-04 3.694502526850857e-03
-7.229048077044419e-04 2.927435146714382e-03
-3.644199453905391e-04 3.692433596794515e-03
-3.656673869840147e-04 4.475885628963752e-03
-7.505841849791240e-04 4.474720251101273e-03
-7.473967587931408e-04 3.694502526850857e-03
-3.656673869840147e-04 4.475885628963752e-03
-3.574373250939352e-04 5.251935103188761e-03
-7.347430076116011e-04 5.247896566375590e-03
-7.505841849791240e-04 4.474720251101273e-03
-3.574373250939352e-04 5.251935103188761e-03
-3.408321659465006e-04 6.002639507090083e-03
-7.020782349284536e-04 5.996076044532570e-03
-7.347430076116011e-04 5.247896566375590e-03
-3.408321659465006e-04 6.002639507090083e-03
-3.169184474576716e-04 6.712222660691379e-03
-6.547218636070261e-04 6.703471256193777e-03
-7.020782349284536e-04 5.996076044532570e-03
-3.169184474576716e-04 6.712222660691379e-03
-2.867272491681076e-04 7.367002845397878e-03
-5.947346889390172e-04 7.356389071984487e-03
-6.547218636070261e-04 6.703471256193777e-03
-2.867272491681076e-04 7.367002845397878e-03
-2.512546962157381e-04 7.955321659243057e-03
-5.241072532556474e-04 7.943159917272322e-03
-5.947346889390172e-04 7.356389071984487e-03
-2.512546962157381e-04 7.955321659243057e-03
-2.114623311792580e-04 8.467474230244331e-03
-4.447607226274254e-04 8.454067833268623e-03
-5.241072532556474e-04 7.943159917272322e-03
-2.114623311792580e-04 8.467474230244331e-03
-1.682773948602646e-04 8.895640052639762e-03
-3.585474622184963e-04 8.881281305110988e-03
-4.447607226274254e-04 8.454067833268623e-03
-1.682773948602646e-04 8.895640052639762e-03
-1.225930909841710e-04 9.233814181592512e-03
-2.672516034818106e-04 9.218784477836455e-03
-3.585474622184963e-04 8.881281305110988e-03
-1.225930909841710e-04 9.233814181592512e-03
-7.526888625866167e-05 9.477739157175039e-03
-1.725897335470025e-04 9.462309101181628e-03
-2.672516034818106e-04 9.218784477836455e-03
-7.526888625866167e-05 9.477739157175039e-03
-2.713072915094124e-05 9.624838009407055e-03
-7.621144776073373e-05 9.609267466681623e-03
-1.725897335470025e-04 9.462309101181628e-03
-2.713072915094124e-05 9.624838009407055e-03
2.102887088242878e-05 9.674147677113491e-03
2.030044205004917e-05 9.658685780439876e-03
-7.621144776073373e-05 9.609267466681623e-03
2.102887088242878e-05 9.674147677113491e-03
6.845082599964199e-05 9.626252372984170e-03
1.154298977984711e-04 9.611137515954726e-03
2.030044205004917e-05 9.658685780439876e-03
6.845082599964199e-05 9.626252372984170e-03
1.144094505527699e-04 9.483216795503135e-03
2.077276155391282e-04 9.468676650005985e-03
1.154298977984711e-04 9.611137515954726e-03
1.144094505527699e-04 9.483216795503135e-03
1.582124352080669e-04 9.248519551397339e-03
2.958109136664659e-04 9.234771086517523e-03
2.077276155391282e-04 9.468676650005985e-03
1.582124352080669e-04 9.248519551397339e-03
1.992009111531252e-04 8.926986929582922e-03
3.783637860050458e-04 8.914236370868469e-03
2.958109136664659e-04 9.234771086517523e-03
1.992009111531252e-04 8.926986929582922e-03
2.367496211671798e-04 8.524726434078318e-03
4.541372249618272e-04 8.513169193971536e-03
3.783637860050458e-04 8.914236370868469e-03
2.367496211671798e-04 8.524726434078318e-03
2.702671200305040e-04 8.049059788614537e-03
5.219496572032421e-04 8.038880395924829e-03
4.541372249618272e-04 8.513169193971536e-03
2.702671200305040e-04 8.049059788614537e-03
2.991959756128258e-04 7.508455437221692e-03
5.806873620589081e-04 7.499827475629028e-03
5.219496572032421e-04 8.038880395924829e-03
2.991959756128258e-04 7.508455437221692e-03
3.230129967290061e-04 6.912460725269166e-03
6.293049058657125e-04 6.905546756762952e-03
5.806873620589081e-04 7.499827475629028e-03
3.230129967290061e-04 6.912460725269166e-03
3.412295326910874e-04 6.271633681499449e-03
6.668257165691669e-04 6.266585135181079e-03
6.293049058657125e-04 6.905546756762952e-03
3.412295326910874e-04 6.271633681499449e-03
3.533918231131602e-04 5.597474069891846e-03
6.923427890118372e-04 5.594431126146978e-03
6.668257165691669e-04 6.266585135181079e-03
3.533918231131602e-04 5.597474069891846e-03
3.590813495741069e-04 4.902353647142360e-03
7.050194251038463e-04 4.901445110280977e-03
6.923427890118372e-04 5.594431126146978e-03
3.590813495741069e-04 4.902353647142360e-03
3.579152005852857e-04 4.199445665530161e-03
7.040899578041895e-04 4.200788896847208e-03
7.050194251038463e-04 4.901445110280977e-03
3.579152005852857e-04 4.199445665530161e-03
3.495464722695313e-04 3.502653755497478e-03
6.888606747094242e-04 3.506354295783377e-03
7.040899578041895e-04 4.200788896847208e-03
3.495464722695313e-04 3.502653755497478e-03
3.336647720010228e-04 2.826539370987720e-03
6.587102527750829e-04 2.832691800615848e-03
6.888606747094242e-04 3.506354295783377e-03
3.336647720010228e-04 2.826539370987720e-03
3.099960971947060e-04 2.186250382163767e-03
6.130928237079054e-04 2.194934008455691e-03
6.587102527750829e-04 2.832691800615848e-03
3.099960971947060e-04 2.186250382163767e-03
2.783069787092092e-04 1.597439546609900e-03
5.515292716652213e-04 1.608734767285862e-03
6.130928237079054e-04 2.194934008455691e-03
2.783069787092092e-04 1.597439546609900e-03
2.383886343492657e-04 1.076223413055623e-03
4.736425561076144e-04 1.090148306612253e-03
5.515292716652213e-04 1.608734767285862e-03
2.383886343492657e-04 1.076223413055623e-03
1.900728830070187e-04 6.389481555349834e-04
3.790603313066589e-04 6.557186134429243e-04
4.736425561076144e-04 1.090148306612253e-03
1.900728830070187e-04 6.389481555349834e-04
1.336883132809172e-04 3.028968312472408e-04
2.674913192827677e-04 3.216322367299993e-04
3.790603313066589e-04 6.557186134429243e-04
1.336883132809172e-04 3.028968312472408e-04
6.531224397081064e-05 8.292268224432222e-05
1.394074794150634e-04 1.094264966278572e-04
2.674913192827677e-04 3.216322367299993e-04
6.531224397081064e-05 8.292268224432222e-05
0.000000000000000e+00 0.000000000000000e+00
0.000000000000000e+00 0.000000000000000e+00
1.394074794150634e-04 1.094264966278572e-04
        </DataArray>
      </PointData>

    </Piece>
  </UnstructuredGrid>
</VTKFile>
